M48
INCH
T1C0.0118
T2C0.0157
T3C0.0295
T4C0.0394
T5C0.0579
T6C0.0591
T7C0.1850
%
G90
G05
T1
X1.5429Y-2.0251
X1.9524Y-3.5928
X2.2537Y-1.5307
X2.3647Y-3.6677
X2.3711Y-2.282
X2.5351Y-3.8597
X2.5351Y-4.5172
X2.539Y-3.1117
X2.5587Y-2.3636
X2.6496Y-1.2713
X2.7045Y-1.109
X2.71Y-1.55
X2.717Y-3.5928
X2.7201Y-2.844
X2.8084Y-1.5488
X3.0902Y-2.777
X3.1049Y-3.6815
X3.224Y-2.9778
X3.224Y-3.1786
X3.2407Y-2.8027
X3.4729Y-3.5928
X3.5823Y-1.2827
X4.0841Y-1.1448
X4.0866Y-1.3961
X4.2518Y-1.8639
T2
X3.0981Y-2.9029
X3.1473Y-1.7593
X3.2634Y-3.7298
X3.5588Y-1.5567
X3.661Y-1.0744
T3
X1.8795Y-1.151
X1.8795Y-1.2298
T4
X1.1358Y-1.8255
X1.1358Y-2.0223
X1.7067Y-1.8255
X1.7067Y-1.9239
X1.7067Y-2.0223
X2.3603Y-0.8542
X2.3603Y-1.4542
X2.4603Y-0.8542
X2.4603Y-1.4542
X2.5603Y-0.8542
X2.5603Y-1.4542
X2.6603Y-0.8542
X2.6603Y-1.4542
X2.7603Y-0.8542
X2.7603Y-1.4542
X2.8603Y-0.8542
X2.8603Y-1.4542
X2.9603Y-0.8542
X2.9603Y-1.4542
X3.0603Y-0.8542
X3.0603Y-1.4542
X3.1603Y-0.8542
X3.1603Y-1.4542
X3.2603Y-0.8542
X3.2603Y-1.4542
X3.3603Y-0.8542
X3.3603Y-1.4542
X3.4603Y-0.8542
X3.4603Y-1.4542
X3.5603Y-0.8542
X3.5603Y-1.4542
X4.1162Y-1.8255
X4.1162Y-1.9239
X4.1162Y-2.0223
X4.687Y-1.8255
X4.687Y-2.0223
T5
X2.0111Y-3.3225
X2.2611Y-3.2225
X2.7613Y-3.3225
X2.7616Y-2.5736
X3.0113Y-3.2225
X3.0116Y-2.4736
X3.5113Y-3.3225
X3.7613Y-3.2225
T6
X1.2613Y-3.3225
X1.2616Y-2.5736
X1.2616Y-4.0736
X1.5113Y-3.2225
X1.5116Y-2.4736
X1.5116Y-3.9736
X1.6365Y-4.8229
X1.8865Y-4.7229
X2.0113Y-1.8236
X2.0113Y-2.5736
X2.0113Y-4.0736
X2.2613Y-1.7236
X2.2613Y-2.4736
X2.2613Y-3.9736
X2.7616Y-1.8236
X2.7616Y-4.0736
X2.7617Y-4.8233
X3.0116Y-1.7236
X3.0116Y-3.9736
X3.0117Y-4.7233
X3.5116Y-1.8236
X3.5116Y-2.5736
X3.5116Y-4.0736
X3.7616Y-1.7236
X3.7616Y-2.4736
X3.7616Y-3.9736
X3.8869Y-4.8233
X4.1369Y-4.7233
X4.2613Y-3.3225
X4.2616Y-2.5736
X4.2616Y-4.0736
X4.5113Y-3.2225
X4.5116Y-2.4736
X4.5116Y-3.9736
T7
X1.0311Y-2.2995
X1.0327Y-4.9428
X4.7918Y-2.2995
X4.7918Y-4.9428
T6
G00X1.437Y-1.7034
M15
G01X1.3858Y-1.7034
M16
G05
G00X1.437Y-2.1443
M15
G01X1.3858Y-2.1443
M16
G05
G00X4.3858Y-1.7034
M15
G01X4.437Y-1.7034
M16
G05
G00X4.3858Y-2.1443
M15
G01X4.437Y-2.1443
M16
G05
M30
