%TF.GenerationSoftware,KiCad,Pcbnew,9.0.2*%
%TF.CreationDate,2025-05-27T10:03:14+01:00*%
%TF.ProjectId,PCB,5043422e-6b69-4636-9164-5f7063625858,1.0*%
%TF.SameCoordinates,Original*%
%TF.FileFunction,Paste,Bot*%
%TF.FilePolarity,Positive*%
%FSLAX46Y46*%
G04 Gerber Fmt 4.6, Leading zero omitted, Abs format (unit mm)*
G04 Created by KiCad (PCBNEW 9.0.2) date 2025-05-27 10:03:14*
%MOMM*%
%LPD*%
G01*
G04 APERTURE LIST*
G04 Aperture macros list*
%AMRoundRect*
0 Rectangle with rounded corners*
0 $1 Rounding radius*
0 $2 $3 $4 $5 $6 $7 $8 $9 X,Y pos of 4 corners*
0 Add a 4 corners polygon primitive as box body*
4,1,4,$2,$3,$4,$5,$6,$7,$8,$9,$2,$3,0*
0 Add four circle primitives for the rounded corners*
1,1,$1+$1,$2,$3*
1,1,$1+$1,$4,$5*
1,1,$1+$1,$6,$7*
1,1,$1+$1,$8,$9*
0 Add four rect primitives between the rounded corners*
20,1,$1+$1,$2,$3,$4,$5,0*
20,1,$1+$1,$4,$5,$6,$7,0*
20,1,$1+$1,$6,$7,$8,$9,0*
20,1,$1+$1,$8,$9,$2,$3,0*%
G04 Aperture macros list end*
%ADD10RoundRect,0.082000X0.718000X-0.328000X0.718000X0.328000X-0.718000X0.328000X-0.718000X-0.328000X0*%
%ADD11RoundRect,0.250000X-0.300000X0.300000X-0.300000X-0.300000X0.300000X-0.300000X0.300000X0.300000X0*%
%ADD12R,1.000000X0.700000*%
%ADD13RoundRect,0.250000X-0.300000X-0.300000X0.300000X-0.300000X0.300000X0.300000X-0.300000X0.300000X0*%
%ADD14RoundRect,0.250000X0.300000X0.300000X-0.300000X0.300000X-0.300000X-0.300000X0.300000X-0.300000X0*%
%ADD15RoundRect,0.250000X-0.500000X-0.150000X0.500000X-0.150000X0.500000X0.150000X-0.500000X0.150000X0*%
%ADD16RoundRect,0.125000X-0.225000X-0.875000X0.225000X-0.875000X0.225000X0.875000X-0.225000X0.875000X0*%
G04 APERTURE END LIST*
D10*
%TO.C,D4-D15*%
X76542796Y-92756883D03*
X76542796Y-91256883D03*
X71342796Y-91256883D03*
X71342796Y-92756883D03*
%TD*%
%TO.C,D4-D7*%
X57486446Y-92756885D03*
X57486446Y-91256885D03*
X52286446Y-91256885D03*
X52286446Y-92756885D03*
%TD*%
%TO.C,D3-D15*%
X76549146Y-73734183D03*
X76549146Y-72234183D03*
X71349146Y-72234183D03*
X71349146Y-73734183D03*
%TD*%
%TO.C,D4-D18*%
X95592796Y-92756883D03*
X95592796Y-91256883D03*
X90392796Y-91256883D03*
X90392796Y-92756883D03*
%TD*%
D11*
%TO.C,SD9*%
X66833496Y-40939483D03*
X66833496Y-43739483D03*
%TD*%
%TO.C,SD9*%
X66790496Y-117136483D03*
X66790496Y-119936483D03*
%TD*%
%TO.C,SD9*%
X104990496Y-98036483D03*
X104990496Y-100836483D03*
%TD*%
D12*
%TO.C,RESET*%
X112092996Y-29078483D03*
X106092996Y-29078483D03*
X112092996Y-32778483D03*
X106092996Y-32778483D03*
%TD*%
D11*
%TO.C,SD9*%
X85990496Y-98036483D03*
X85990496Y-100836483D03*
%TD*%
%TO.C,SD9*%
X85790496Y-40936483D03*
X85790496Y-43736483D03*
%TD*%
D13*
%TO.C,SD9*%
X101226996Y-40937483D03*
X104026996Y-40937483D03*
%TD*%
D11*
%TO.C,SD9*%
X85990496Y-60036483D03*
X85990496Y-62836483D03*
%TD*%
%TO.C,SD9*%
X29990496Y-98086483D03*
X29990496Y-100886483D03*
%TD*%
%TO.C,SD9*%
X104990496Y-60036483D03*
X104990496Y-62836483D03*
%TD*%
D14*
%TO.C,SD9*%
X35560996Y-59979483D03*
X32760996Y-59979483D03*
%TD*%
D11*
%TO.C,SD9*%
X31190496Y-40936483D03*
X31190496Y-43736483D03*
%TD*%
%TO.C,SD9*%
X104990496Y-79036483D03*
X104990496Y-81836483D03*
%TD*%
D15*
%TO.C,SW43*%
X96770000Y-21090000D03*
X96770000Y-23300000D03*
X104570000Y-21090000D03*
X104570000Y-23300000D03*
D16*
X98420000Y-24200000D03*
X101420000Y-24200000D03*
X102920000Y-24200000D03*
%TD*%
D11*
%TO.C,SD9*%
X47590496Y-40936483D03*
X47590496Y-43736483D03*
%TD*%
%TO.C,SD9*%
X66890496Y-60036483D03*
X66890496Y-62836483D03*
%TD*%
%TO.C,SD9*%
X47790496Y-79036483D03*
X47790496Y-81836483D03*
%TD*%
%TO.C,SD9*%
X66890496Y-79036483D03*
X66890496Y-81836483D03*
%TD*%
%TO.C,SD9*%
X47790496Y-98036483D03*
X47790496Y-100836483D03*
%TD*%
%TO.C,SD9*%
X95390496Y-117136483D03*
X95390496Y-119936483D03*
%TD*%
%TO.C,SD9*%
X66890496Y-98036483D03*
X66890496Y-100836483D03*
%TD*%
%TO.C,SD9*%
X85990496Y-79036483D03*
X85990496Y-81836483D03*
%TD*%
%TO.C,SD9*%
X29990496Y-79086483D03*
X29990496Y-81886483D03*
%TD*%
%TO.C,SD9*%
X38190496Y-117136483D03*
X38190496Y-119936483D03*
%TD*%
%TO.C,SD9*%
X47790496Y-60036483D03*
X47790496Y-62836483D03*
%TD*%
M02*
