M48
INCH
T1C0.0354
T2C0.0669
T3C0.1201
T4C0.1575
%
G90
G05
T1
X3.9043Y-0.8736
X4.0224Y-0.8736
T2
X1.2113Y-3.4225
X1.2116Y-2.6736
X1.2116Y-4.1736
X1.5865Y-4.9229
X1.6113Y-3.4225
X1.6116Y-2.6736
X1.6116Y-4.1736
X1.9445Y-3.4225
X1.9613Y-1.9236
X1.9613Y-2.6736
X1.9613Y-4.1736
X1.9865Y-4.9229
X2.3613Y-1.9236
X2.3613Y-2.6736
X2.3613Y-4.1736
X2.3776Y-3.4225
X2.6948Y-3.4225
X2.695Y-2.6736
X2.7116Y-1.9236
X2.7116Y-4.1736
X2.7117Y-4.9233
X3.1116Y-1.9236
X3.1116Y-4.1736
X3.1117Y-4.9233
X3.1279Y-3.4225
X3.1281Y-2.6736
X3.4448Y-3.4225
X3.4616Y-1.9236
X3.4616Y-2.6736
X3.4616Y-4.1736
X3.8369Y-4.9233
X3.8616Y-1.9236
X3.8616Y-2.6736
X3.8616Y-4.1736
X3.8779Y-3.4225
X4.2113Y-3.4225
X4.2116Y-2.6736
X4.2116Y-4.1736
X4.2369Y-4.9233
X4.6113Y-3.4225
X4.6116Y-2.6736
X4.6116Y-4.1736
T3
X1.318Y-4.6473
X2.255Y-4.6473
X3.5684Y-4.6477
X4.5054Y-4.6477
T4
X1.318Y-5.2473
X1.4113Y-3.4225
X1.4116Y-2.6736
X1.4116Y-4.1736
X1.7865Y-4.9229
X2.1611Y-3.4225
X2.1613Y-1.9236
X2.1613Y-2.6736
X2.1613Y-4.1736
X2.255Y-5.2473
X2.9113Y-3.4225
X2.9116Y-2.6736
X2.9116Y-1.9236
X2.9116Y-4.1736
X2.9117Y-4.9233
X3.5684Y-5.2477
X3.6613Y-3.4225
X3.6616Y-1.9236
X3.6616Y-2.6736
X3.6616Y-4.1736
X4.0369Y-4.9233
X4.4113Y-3.4225
X4.4116Y-2.6736
X4.4116Y-4.1736
X4.5054Y-5.2477
M30
