%TF.GenerationSoftware,KiCad,Pcbnew,9.0.2*%
%TF.CreationDate,2025-05-27T10:03:14+01:00*%
%TF.ProjectId,PCB,5043422e-6b69-4636-9164-5f7063625858,1.0*%
%TF.SameCoordinates,Original*%
%TF.FileFunction,Legend,Bot*%
%TF.FilePolarity,Positive*%
%FSLAX46Y46*%
G04 Gerber Fmt 4.6, Leading zero omitted, Abs format (unit mm)*
G04 Created by KiCad (PCBNEW 9.0.2) date 2025-05-27 10:03:14*
%MOMM*%
%LPD*%
G01*
G04 APERTURE LIST*
G04 Aperture macros list*
%AMRoundRect*
0 Rectangle with rounded corners*
0 $1 Rounding radius*
0 $2 $3 $4 $5 $6 $7 $8 $9 X,Y pos of 4 corners*
0 Add a 4 corners polygon primitive as box body*
4,1,4,$2,$3,$4,$5,$6,$7,$8,$9,$2,$3,0*
0 Add four circle primitives for the rounded corners*
1,1,$1+$1,$2,$3*
1,1,$1+$1,$4,$5*
1,1,$1+$1,$6,$7*
1,1,$1+$1,$8,$9*
0 Add four rect primitives between the rounded corners*
20,1,$1+$1,$2,$3,$4,$5,0*
20,1,$1+$1,$4,$5,$6,$7,0*
20,1,$1+$1,$6,$7,$8,$9,0*
20,1,$1+$1,$8,$9,$2,$3,0*%
%AMFreePoly0*
4,1,6,0.500000,-0.750000,-0.650000,-0.750000,-0.150000,0.000000,-0.650000,0.750000,0.500000,0.750000,0.500000,-0.750000,0.500000,-0.750000,$1*%
%AMFreePoly1*
4,1,6,1.000000,0.000000,0.500000,-0.750000,-0.500000,-0.750000,-0.500000,0.750000,0.500000,0.750000,1.000000,0.000000,1.000000,0.000000,$1*%
G04 Aperture macros list end*
%ADD10C,0.100000*%
%ADD11C,0.150000*%
%ADD12C,0.200000*%
%ADD13C,0.120000*%
%ADD14C,0.000000*%
%ADD15C,1.700000*%
%ADD16C,4.000000*%
%ADD17C,2.200000*%
%ADD18C,4.900000*%
%ADD19C,3.050000*%
%ADD20RoundRect,0.082000X0.718000X-0.328000X0.718000X0.328000X-0.718000X0.328000X-0.718000X-0.328000X0*%
%ADD21C,2.250000*%
%ADD22O,2.250000X2.250000*%
%ADD23R,2.000000X2.000000*%
%ADD24C,2.000000*%
%ADD25R,3.200000X2.000000*%
%ADD26C,1.800000*%
%ADD27RoundRect,0.250000X-0.300000X0.300000X-0.300000X-0.300000X0.300000X-0.300000X0.300000X0.300000X0*%
%ADD28R,1.000000X0.700000*%
%ADD29RoundRect,0.250000X-0.300000X-0.300000X0.300000X-0.300000X0.300000X0.300000X-0.300000X0.300000X0*%
%ADD30RoundRect,0.250000X0.300000X0.300000X-0.300000X0.300000X-0.300000X-0.300000X0.300000X-0.300000X0*%
%ADD31RoundRect,0.250000X-0.500000X-0.150000X0.500000X-0.150000X0.500000X0.150000X-0.500000X0.150000X0*%
%ADD32C,0.900000*%
%ADD33RoundRect,0.125000X-0.225000X-0.875000X0.225000X-0.875000X0.225000X0.875000X-0.225000X0.875000X0*%
%ADD34FreePoly0,180.000000*%
%ADD35RoundRect,0.250000X-0.625000X0.350000X-0.625000X-0.350000X0.625000X-0.350000X0.625000X0.350000X0*%
%ADD36FreePoly1,180.000000*%
G04 APERTURE END LIST*
D10*
X98880001Y-30280001D02*
X101660001Y-30280001D01*
X101660001Y-32120001D01*
X98880001Y-32120001D01*
X98880001Y-30280001D01*
D11*
X87427176Y-35518977D02*
X88427176Y-35518977D01*
X88427176Y-35518977D02*
X88427176Y-35280882D01*
X88427176Y-35280882D02*
X88379557Y-35138025D01*
X88379557Y-35138025D02*
X88284319Y-35042787D01*
X88284319Y-35042787D02*
X88189081Y-34995168D01*
X88189081Y-34995168D02*
X87998605Y-34947549D01*
X87998605Y-34947549D02*
X87855748Y-34947549D01*
X87855748Y-34947549D02*
X87665272Y-34995168D01*
X87665272Y-34995168D02*
X87570034Y-35042787D01*
X87570034Y-35042787D02*
X87474796Y-35138025D01*
X87474796Y-35138025D02*
X87427176Y-35280882D01*
X87427176Y-35280882D02*
X87427176Y-35518977D01*
X87427176Y-33995168D02*
X87427176Y-34566596D01*
X87427176Y-34280882D02*
X88427176Y-34280882D01*
X88427176Y-34280882D02*
X88284319Y-34376120D01*
X88284319Y-34376120D02*
X88189081Y-34471358D01*
X88189081Y-34471358D02*
X88141462Y-34566596D01*
X87046224Y-32518977D02*
X87093843Y-32566596D01*
X87093843Y-32566596D02*
X87236700Y-32661834D01*
X87236700Y-32661834D02*
X87331938Y-32709453D01*
X87331938Y-32709453D02*
X87474796Y-32757072D01*
X87474796Y-32757072D02*
X87712891Y-32804691D01*
X87712891Y-32804691D02*
X87903367Y-32804691D01*
X87903367Y-32804691D02*
X88141462Y-32757072D01*
X88141462Y-32757072D02*
X88284319Y-32709453D01*
X88284319Y-32709453D02*
X88379557Y-32661834D01*
X88379557Y-32661834D02*
X88522415Y-32566596D01*
X88522415Y-32566596D02*
X88570034Y-32518977D01*
X87427176Y-31661834D02*
X87427176Y-32138024D01*
X87427176Y-32138024D02*
X88427176Y-32138024D01*
X87950986Y-31328500D02*
X87950986Y-30995167D01*
X87427176Y-30852310D02*
X87427176Y-31328500D01*
X87427176Y-31328500D02*
X88427176Y-31328500D01*
X88427176Y-31328500D02*
X88427176Y-30852310D01*
X87427176Y-30423738D02*
X88427176Y-30423738D01*
X88427176Y-30423738D02*
X88427176Y-30185643D01*
X88427176Y-30185643D02*
X88379557Y-30042786D01*
X88379557Y-30042786D02*
X88284319Y-29947548D01*
X88284319Y-29947548D02*
X88189081Y-29899929D01*
X88189081Y-29899929D02*
X87998605Y-29852310D01*
X87998605Y-29852310D02*
X87855748Y-29852310D01*
X87855748Y-29852310D02*
X87665272Y-29899929D01*
X87665272Y-29899929D02*
X87570034Y-29947548D01*
X87570034Y-29947548D02*
X87474796Y-30042786D01*
X87474796Y-30042786D02*
X87427176Y-30185643D01*
X87427176Y-30185643D02*
X87427176Y-30423738D01*
X87046224Y-29518976D02*
X87093843Y-29471357D01*
X87093843Y-29471357D02*
X87236700Y-29376119D01*
X87236700Y-29376119D02*
X87331938Y-29328500D01*
X87331938Y-29328500D02*
X87474796Y-29280881D01*
X87474796Y-29280881D02*
X87712891Y-29233262D01*
X87712891Y-29233262D02*
X87903367Y-29233262D01*
X87903367Y-29233262D02*
X88141462Y-29280881D01*
X88141462Y-29280881D02*
X88284319Y-29328500D01*
X88284319Y-29328500D02*
X88379557Y-29376119D01*
X88379557Y-29376119D02*
X88522415Y-29471357D01*
X88522415Y-29471357D02*
X88570034Y-29518976D01*
X41390216Y-46857302D02*
X41390216Y-45857302D01*
X41390216Y-45857302D02*
X41152121Y-45857302D01*
X41152121Y-45857302D02*
X41009264Y-45904921D01*
X41009264Y-45904921D02*
X40914026Y-46000159D01*
X40914026Y-46000159D02*
X40866407Y-46095397D01*
X40866407Y-46095397D02*
X40818788Y-46285873D01*
X40818788Y-46285873D02*
X40818788Y-46428730D01*
X40818788Y-46428730D02*
X40866407Y-46619206D01*
X40866407Y-46619206D02*
X40914026Y-46714444D01*
X40914026Y-46714444D02*
X41009264Y-46809683D01*
X41009264Y-46809683D02*
X41152121Y-46857302D01*
X41152121Y-46857302D02*
X41390216Y-46857302D01*
X40342597Y-46857302D02*
X40152121Y-46857302D01*
X40152121Y-46857302D02*
X40056883Y-46809683D01*
X40056883Y-46809683D02*
X40009264Y-46762063D01*
X40009264Y-46762063D02*
X39914026Y-46619206D01*
X39914026Y-46619206D02*
X39866407Y-46428730D01*
X39866407Y-46428730D02*
X39866407Y-46047778D01*
X39866407Y-46047778D02*
X39914026Y-45952540D01*
X39914026Y-45952540D02*
X39961645Y-45904921D01*
X39961645Y-45904921D02*
X40056883Y-45857302D01*
X40056883Y-45857302D02*
X40247359Y-45857302D01*
X40247359Y-45857302D02*
X40342597Y-45904921D01*
X40342597Y-45904921D02*
X40390216Y-45952540D01*
X40390216Y-45952540D02*
X40437835Y-46047778D01*
X40437835Y-46047778D02*
X40437835Y-46285873D01*
X40437835Y-46285873D02*
X40390216Y-46381111D01*
X40390216Y-46381111D02*
X40342597Y-46428730D01*
X40342597Y-46428730D02*
X40247359Y-46476349D01*
X40247359Y-46476349D02*
X40056883Y-46476349D01*
X40056883Y-46476349D02*
X39961645Y-46428730D01*
X39961645Y-46428730D02*
X39914026Y-46381111D01*
X39914026Y-46381111D02*
X39866407Y-46285873D01*
X87950986Y-26194370D02*
X87903367Y-26051513D01*
X87903367Y-26051513D02*
X87855748Y-26003894D01*
X87855748Y-26003894D02*
X87760510Y-25956275D01*
X87760510Y-25956275D02*
X87617653Y-25956275D01*
X87617653Y-25956275D02*
X87522415Y-26003894D01*
X87522415Y-26003894D02*
X87474796Y-26051513D01*
X87474796Y-26051513D02*
X87427176Y-26146751D01*
X87427176Y-26146751D02*
X87427176Y-26527703D01*
X87427176Y-26527703D02*
X88427176Y-26527703D01*
X88427176Y-26527703D02*
X88427176Y-26194370D01*
X88427176Y-26194370D02*
X88379557Y-26099132D01*
X88379557Y-26099132D02*
X88331938Y-26051513D01*
X88331938Y-26051513D02*
X88236700Y-26003894D01*
X88236700Y-26003894D02*
X88141462Y-26003894D01*
X88141462Y-26003894D02*
X88046224Y-26051513D01*
X88046224Y-26051513D02*
X87998605Y-26099132D01*
X87998605Y-26099132D02*
X87950986Y-26194370D01*
X87950986Y-26194370D02*
X87950986Y-26527703D01*
X87712891Y-25575322D02*
X87712891Y-25099132D01*
X87427176Y-25670560D02*
X88427176Y-25337227D01*
X88427176Y-25337227D02*
X87427176Y-25003894D01*
X88427176Y-24813417D02*
X88427176Y-24241989D01*
X87427176Y-24527703D02*
X88427176Y-24527703D01*
X87808129Y-23908655D02*
X87808129Y-23146751D01*
X87427176Y-23527703D02*
X88189081Y-23527703D01*
X41440216Y-49382302D02*
X41440216Y-48382302D01*
X41440216Y-48382302D02*
X41202121Y-48382302D01*
X41202121Y-48382302D02*
X41059264Y-48429921D01*
X41059264Y-48429921D02*
X40964026Y-48525159D01*
X40964026Y-48525159D02*
X40916407Y-48620397D01*
X40916407Y-48620397D02*
X40868788Y-48810873D01*
X40868788Y-48810873D02*
X40868788Y-48953730D01*
X40868788Y-48953730D02*
X40916407Y-49144206D01*
X40916407Y-49144206D02*
X40964026Y-49239444D01*
X40964026Y-49239444D02*
X41059264Y-49334683D01*
X41059264Y-49334683D02*
X41202121Y-49382302D01*
X41202121Y-49382302D02*
X41440216Y-49382302D01*
X40297359Y-48810873D02*
X40392597Y-48763254D01*
X40392597Y-48763254D02*
X40440216Y-48715635D01*
X40440216Y-48715635D02*
X40487835Y-48620397D01*
X40487835Y-48620397D02*
X40487835Y-48572778D01*
X40487835Y-48572778D02*
X40440216Y-48477540D01*
X40440216Y-48477540D02*
X40392597Y-48429921D01*
X40392597Y-48429921D02*
X40297359Y-48382302D01*
X40297359Y-48382302D02*
X40106883Y-48382302D01*
X40106883Y-48382302D02*
X40011645Y-48429921D01*
X40011645Y-48429921D02*
X39964026Y-48477540D01*
X39964026Y-48477540D02*
X39916407Y-48572778D01*
X39916407Y-48572778D02*
X39916407Y-48620397D01*
X39916407Y-48620397D02*
X39964026Y-48715635D01*
X39964026Y-48715635D02*
X40011645Y-48763254D01*
X40011645Y-48763254D02*
X40106883Y-48810873D01*
X40106883Y-48810873D02*
X40297359Y-48810873D01*
X40297359Y-48810873D02*
X40392597Y-48858492D01*
X40392597Y-48858492D02*
X40440216Y-48906111D01*
X40440216Y-48906111D02*
X40487835Y-49001349D01*
X40487835Y-49001349D02*
X40487835Y-49191825D01*
X40487835Y-49191825D02*
X40440216Y-49287063D01*
X40440216Y-49287063D02*
X40392597Y-49334683D01*
X40392597Y-49334683D02*
X40297359Y-49382302D01*
X40297359Y-49382302D02*
X40106883Y-49382302D01*
X40106883Y-49382302D02*
X40011645Y-49334683D01*
X40011645Y-49334683D02*
X39964026Y-49287063D01*
X39964026Y-49287063D02*
X39916407Y-49191825D01*
X39916407Y-49191825D02*
X39916407Y-49001349D01*
X39916407Y-49001349D02*
X39964026Y-48906111D01*
X39964026Y-48906111D02*
X40011645Y-48858492D01*
X40011645Y-48858492D02*
X40106883Y-48810873D01*
X84883676Y-35535452D02*
X85883676Y-35535452D01*
X85883676Y-35535452D02*
X85883676Y-35297357D01*
X85883676Y-35297357D02*
X85836057Y-35154500D01*
X85836057Y-35154500D02*
X85740819Y-35059262D01*
X85740819Y-35059262D02*
X85645581Y-35011643D01*
X85645581Y-35011643D02*
X85455105Y-34964024D01*
X85455105Y-34964024D02*
X85312248Y-34964024D01*
X85312248Y-34964024D02*
X85121772Y-35011643D01*
X85121772Y-35011643D02*
X85026534Y-35059262D01*
X85026534Y-35059262D02*
X84931296Y-35154500D01*
X84931296Y-35154500D02*
X84883676Y-35297357D01*
X84883676Y-35297357D02*
X84883676Y-35535452D01*
X85883676Y-34344976D02*
X85883676Y-34249738D01*
X85883676Y-34249738D02*
X85836057Y-34154500D01*
X85836057Y-34154500D02*
X85788438Y-34106881D01*
X85788438Y-34106881D02*
X85693200Y-34059262D01*
X85693200Y-34059262D02*
X85502724Y-34011643D01*
X85502724Y-34011643D02*
X85264629Y-34011643D01*
X85264629Y-34011643D02*
X85074153Y-34059262D01*
X85074153Y-34059262D02*
X84978915Y-34106881D01*
X84978915Y-34106881D02*
X84931296Y-34154500D01*
X84931296Y-34154500D02*
X84883676Y-34249738D01*
X84883676Y-34249738D02*
X84883676Y-34344976D01*
X84883676Y-34344976D02*
X84931296Y-34440214D01*
X84931296Y-34440214D02*
X84978915Y-34487833D01*
X84978915Y-34487833D02*
X85074153Y-34535452D01*
X85074153Y-34535452D02*
X85264629Y-34583071D01*
X85264629Y-34583071D02*
X85502724Y-34583071D01*
X85502724Y-34583071D02*
X85693200Y-34535452D01*
X85693200Y-34535452D02*
X85788438Y-34487833D01*
X85788438Y-34487833D02*
X85836057Y-34440214D01*
X85836057Y-34440214D02*
X85883676Y-34344976D01*
X61983676Y-35652452D02*
X62983676Y-35652452D01*
X62983676Y-35652452D02*
X62983676Y-35414357D01*
X62983676Y-35414357D02*
X62936057Y-35271500D01*
X62936057Y-35271500D02*
X62840819Y-35176262D01*
X62840819Y-35176262D02*
X62745581Y-35128643D01*
X62745581Y-35128643D02*
X62555105Y-35081024D01*
X62555105Y-35081024D02*
X62412248Y-35081024D01*
X62412248Y-35081024D02*
X62221772Y-35128643D01*
X62221772Y-35128643D02*
X62126534Y-35176262D01*
X62126534Y-35176262D02*
X62031296Y-35271500D01*
X62031296Y-35271500D02*
X61983676Y-35414357D01*
X61983676Y-35414357D02*
X61983676Y-35652452D01*
X62555105Y-34509595D02*
X62602724Y-34604833D01*
X62602724Y-34604833D02*
X62650343Y-34652452D01*
X62650343Y-34652452D02*
X62745581Y-34700071D01*
X62745581Y-34700071D02*
X62793200Y-34700071D01*
X62793200Y-34700071D02*
X62888438Y-34652452D01*
X62888438Y-34652452D02*
X62936057Y-34604833D01*
X62936057Y-34604833D02*
X62983676Y-34509595D01*
X62983676Y-34509595D02*
X62983676Y-34319119D01*
X62983676Y-34319119D02*
X62936057Y-34223881D01*
X62936057Y-34223881D02*
X62888438Y-34176262D01*
X62888438Y-34176262D02*
X62793200Y-34128643D01*
X62793200Y-34128643D02*
X62745581Y-34128643D01*
X62745581Y-34128643D02*
X62650343Y-34176262D01*
X62650343Y-34176262D02*
X62602724Y-34223881D01*
X62602724Y-34223881D02*
X62555105Y-34319119D01*
X62555105Y-34319119D02*
X62555105Y-34509595D01*
X62555105Y-34509595D02*
X62507486Y-34604833D01*
X62507486Y-34604833D02*
X62459867Y-34652452D01*
X62459867Y-34652452D02*
X62364629Y-34700071D01*
X62364629Y-34700071D02*
X62174153Y-34700071D01*
X62174153Y-34700071D02*
X62078915Y-34652452D01*
X62078915Y-34652452D02*
X62031296Y-34604833D01*
X62031296Y-34604833D02*
X61983676Y-34509595D01*
X61983676Y-34509595D02*
X61983676Y-34319119D01*
X61983676Y-34319119D02*
X62031296Y-34223881D01*
X62031296Y-34223881D02*
X62078915Y-34176262D01*
X62078915Y-34176262D02*
X62174153Y-34128643D01*
X62174153Y-34128643D02*
X62364629Y-34128643D01*
X62364629Y-34128643D02*
X62459867Y-34176262D01*
X62459867Y-34176262D02*
X62507486Y-34223881D01*
X62507486Y-34223881D02*
X62555105Y-34319119D01*
X90437486Y-35286101D02*
X90389867Y-35143244D01*
X90389867Y-35143244D02*
X90342248Y-35095625D01*
X90342248Y-35095625D02*
X90247010Y-35048006D01*
X90247010Y-35048006D02*
X90104153Y-35048006D01*
X90104153Y-35048006D02*
X90008915Y-35095625D01*
X90008915Y-35095625D02*
X89961296Y-35143244D01*
X89961296Y-35143244D02*
X89913676Y-35238482D01*
X89913676Y-35238482D02*
X89913676Y-35619434D01*
X89913676Y-35619434D02*
X90913676Y-35619434D01*
X90913676Y-35619434D02*
X90913676Y-35286101D01*
X90913676Y-35286101D02*
X90866057Y-35190863D01*
X90866057Y-35190863D02*
X90818438Y-35143244D01*
X90818438Y-35143244D02*
X90723200Y-35095625D01*
X90723200Y-35095625D02*
X90627962Y-35095625D01*
X90627962Y-35095625D02*
X90532724Y-35143244D01*
X90532724Y-35143244D02*
X90485105Y-35190863D01*
X90485105Y-35190863D02*
X90437486Y-35286101D01*
X90437486Y-35286101D02*
X90437486Y-35619434D01*
X90294629Y-34619434D02*
X90294629Y-33857530D01*
X90490986Y-24618101D02*
X90443367Y-24475244D01*
X90443367Y-24475244D02*
X90395748Y-24427625D01*
X90395748Y-24427625D02*
X90300510Y-24380006D01*
X90300510Y-24380006D02*
X90157653Y-24380006D01*
X90157653Y-24380006D02*
X90062415Y-24427625D01*
X90062415Y-24427625D02*
X90014796Y-24475244D01*
X90014796Y-24475244D02*
X89967176Y-24570482D01*
X89967176Y-24570482D02*
X89967176Y-24951434D01*
X89967176Y-24951434D02*
X90967176Y-24951434D01*
X90967176Y-24951434D02*
X90967176Y-24618101D01*
X90967176Y-24618101D02*
X90919557Y-24522863D01*
X90919557Y-24522863D02*
X90871938Y-24475244D01*
X90871938Y-24475244D02*
X90776700Y-24427625D01*
X90776700Y-24427625D02*
X90681462Y-24427625D01*
X90681462Y-24427625D02*
X90586224Y-24475244D01*
X90586224Y-24475244D02*
X90538605Y-24522863D01*
X90538605Y-24522863D02*
X90490986Y-24618101D01*
X90490986Y-24618101D02*
X90490986Y-24951434D01*
X90348129Y-23951434D02*
X90348129Y-23189530D01*
X89967176Y-23570482D02*
X90729081Y-23570482D01*
D12*
X122672686Y-99352190D02*
X123872686Y-99352190D01*
X123872686Y-99352190D02*
X123872686Y-99066476D01*
X123872686Y-99066476D02*
X123815543Y-98895047D01*
X123815543Y-98895047D02*
X123701257Y-98780762D01*
X123701257Y-98780762D02*
X123586971Y-98723619D01*
X123586971Y-98723619D02*
X123358400Y-98666476D01*
X123358400Y-98666476D02*
X123186971Y-98666476D01*
X123186971Y-98666476D02*
X122958400Y-98723619D01*
X122958400Y-98723619D02*
X122844114Y-98780762D01*
X122844114Y-98780762D02*
X122729829Y-98895047D01*
X122729829Y-98895047D02*
X122672686Y-99066476D01*
X122672686Y-99066476D02*
X122672686Y-99352190D01*
X122729829Y-97695047D02*
X122672686Y-97809333D01*
X122672686Y-97809333D02*
X122672686Y-98037905D01*
X122672686Y-98037905D02*
X122729829Y-98152190D01*
X122729829Y-98152190D02*
X122844114Y-98209333D01*
X122844114Y-98209333D02*
X123301257Y-98209333D01*
X123301257Y-98209333D02*
X123415543Y-98152190D01*
X123415543Y-98152190D02*
X123472686Y-98037905D01*
X123472686Y-98037905D02*
X123472686Y-97809333D01*
X123472686Y-97809333D02*
X123415543Y-97695047D01*
X123415543Y-97695047D02*
X123301257Y-97637905D01*
X123301257Y-97637905D02*
X123186971Y-97637905D01*
X123186971Y-97637905D02*
X123072686Y-98209333D01*
X122729829Y-97180762D02*
X122672686Y-97066476D01*
X122672686Y-97066476D02*
X122672686Y-96837905D01*
X122672686Y-96837905D02*
X122729829Y-96723619D01*
X122729829Y-96723619D02*
X122844114Y-96666476D01*
X122844114Y-96666476D02*
X122901257Y-96666476D01*
X122901257Y-96666476D02*
X123015543Y-96723619D01*
X123015543Y-96723619D02*
X123072686Y-96837905D01*
X123072686Y-96837905D02*
X123072686Y-97009334D01*
X123072686Y-97009334D02*
X123129829Y-97123619D01*
X123129829Y-97123619D02*
X123244114Y-97180762D01*
X123244114Y-97180762D02*
X123301257Y-97180762D01*
X123301257Y-97180762D02*
X123415543Y-97123619D01*
X123415543Y-97123619D02*
X123472686Y-97009334D01*
X123472686Y-97009334D02*
X123472686Y-96837905D01*
X123472686Y-96837905D02*
X123415543Y-96723619D01*
X122672686Y-96152190D02*
X123472686Y-96152190D01*
X123872686Y-96152190D02*
X123815543Y-96209333D01*
X123815543Y-96209333D02*
X123758400Y-96152190D01*
X123758400Y-96152190D02*
X123815543Y-96095047D01*
X123815543Y-96095047D02*
X123872686Y-96152190D01*
X123872686Y-96152190D02*
X123758400Y-96152190D01*
X123472686Y-95066476D02*
X122501257Y-95066476D01*
X122501257Y-95066476D02*
X122386971Y-95123618D01*
X122386971Y-95123618D02*
X122329829Y-95180761D01*
X122329829Y-95180761D02*
X122272686Y-95295047D01*
X122272686Y-95295047D02*
X122272686Y-95466476D01*
X122272686Y-95466476D02*
X122329829Y-95580761D01*
X122729829Y-95066476D02*
X122672686Y-95180761D01*
X122672686Y-95180761D02*
X122672686Y-95409333D01*
X122672686Y-95409333D02*
X122729829Y-95523618D01*
X122729829Y-95523618D02*
X122786971Y-95580761D01*
X122786971Y-95580761D02*
X122901257Y-95637904D01*
X122901257Y-95637904D02*
X123244114Y-95637904D01*
X123244114Y-95637904D02*
X123358400Y-95580761D01*
X123358400Y-95580761D02*
X123415543Y-95523618D01*
X123415543Y-95523618D02*
X123472686Y-95409333D01*
X123472686Y-95409333D02*
X123472686Y-95180761D01*
X123472686Y-95180761D02*
X123415543Y-95066476D01*
X123472686Y-94495047D02*
X122672686Y-94495047D01*
X123358400Y-94495047D02*
X123415543Y-94437904D01*
X123415543Y-94437904D02*
X123472686Y-94323619D01*
X123472686Y-94323619D02*
X123472686Y-94152190D01*
X123472686Y-94152190D02*
X123415543Y-94037904D01*
X123415543Y-94037904D02*
X123301257Y-93980762D01*
X123301257Y-93980762D02*
X122672686Y-93980762D01*
X122729829Y-92952190D02*
X122672686Y-93066476D01*
X122672686Y-93066476D02*
X122672686Y-93295048D01*
X122672686Y-93295048D02*
X122729829Y-93409333D01*
X122729829Y-93409333D02*
X122844114Y-93466476D01*
X122844114Y-93466476D02*
X123301257Y-93466476D01*
X123301257Y-93466476D02*
X123415543Y-93409333D01*
X123415543Y-93409333D02*
X123472686Y-93295048D01*
X123472686Y-93295048D02*
X123472686Y-93066476D01*
X123472686Y-93066476D02*
X123415543Y-92952190D01*
X123415543Y-92952190D02*
X123301257Y-92895048D01*
X123301257Y-92895048D02*
X123186971Y-92895048D01*
X123186971Y-92895048D02*
X123072686Y-93466476D01*
X122672686Y-91866477D02*
X123872686Y-91866477D01*
X122729829Y-91866477D02*
X122672686Y-91980762D01*
X122672686Y-91980762D02*
X122672686Y-92209334D01*
X122672686Y-92209334D02*
X122729829Y-92323619D01*
X122729829Y-92323619D02*
X122786971Y-92380762D01*
X122786971Y-92380762D02*
X122901257Y-92437905D01*
X122901257Y-92437905D02*
X123244114Y-92437905D01*
X123244114Y-92437905D02*
X123358400Y-92380762D01*
X123358400Y-92380762D02*
X123415543Y-92323619D01*
X123415543Y-92323619D02*
X123472686Y-92209334D01*
X123472686Y-92209334D02*
X123472686Y-91980762D01*
X123472686Y-91980762D02*
X123415543Y-91866477D01*
X122672686Y-90380762D02*
X123872686Y-90380762D01*
X123415543Y-90380762D02*
X123472686Y-90266477D01*
X123472686Y-90266477D02*
X123472686Y-90037905D01*
X123472686Y-90037905D02*
X123415543Y-89923619D01*
X123415543Y-89923619D02*
X123358400Y-89866477D01*
X123358400Y-89866477D02*
X123244114Y-89809334D01*
X123244114Y-89809334D02*
X122901257Y-89809334D01*
X122901257Y-89809334D02*
X122786971Y-89866477D01*
X122786971Y-89866477D02*
X122729829Y-89923619D01*
X122729829Y-89923619D02*
X122672686Y-90037905D01*
X122672686Y-90037905D02*
X122672686Y-90266477D01*
X122672686Y-90266477D02*
X122729829Y-90380762D01*
X123472686Y-89409334D02*
X122672686Y-89123620D01*
X123472686Y-88837905D02*
X122672686Y-89123620D01*
X122672686Y-89123620D02*
X122386971Y-89237905D01*
X122386971Y-89237905D02*
X122329829Y-89295048D01*
X122329829Y-89295048D02*
X122272686Y-89409334D01*
X122786971Y-88380762D02*
X122729829Y-88323619D01*
X122729829Y-88323619D02*
X122672686Y-88380762D01*
X122672686Y-88380762D02*
X122729829Y-88437905D01*
X122729829Y-88437905D02*
X122786971Y-88380762D01*
X122786971Y-88380762D02*
X122672686Y-88380762D01*
X123415543Y-88380762D02*
X123358400Y-88323619D01*
X123358400Y-88323619D02*
X123301257Y-88380762D01*
X123301257Y-88380762D02*
X123358400Y-88437905D01*
X123358400Y-88437905D02*
X123415543Y-88380762D01*
X123415543Y-88380762D02*
X123301257Y-88380762D01*
X123872686Y-86552190D02*
X123015543Y-86552190D01*
X123015543Y-86552190D02*
X122844114Y-86609333D01*
X122844114Y-86609333D02*
X122729829Y-86723619D01*
X122729829Y-86723619D02*
X122672686Y-86895047D01*
X122672686Y-86895047D02*
X122672686Y-87009333D01*
X122672686Y-85466476D02*
X123301257Y-85466476D01*
X123301257Y-85466476D02*
X123415543Y-85523618D01*
X123415543Y-85523618D02*
X123472686Y-85637904D01*
X123472686Y-85637904D02*
X123472686Y-85866476D01*
X123472686Y-85866476D02*
X123415543Y-85980761D01*
X122729829Y-85466476D02*
X122672686Y-85580761D01*
X122672686Y-85580761D02*
X122672686Y-85866476D01*
X122672686Y-85866476D02*
X122729829Y-85980761D01*
X122729829Y-85980761D02*
X122844114Y-86037904D01*
X122844114Y-86037904D02*
X122958400Y-86037904D01*
X122958400Y-86037904D02*
X123072686Y-85980761D01*
X123072686Y-85980761D02*
X123129829Y-85866476D01*
X123129829Y-85866476D02*
X123129829Y-85580761D01*
X123129829Y-85580761D02*
X123186971Y-85466476D01*
X122672686Y-84895047D02*
X123472686Y-84895047D01*
X123358400Y-84895047D02*
X123415543Y-84837904D01*
X123415543Y-84837904D02*
X123472686Y-84723619D01*
X123472686Y-84723619D02*
X123472686Y-84552190D01*
X123472686Y-84552190D02*
X123415543Y-84437904D01*
X123415543Y-84437904D02*
X123301257Y-84380762D01*
X123301257Y-84380762D02*
X122672686Y-84380762D01*
X123301257Y-84380762D02*
X123415543Y-84323619D01*
X123415543Y-84323619D02*
X123472686Y-84209333D01*
X123472686Y-84209333D02*
X123472686Y-84037904D01*
X123472686Y-84037904D02*
X123415543Y-83923619D01*
X123415543Y-83923619D02*
X123301257Y-83866476D01*
X123301257Y-83866476D02*
X122672686Y-83866476D01*
X122729829Y-82837904D02*
X122672686Y-82952190D01*
X122672686Y-82952190D02*
X122672686Y-83180762D01*
X122672686Y-83180762D02*
X122729829Y-83295047D01*
X122729829Y-83295047D02*
X122844114Y-83352190D01*
X122844114Y-83352190D02*
X123301257Y-83352190D01*
X123301257Y-83352190D02*
X123415543Y-83295047D01*
X123415543Y-83295047D02*
X123472686Y-83180762D01*
X123472686Y-83180762D02*
X123472686Y-82952190D01*
X123472686Y-82952190D02*
X123415543Y-82837904D01*
X123415543Y-82837904D02*
X123301257Y-82780762D01*
X123301257Y-82780762D02*
X123186971Y-82780762D01*
X123186971Y-82780762D02*
X123072686Y-83352190D01*
X122729829Y-82323619D02*
X122672686Y-82209333D01*
X122672686Y-82209333D02*
X122672686Y-81980762D01*
X122672686Y-81980762D02*
X122729829Y-81866476D01*
X122729829Y-81866476D02*
X122844114Y-81809333D01*
X122844114Y-81809333D02*
X122901257Y-81809333D01*
X122901257Y-81809333D02*
X123015543Y-81866476D01*
X123015543Y-81866476D02*
X123072686Y-81980762D01*
X123072686Y-81980762D02*
X123072686Y-82152191D01*
X123072686Y-82152191D02*
X123129829Y-82266476D01*
X123129829Y-82266476D02*
X123244114Y-82323619D01*
X123244114Y-82323619D02*
X123301257Y-82323619D01*
X123301257Y-82323619D02*
X123415543Y-82266476D01*
X123415543Y-82266476D02*
X123472686Y-82152191D01*
X123472686Y-82152191D02*
X123472686Y-81980762D01*
X123472686Y-81980762D02*
X123415543Y-81866476D01*
X123815543Y-79752190D02*
X123872686Y-79866476D01*
X123872686Y-79866476D02*
X123872686Y-80037904D01*
X123872686Y-80037904D02*
X123815543Y-80209333D01*
X123815543Y-80209333D02*
X123701257Y-80323618D01*
X123701257Y-80323618D02*
X123586971Y-80380761D01*
X123586971Y-80380761D02*
X123358400Y-80437904D01*
X123358400Y-80437904D02*
X123186971Y-80437904D01*
X123186971Y-80437904D02*
X122958400Y-80380761D01*
X122958400Y-80380761D02*
X122844114Y-80323618D01*
X122844114Y-80323618D02*
X122729829Y-80209333D01*
X122729829Y-80209333D02*
X122672686Y-80037904D01*
X122672686Y-80037904D02*
X122672686Y-79923618D01*
X122672686Y-79923618D02*
X122729829Y-79752190D01*
X122729829Y-79752190D02*
X122786971Y-79695047D01*
X122786971Y-79695047D02*
X123186971Y-79695047D01*
X123186971Y-79695047D02*
X123186971Y-79923618D01*
X123472686Y-79295047D02*
X123472686Y-78666476D01*
X123472686Y-78666476D02*
X122672686Y-79295047D01*
X122672686Y-79295047D02*
X122672686Y-78666476D01*
X122672686Y-78037904D02*
X122729829Y-78152189D01*
X122729829Y-78152189D02*
X122786971Y-78209332D01*
X122786971Y-78209332D02*
X122901257Y-78266475D01*
X122901257Y-78266475D02*
X123244114Y-78266475D01*
X123244114Y-78266475D02*
X123358400Y-78209332D01*
X123358400Y-78209332D02*
X123415543Y-78152189D01*
X123415543Y-78152189D02*
X123472686Y-78037904D01*
X123472686Y-78037904D02*
X123472686Y-77866475D01*
X123472686Y-77866475D02*
X123415543Y-77752189D01*
X123415543Y-77752189D02*
X123358400Y-77695047D01*
X123358400Y-77695047D02*
X123244114Y-77637904D01*
X123244114Y-77637904D02*
X122901257Y-77637904D01*
X122901257Y-77637904D02*
X122786971Y-77695047D01*
X122786971Y-77695047D02*
X122729829Y-77752189D01*
X122729829Y-77752189D02*
X122672686Y-77866475D01*
X122672686Y-77866475D02*
X122672686Y-78037904D01*
X123472686Y-77237904D02*
X122672686Y-77009333D01*
X122672686Y-77009333D02*
X123244114Y-76780761D01*
X123244114Y-76780761D02*
X122672686Y-76552190D01*
X122672686Y-76552190D02*
X123472686Y-76323618D01*
X122729829Y-75923618D02*
X122672686Y-75809332D01*
X122672686Y-75809332D02*
X122672686Y-75580761D01*
X122672686Y-75580761D02*
X122729829Y-75466475D01*
X122729829Y-75466475D02*
X122844114Y-75409332D01*
X122844114Y-75409332D02*
X122901257Y-75409332D01*
X122901257Y-75409332D02*
X123015543Y-75466475D01*
X123015543Y-75466475D02*
X123072686Y-75580761D01*
X123072686Y-75580761D02*
X123072686Y-75752190D01*
X123072686Y-75752190D02*
X123129829Y-75866475D01*
X123129829Y-75866475D02*
X123244114Y-75923618D01*
X123244114Y-75923618D02*
X123301257Y-75923618D01*
X123301257Y-75923618D02*
X123415543Y-75866475D01*
X123415543Y-75866475D02*
X123472686Y-75752190D01*
X123472686Y-75752190D02*
X123472686Y-75580761D01*
X123472686Y-75580761D02*
X123415543Y-75466475D01*
X122672686Y-74895046D02*
X123872686Y-74895046D01*
X123129829Y-74780761D02*
X122672686Y-74437903D01*
X123472686Y-74437903D02*
X123015543Y-74895046D01*
X122672686Y-73923617D02*
X123472686Y-73923617D01*
X123872686Y-73923617D02*
X123815543Y-73980760D01*
X123815543Y-73980760D02*
X123758400Y-73923617D01*
X123758400Y-73923617D02*
X123815543Y-73866474D01*
X123815543Y-73866474D02*
X123872686Y-73923617D01*
X123872686Y-73923617D02*
X123758400Y-73923617D01*
X121540753Y-98837905D02*
X120569324Y-98837905D01*
X120569324Y-98837905D02*
X120455038Y-98895047D01*
X120455038Y-98895047D02*
X120397896Y-98952190D01*
X120397896Y-98952190D02*
X120340753Y-99066476D01*
X120340753Y-99066476D02*
X120340753Y-99237905D01*
X120340753Y-99237905D02*
X120397896Y-99352190D01*
X120797896Y-98837905D02*
X120740753Y-98952190D01*
X120740753Y-98952190D02*
X120740753Y-99180762D01*
X120740753Y-99180762D02*
X120797896Y-99295047D01*
X120797896Y-99295047D02*
X120855038Y-99352190D01*
X120855038Y-99352190D02*
X120969324Y-99409333D01*
X120969324Y-99409333D02*
X121312181Y-99409333D01*
X121312181Y-99409333D02*
X121426467Y-99352190D01*
X121426467Y-99352190D02*
X121483610Y-99295047D01*
X121483610Y-99295047D02*
X121540753Y-99180762D01*
X121540753Y-99180762D02*
X121540753Y-98952190D01*
X121540753Y-98952190D02*
X121483610Y-98837905D01*
X120740753Y-98266476D02*
X121540753Y-98266476D01*
X121940753Y-98266476D02*
X121883610Y-98323619D01*
X121883610Y-98323619D02*
X121826467Y-98266476D01*
X121826467Y-98266476D02*
X121883610Y-98209333D01*
X121883610Y-98209333D02*
X121940753Y-98266476D01*
X121940753Y-98266476D02*
X121826467Y-98266476D01*
X121540753Y-97866476D02*
X121540753Y-97409333D01*
X121940753Y-97695047D02*
X120912181Y-97695047D01*
X120912181Y-97695047D02*
X120797896Y-97637904D01*
X120797896Y-97637904D02*
X120740753Y-97523619D01*
X120740753Y-97523619D02*
X120740753Y-97409333D01*
X120740753Y-97009333D02*
X121940753Y-97009333D01*
X120740753Y-96495048D02*
X121369324Y-96495048D01*
X121369324Y-96495048D02*
X121483610Y-96552190D01*
X121483610Y-96552190D02*
X121540753Y-96666476D01*
X121540753Y-96666476D02*
X121540753Y-96837905D01*
X121540753Y-96837905D02*
X121483610Y-96952190D01*
X121483610Y-96952190D02*
X121426467Y-97009333D01*
X121540753Y-95409334D02*
X120740753Y-95409334D01*
X121540753Y-95923619D02*
X120912181Y-95923619D01*
X120912181Y-95923619D02*
X120797896Y-95866476D01*
X120797896Y-95866476D02*
X120740753Y-95752191D01*
X120740753Y-95752191D02*
X120740753Y-95580762D01*
X120740753Y-95580762D02*
X120797896Y-95466476D01*
X120797896Y-95466476D02*
X120855038Y-95409334D01*
X120740753Y-94837905D02*
X121940753Y-94837905D01*
X121483610Y-94837905D02*
X121540753Y-94723620D01*
X121540753Y-94723620D02*
X121540753Y-94495048D01*
X121540753Y-94495048D02*
X121483610Y-94380762D01*
X121483610Y-94380762D02*
X121426467Y-94323620D01*
X121426467Y-94323620D02*
X121312181Y-94266477D01*
X121312181Y-94266477D02*
X120969324Y-94266477D01*
X120969324Y-94266477D02*
X120855038Y-94323620D01*
X120855038Y-94323620D02*
X120797896Y-94380762D01*
X120797896Y-94380762D02*
X120740753Y-94495048D01*
X120740753Y-94495048D02*
X120740753Y-94723620D01*
X120740753Y-94723620D02*
X120797896Y-94837905D01*
X120855038Y-93752191D02*
X120797896Y-93695048D01*
X120797896Y-93695048D02*
X120740753Y-93752191D01*
X120740753Y-93752191D02*
X120797896Y-93809334D01*
X120797896Y-93809334D02*
X120855038Y-93752191D01*
X120855038Y-93752191D02*
X120740753Y-93752191D01*
X120797896Y-92666477D02*
X120740753Y-92780762D01*
X120740753Y-92780762D02*
X120740753Y-93009334D01*
X120740753Y-93009334D02*
X120797896Y-93123619D01*
X120797896Y-93123619D02*
X120855038Y-93180762D01*
X120855038Y-93180762D02*
X120969324Y-93237905D01*
X120969324Y-93237905D02*
X121312181Y-93237905D01*
X121312181Y-93237905D02*
X121426467Y-93180762D01*
X121426467Y-93180762D02*
X121483610Y-93123619D01*
X121483610Y-93123619D02*
X121540753Y-93009334D01*
X121540753Y-93009334D02*
X121540753Y-92780762D01*
X121540753Y-92780762D02*
X121483610Y-92666477D01*
X120740753Y-91980763D02*
X120797896Y-92095048D01*
X120797896Y-92095048D02*
X120855038Y-92152191D01*
X120855038Y-92152191D02*
X120969324Y-92209334D01*
X120969324Y-92209334D02*
X121312181Y-92209334D01*
X121312181Y-92209334D02*
X121426467Y-92152191D01*
X121426467Y-92152191D02*
X121483610Y-92095048D01*
X121483610Y-92095048D02*
X121540753Y-91980763D01*
X121540753Y-91980763D02*
X121540753Y-91809334D01*
X121540753Y-91809334D02*
X121483610Y-91695048D01*
X121483610Y-91695048D02*
X121426467Y-91637906D01*
X121426467Y-91637906D02*
X121312181Y-91580763D01*
X121312181Y-91580763D02*
X120969324Y-91580763D01*
X120969324Y-91580763D02*
X120855038Y-91637906D01*
X120855038Y-91637906D02*
X120797896Y-91695048D01*
X120797896Y-91695048D02*
X120740753Y-91809334D01*
X120740753Y-91809334D02*
X120740753Y-91980763D01*
X120740753Y-91066477D02*
X121540753Y-91066477D01*
X121426467Y-91066477D02*
X121483610Y-91009334D01*
X121483610Y-91009334D02*
X121540753Y-90895049D01*
X121540753Y-90895049D02*
X121540753Y-90723620D01*
X121540753Y-90723620D02*
X121483610Y-90609334D01*
X121483610Y-90609334D02*
X121369324Y-90552192D01*
X121369324Y-90552192D02*
X120740753Y-90552192D01*
X121369324Y-90552192D02*
X121483610Y-90495049D01*
X121483610Y-90495049D02*
X121540753Y-90380763D01*
X121540753Y-90380763D02*
X121540753Y-90209334D01*
X121540753Y-90209334D02*
X121483610Y-90095049D01*
X121483610Y-90095049D02*
X121369324Y-90037906D01*
X121369324Y-90037906D02*
X120740753Y-90037906D01*
X121997896Y-88609334D02*
X120455038Y-89637906D01*
X121540753Y-87695049D02*
X120569324Y-87695049D01*
X120569324Y-87695049D02*
X120455038Y-87752191D01*
X120455038Y-87752191D02*
X120397896Y-87809334D01*
X120397896Y-87809334D02*
X120340753Y-87923620D01*
X120340753Y-87923620D02*
X120340753Y-88095049D01*
X120340753Y-88095049D02*
X120397896Y-88209334D01*
X120797896Y-87695049D02*
X120740753Y-87809334D01*
X120740753Y-87809334D02*
X120740753Y-88037906D01*
X120740753Y-88037906D02*
X120797896Y-88152191D01*
X120797896Y-88152191D02*
X120855038Y-88209334D01*
X120855038Y-88209334D02*
X120969324Y-88266477D01*
X120969324Y-88266477D02*
X121312181Y-88266477D01*
X121312181Y-88266477D02*
X121426467Y-88209334D01*
X121426467Y-88209334D02*
X121483610Y-88152191D01*
X121483610Y-88152191D02*
X121540753Y-88037906D01*
X121540753Y-88037906D02*
X121540753Y-87809334D01*
X121540753Y-87809334D02*
X121483610Y-87695049D01*
X121540753Y-87237906D02*
X121540753Y-86609335D01*
X121540753Y-86609335D02*
X120740753Y-87237906D01*
X120740753Y-87237906D02*
X120740753Y-86609335D01*
X120740753Y-85980763D02*
X120797896Y-86095048D01*
X120797896Y-86095048D02*
X120855038Y-86152191D01*
X120855038Y-86152191D02*
X120969324Y-86209334D01*
X120969324Y-86209334D02*
X121312181Y-86209334D01*
X121312181Y-86209334D02*
X121426467Y-86152191D01*
X121426467Y-86152191D02*
X121483610Y-86095048D01*
X121483610Y-86095048D02*
X121540753Y-85980763D01*
X121540753Y-85980763D02*
X121540753Y-85809334D01*
X121540753Y-85809334D02*
X121483610Y-85695048D01*
X121483610Y-85695048D02*
X121426467Y-85637906D01*
X121426467Y-85637906D02*
X121312181Y-85580763D01*
X121312181Y-85580763D02*
X120969324Y-85580763D01*
X120969324Y-85580763D02*
X120855038Y-85637906D01*
X120855038Y-85637906D02*
X120797896Y-85695048D01*
X120797896Y-85695048D02*
X120740753Y-85809334D01*
X120740753Y-85809334D02*
X120740753Y-85980763D01*
X121540753Y-85180763D02*
X120740753Y-84952192D01*
X120740753Y-84952192D02*
X121312181Y-84723620D01*
X121312181Y-84723620D02*
X120740753Y-84495049D01*
X120740753Y-84495049D02*
X121540753Y-84266477D01*
X120797896Y-83866477D02*
X120740753Y-83752191D01*
X120740753Y-83752191D02*
X120740753Y-83523620D01*
X120740753Y-83523620D02*
X120797896Y-83409334D01*
X120797896Y-83409334D02*
X120912181Y-83352191D01*
X120912181Y-83352191D02*
X120969324Y-83352191D01*
X120969324Y-83352191D02*
X121083610Y-83409334D01*
X121083610Y-83409334D02*
X121140753Y-83523620D01*
X121140753Y-83523620D02*
X121140753Y-83695049D01*
X121140753Y-83695049D02*
X121197896Y-83809334D01*
X121197896Y-83809334D02*
X121312181Y-83866477D01*
X121312181Y-83866477D02*
X121369324Y-83866477D01*
X121369324Y-83866477D02*
X121483610Y-83809334D01*
X121483610Y-83809334D02*
X121540753Y-83695049D01*
X121540753Y-83695049D02*
X121540753Y-83523620D01*
X121540753Y-83523620D02*
X121483610Y-83409334D01*
X120740753Y-82837905D02*
X121940753Y-82837905D01*
X121197896Y-82723620D02*
X120740753Y-82380762D01*
X121540753Y-82380762D02*
X121083610Y-82837905D01*
X120740753Y-81866476D02*
X121540753Y-81866476D01*
X121940753Y-81866476D02*
X121883610Y-81923619D01*
X121883610Y-81923619D02*
X121826467Y-81866476D01*
X121826467Y-81866476D02*
X121883610Y-81809333D01*
X121883610Y-81809333D02*
X121940753Y-81866476D01*
X121940753Y-81866476D02*
X121826467Y-81866476D01*
X121997896Y-80437904D02*
X120455038Y-81466476D01*
X120797896Y-80095047D02*
X120740753Y-79980761D01*
X120740753Y-79980761D02*
X120740753Y-79752190D01*
X120740753Y-79752190D02*
X120797896Y-79637904D01*
X120797896Y-79637904D02*
X120912181Y-79580761D01*
X120912181Y-79580761D02*
X120969324Y-79580761D01*
X120969324Y-79580761D02*
X121083610Y-79637904D01*
X121083610Y-79637904D02*
X121140753Y-79752190D01*
X121140753Y-79752190D02*
X121140753Y-79923619D01*
X121140753Y-79923619D02*
X121197896Y-80037904D01*
X121197896Y-80037904D02*
X121312181Y-80095047D01*
X121312181Y-80095047D02*
X121369324Y-80095047D01*
X121369324Y-80095047D02*
X121483610Y-80037904D01*
X121483610Y-80037904D02*
X121540753Y-79923619D01*
X121540753Y-79923619D02*
X121540753Y-79752190D01*
X121540753Y-79752190D02*
X121483610Y-79637904D01*
X120740753Y-79066475D02*
X121940753Y-79066475D01*
X120740753Y-78552190D02*
X121369324Y-78552190D01*
X121369324Y-78552190D02*
X121483610Y-78609332D01*
X121483610Y-78609332D02*
X121540753Y-78723618D01*
X121540753Y-78723618D02*
X121540753Y-78895047D01*
X121540753Y-78895047D02*
X121483610Y-79009332D01*
X121483610Y-79009332D02*
X121426467Y-79066475D01*
X120740753Y-77809333D02*
X120797896Y-77923618D01*
X120797896Y-77923618D02*
X120855038Y-77980761D01*
X120855038Y-77980761D02*
X120969324Y-78037904D01*
X120969324Y-78037904D02*
X121312181Y-78037904D01*
X121312181Y-78037904D02*
X121426467Y-77980761D01*
X121426467Y-77980761D02*
X121483610Y-77923618D01*
X121483610Y-77923618D02*
X121540753Y-77809333D01*
X121540753Y-77809333D02*
X121540753Y-77637904D01*
X121540753Y-77637904D02*
X121483610Y-77523618D01*
X121483610Y-77523618D02*
X121426467Y-77466476D01*
X121426467Y-77466476D02*
X121312181Y-77409333D01*
X121312181Y-77409333D02*
X120969324Y-77409333D01*
X120969324Y-77409333D02*
X120855038Y-77466476D01*
X120855038Y-77466476D02*
X120797896Y-77523618D01*
X120797896Y-77523618D02*
X120740753Y-77637904D01*
X120740753Y-77637904D02*
X120740753Y-77809333D01*
X120740753Y-76895047D02*
X121540753Y-76895047D01*
X121312181Y-76895047D02*
X121426467Y-76837904D01*
X121426467Y-76837904D02*
X121483610Y-76780762D01*
X121483610Y-76780762D02*
X121540753Y-76666476D01*
X121540753Y-76666476D02*
X121540753Y-76552190D01*
X120740753Y-76152190D02*
X121940753Y-76152190D01*
X121197896Y-76037905D02*
X120740753Y-75695047D01*
X121540753Y-75695047D02*
X121083610Y-76152190D01*
X121540753Y-75295047D02*
X120740753Y-75009333D01*
X121540753Y-74723618D02*
X120740753Y-75009333D01*
X120740753Y-75009333D02*
X120455038Y-75123618D01*
X120455038Y-75123618D02*
X120397896Y-75180761D01*
X120397896Y-75180761D02*
X120340753Y-75295047D01*
X121826467Y-74323618D02*
X121883610Y-74266475D01*
X121883610Y-74266475D02*
X121940753Y-74152190D01*
X121940753Y-74152190D02*
X121940753Y-73866475D01*
X121940753Y-73866475D02*
X121883610Y-73752190D01*
X121883610Y-73752190D02*
X121826467Y-73695047D01*
X121826467Y-73695047D02*
X121712181Y-73637904D01*
X121712181Y-73637904D02*
X121597896Y-73637904D01*
X121597896Y-73637904D02*
X121426467Y-73695047D01*
X121426467Y-73695047D02*
X120740753Y-74380761D01*
X120740753Y-74380761D02*
X120740753Y-73637904D01*
X120740753Y-72495047D02*
X120740753Y-73180761D01*
X120740753Y-72837904D02*
X121940753Y-72837904D01*
X121940753Y-72837904D02*
X121769324Y-72952190D01*
X121769324Y-72952190D02*
X121655038Y-73066475D01*
X121655038Y-73066475D02*
X121597896Y-73180761D01*
D11*
X69683676Y-35602452D02*
X70683676Y-35602452D01*
X70683676Y-35602452D02*
X70683676Y-35364357D01*
X70683676Y-35364357D02*
X70636057Y-35221500D01*
X70636057Y-35221500D02*
X70540819Y-35126262D01*
X70540819Y-35126262D02*
X70445581Y-35078643D01*
X70445581Y-35078643D02*
X70255105Y-35031024D01*
X70255105Y-35031024D02*
X70112248Y-35031024D01*
X70112248Y-35031024D02*
X69921772Y-35078643D01*
X69921772Y-35078643D02*
X69826534Y-35126262D01*
X69826534Y-35126262D02*
X69731296Y-35221500D01*
X69731296Y-35221500D02*
X69683676Y-35364357D01*
X69683676Y-35364357D02*
X69683676Y-35602452D01*
X70683676Y-34126262D02*
X70683676Y-34602452D01*
X70683676Y-34602452D02*
X70207486Y-34650071D01*
X70207486Y-34650071D02*
X70255105Y-34602452D01*
X70255105Y-34602452D02*
X70302724Y-34507214D01*
X70302724Y-34507214D02*
X70302724Y-34269119D01*
X70302724Y-34269119D02*
X70255105Y-34173881D01*
X70255105Y-34173881D02*
X70207486Y-34126262D01*
X70207486Y-34126262D02*
X70112248Y-34078643D01*
X70112248Y-34078643D02*
X69874153Y-34078643D01*
X69874153Y-34078643D02*
X69778915Y-34126262D01*
X69778915Y-34126262D02*
X69731296Y-34173881D01*
X69731296Y-34173881D02*
X69683676Y-34269119D01*
X69683676Y-34269119D02*
X69683676Y-34507214D01*
X69683676Y-34507214D02*
X69731296Y-34602452D01*
X69731296Y-34602452D02*
X69778915Y-34650071D01*
X59483676Y-25461703D02*
X60483676Y-25461703D01*
X60483676Y-25461703D02*
X60483676Y-25223608D01*
X60483676Y-25223608D02*
X60436057Y-25080751D01*
X60436057Y-25080751D02*
X60340819Y-24985513D01*
X60340819Y-24985513D02*
X60245581Y-24937894D01*
X60245581Y-24937894D02*
X60055105Y-24890275D01*
X60055105Y-24890275D02*
X59912248Y-24890275D01*
X59912248Y-24890275D02*
X59721772Y-24937894D01*
X59721772Y-24937894D02*
X59626534Y-24985513D01*
X59626534Y-24985513D02*
X59531296Y-25080751D01*
X59531296Y-25080751D02*
X59483676Y-25223608D01*
X59483676Y-25223608D02*
X59483676Y-25461703D01*
X59483676Y-23937894D02*
X59483676Y-24509322D01*
X59483676Y-24223608D02*
X60483676Y-24223608D01*
X60483676Y-24223608D02*
X60340819Y-24318846D01*
X60340819Y-24318846D02*
X60245581Y-24414084D01*
X60245581Y-24414084D02*
X60197962Y-24509322D01*
X60483676Y-23318846D02*
X60483676Y-23223608D01*
X60483676Y-23223608D02*
X60436057Y-23128370D01*
X60436057Y-23128370D02*
X60388438Y-23080751D01*
X60388438Y-23080751D02*
X60293200Y-23033132D01*
X60293200Y-23033132D02*
X60102724Y-22985513D01*
X60102724Y-22985513D02*
X59864629Y-22985513D01*
X59864629Y-22985513D02*
X59674153Y-23033132D01*
X59674153Y-23033132D02*
X59578915Y-23080751D01*
X59578915Y-23080751D02*
X59531296Y-23128370D01*
X59531296Y-23128370D02*
X59483676Y-23223608D01*
X59483676Y-23223608D02*
X59483676Y-23318846D01*
X59483676Y-23318846D02*
X59531296Y-23414084D01*
X59531296Y-23414084D02*
X59578915Y-23461703D01*
X59578915Y-23461703D02*
X59674153Y-23509322D01*
X59674153Y-23509322D02*
X59864629Y-23556941D01*
X59864629Y-23556941D02*
X60102724Y-23556941D01*
X60102724Y-23556941D02*
X60293200Y-23509322D01*
X60293200Y-23509322D02*
X60388438Y-23461703D01*
X60388438Y-23461703D02*
X60436057Y-23414084D01*
X60436057Y-23414084D02*
X60483676Y-23318846D01*
X72183676Y-35602452D02*
X73183676Y-35602452D01*
X73183676Y-35602452D02*
X73183676Y-35364357D01*
X73183676Y-35364357D02*
X73136057Y-35221500D01*
X73136057Y-35221500D02*
X73040819Y-35126262D01*
X73040819Y-35126262D02*
X72945581Y-35078643D01*
X72945581Y-35078643D02*
X72755105Y-35031024D01*
X72755105Y-35031024D02*
X72612248Y-35031024D01*
X72612248Y-35031024D02*
X72421772Y-35078643D01*
X72421772Y-35078643D02*
X72326534Y-35126262D01*
X72326534Y-35126262D02*
X72231296Y-35221500D01*
X72231296Y-35221500D02*
X72183676Y-35364357D01*
X72183676Y-35364357D02*
X72183676Y-35602452D01*
X72850343Y-34173881D02*
X72183676Y-34173881D01*
X73231296Y-34411976D02*
X72517010Y-34650071D01*
X72517010Y-34650071D02*
X72517010Y-34031024D01*
D12*
X51014614Y-31287892D02*
X50871757Y-31335511D01*
X50871757Y-31335511D02*
X50824138Y-31383130D01*
X50824138Y-31383130D02*
X50776519Y-31478368D01*
X50776519Y-31478368D02*
X50776519Y-31621225D01*
X50776519Y-31621225D02*
X50824138Y-31716463D01*
X50824138Y-31716463D02*
X50871757Y-31764083D01*
X50871757Y-31764083D02*
X50966995Y-31811702D01*
X50966995Y-31811702D02*
X51347947Y-31811702D01*
X51347947Y-31811702D02*
X51347947Y-30811702D01*
X51347947Y-30811702D02*
X51014614Y-30811702D01*
X51014614Y-30811702D02*
X50919376Y-30859321D01*
X50919376Y-30859321D02*
X50871757Y-30906940D01*
X50871757Y-30906940D02*
X50824138Y-31002178D01*
X50824138Y-31002178D02*
X50824138Y-31097416D01*
X50824138Y-31097416D02*
X50871757Y-31192654D01*
X50871757Y-31192654D02*
X50919376Y-31240273D01*
X50919376Y-31240273D02*
X51014614Y-31287892D01*
X51014614Y-31287892D02*
X51347947Y-31287892D01*
X50347947Y-31430749D02*
X49586043Y-31430749D01*
X49966995Y-31811702D02*
X49966995Y-31049797D01*
D11*
X80759557Y-35090881D02*
X80807176Y-35186119D01*
X80807176Y-35186119D02*
X80807176Y-35328976D01*
X80807176Y-35328976D02*
X80759557Y-35471833D01*
X80759557Y-35471833D02*
X80664319Y-35567071D01*
X80664319Y-35567071D02*
X80569081Y-35614690D01*
X80569081Y-35614690D02*
X80378605Y-35662309D01*
X80378605Y-35662309D02*
X80235748Y-35662309D01*
X80235748Y-35662309D02*
X80045272Y-35614690D01*
X80045272Y-35614690D02*
X79950034Y-35567071D01*
X79950034Y-35567071D02*
X79854796Y-35471833D01*
X79854796Y-35471833D02*
X79807176Y-35328976D01*
X79807176Y-35328976D02*
X79807176Y-35233738D01*
X79807176Y-35233738D02*
X79854796Y-35090881D01*
X79854796Y-35090881D02*
X79902415Y-35043262D01*
X79902415Y-35043262D02*
X80235748Y-35043262D01*
X80235748Y-35043262D02*
X80235748Y-35233738D01*
X79807176Y-34614690D02*
X80807176Y-34614690D01*
X80807176Y-34614690D02*
X79807176Y-34043262D01*
X79807176Y-34043262D02*
X80807176Y-34043262D01*
X79807176Y-33567071D02*
X80807176Y-33567071D01*
X80807176Y-33567071D02*
X80807176Y-33328976D01*
X80807176Y-33328976D02*
X80759557Y-33186119D01*
X80759557Y-33186119D02*
X80664319Y-33090881D01*
X80664319Y-33090881D02*
X80569081Y-33043262D01*
X80569081Y-33043262D02*
X80378605Y-32995643D01*
X80378605Y-32995643D02*
X80235748Y-32995643D01*
X80235748Y-32995643D02*
X80045272Y-33043262D01*
X80045272Y-33043262D02*
X79950034Y-33090881D01*
X79950034Y-33090881D02*
X79854796Y-33186119D01*
X79854796Y-33186119D02*
X79807176Y-33328976D01*
X79807176Y-33328976D02*
X79807176Y-33567071D01*
X77283676Y-35602452D02*
X78283676Y-35602452D01*
X78283676Y-35602452D02*
X78283676Y-35364357D01*
X78283676Y-35364357D02*
X78236057Y-35221500D01*
X78236057Y-35221500D02*
X78140819Y-35126262D01*
X78140819Y-35126262D02*
X78045581Y-35078643D01*
X78045581Y-35078643D02*
X77855105Y-35031024D01*
X77855105Y-35031024D02*
X77712248Y-35031024D01*
X77712248Y-35031024D02*
X77521772Y-35078643D01*
X77521772Y-35078643D02*
X77426534Y-35126262D01*
X77426534Y-35126262D02*
X77331296Y-35221500D01*
X77331296Y-35221500D02*
X77283676Y-35364357D01*
X77283676Y-35364357D02*
X77283676Y-35602452D01*
X78188438Y-34650071D02*
X78236057Y-34602452D01*
X78236057Y-34602452D02*
X78283676Y-34507214D01*
X78283676Y-34507214D02*
X78283676Y-34269119D01*
X78283676Y-34269119D02*
X78236057Y-34173881D01*
X78236057Y-34173881D02*
X78188438Y-34126262D01*
X78188438Y-34126262D02*
X78093200Y-34078643D01*
X78093200Y-34078643D02*
X77997962Y-34078643D01*
X77997962Y-34078643D02*
X77855105Y-34126262D01*
X77855105Y-34126262D02*
X77283676Y-34697690D01*
X77283676Y-34697690D02*
X77283676Y-34078643D01*
X67083676Y-25511703D02*
X68083676Y-25511703D01*
X68083676Y-25511703D02*
X68083676Y-25273608D01*
X68083676Y-25273608D02*
X68036057Y-25130751D01*
X68036057Y-25130751D02*
X67940819Y-25035513D01*
X67940819Y-25035513D02*
X67845581Y-24987894D01*
X67845581Y-24987894D02*
X67655105Y-24940275D01*
X67655105Y-24940275D02*
X67512248Y-24940275D01*
X67512248Y-24940275D02*
X67321772Y-24987894D01*
X67321772Y-24987894D02*
X67226534Y-25035513D01*
X67226534Y-25035513D02*
X67131296Y-25130751D01*
X67131296Y-25130751D02*
X67083676Y-25273608D01*
X67083676Y-25273608D02*
X67083676Y-25511703D01*
X67083676Y-23987894D02*
X67083676Y-24559322D01*
X67083676Y-24273608D02*
X68083676Y-24273608D01*
X68083676Y-24273608D02*
X67940819Y-24368846D01*
X67940819Y-24368846D02*
X67845581Y-24464084D01*
X67845581Y-24464084D02*
X67797962Y-24559322D01*
X68083676Y-23083132D02*
X68083676Y-23559322D01*
X68083676Y-23559322D02*
X67607486Y-23606941D01*
X67607486Y-23606941D02*
X67655105Y-23559322D01*
X67655105Y-23559322D02*
X67702724Y-23464084D01*
X67702724Y-23464084D02*
X67702724Y-23225989D01*
X67702724Y-23225989D02*
X67655105Y-23130751D01*
X67655105Y-23130751D02*
X67607486Y-23083132D01*
X67607486Y-23083132D02*
X67512248Y-23035513D01*
X67512248Y-23035513D02*
X67274153Y-23035513D01*
X67274153Y-23035513D02*
X67178915Y-23083132D01*
X67178915Y-23083132D02*
X67131296Y-23130751D01*
X67131296Y-23130751D02*
X67083676Y-23225989D01*
X67083676Y-23225989D02*
X67083676Y-23464084D01*
X67083676Y-23464084D02*
X67131296Y-23559322D01*
X67131296Y-23559322D02*
X67178915Y-23606941D01*
G36*
X41106427Y-38553746D02*
G01*
X41016363Y-38549913D01*
X40931990Y-38538716D01*
X40853640Y-38520649D01*
X40781317Y-38496145D01*
X40715375Y-38465746D01*
X40655784Y-38429837D01*
X40602879Y-38389000D01*
X40556638Y-38343572D01*
X40517341Y-38294140D01*
X40485020Y-38241018D01*
X40459888Y-38184745D01*
X40442056Y-38125666D01*
X40428897Y-38010427D01*
X40432736Y-37942531D01*
X40443979Y-37880371D01*
X40461851Y-37824513D01*
X40486088Y-37773525D01*
X40554075Y-37682764D01*
X40651634Y-37602988D01*
X40787616Y-37530685D01*
X40826524Y-37514492D01*
X41067226Y-37410811D01*
X41082349Y-37404929D01*
X41196087Y-37358602D01*
X41291236Y-37306770D01*
X41328329Y-37276176D01*
X41356562Y-37241069D01*
X41374532Y-37200404D01*
X41380834Y-37153135D01*
X41376998Y-37111771D01*
X41365777Y-37074449D01*
X41323648Y-37013196D01*
X41254786Y-36967955D01*
X41156416Y-36941545D01*
X41089696Y-36937346D01*
X41010784Y-36941190D01*
X40938304Y-36952460D01*
X40810220Y-36995013D01*
X40689198Y-37066666D01*
X40652868Y-37094272D01*
X40484829Y-36887032D01*
X40610892Y-36789215D01*
X40682276Y-36748623D01*
X40757855Y-36714681D01*
X40836456Y-36688004D01*
X40917931Y-36668801D01*
X41072843Y-36654513D01*
X41156063Y-36658352D01*
X41235062Y-36669588D01*
X41309821Y-36687924D01*
X41379483Y-36712892D01*
X41443461Y-36743974D01*
X41501545Y-36780810D01*
X41552723Y-36822427D01*
X41597353Y-36868842D01*
X41634350Y-36918588D01*
X41664303Y-36972170D01*
X41686411Y-37027877D01*
X41701086Y-37086528D01*
X41708485Y-37169866D01*
X41704686Y-37232748D01*
X41693721Y-37290857D01*
X41651630Y-37395782D01*
X41583068Y-37488135D01*
X41486333Y-37569594D01*
X41359070Y-37639599D01*
X41316476Y-37657374D01*
X41067226Y-37766673D01*
X41043792Y-37776395D01*
X40927924Y-37826822D01*
X40838042Y-37881048D01*
X40804642Y-37913393D01*
X40779896Y-37951256D01*
X40764520Y-37996160D01*
X40759236Y-38049628D01*
X40763123Y-38089530D01*
X40774705Y-38126540D01*
X40793239Y-38159381D01*
X40818827Y-38188729D01*
X40892049Y-38236037D01*
X40998200Y-38265044D01*
X41086887Y-38271034D01*
X41228615Y-38256093D01*
X41370301Y-38210962D01*
X41507270Y-38135734D01*
X41599309Y-38063672D01*
X41789696Y-38284956D01*
X41652419Y-38392575D01*
X41497137Y-38474946D01*
X41414240Y-38505671D01*
X41328526Y-38529052D01*
X41241068Y-38544759D01*
X41151750Y-38552734D01*
X41106427Y-38553746D01*
G37*
G36*
X40043970Y-38522483D02*
G01*
X39719250Y-38522483D01*
X39719250Y-37585811D01*
X39630120Y-37501645D01*
X39546496Y-37441424D01*
X39495773Y-37416680D01*
X39442965Y-37400656D01*
X39366441Y-37392859D01*
X39306945Y-37396796D01*
X39256153Y-37408718D01*
X39218841Y-37425645D01*
X39187480Y-37448812D01*
X39143016Y-37511034D01*
X39116346Y-37604243D01*
X39108887Y-37714405D01*
X39108887Y-38522483D01*
X38784044Y-38522483D01*
X38784044Y-37672517D01*
X38787973Y-37575865D01*
X38799846Y-37487706D01*
X38817530Y-37415500D01*
X38841910Y-37350619D01*
X38870248Y-37297688D01*
X38904376Y-37251213D01*
X38942034Y-37213336D01*
X38984994Y-37181472D01*
X39085431Y-37136728D01*
X39210606Y-37116519D01*
X39246029Y-37115644D01*
X39375832Y-37130310D01*
X39496876Y-37173251D01*
X39613384Y-37245234D01*
X39730485Y-37350850D01*
X39738789Y-37350850D01*
X39719250Y-37056659D01*
X39719250Y-36545092D01*
X40043970Y-36545092D01*
X40043970Y-38522483D01*
G37*
G36*
X37904954Y-37131082D02*
G01*
X37976929Y-37150170D01*
X38046110Y-37176644D01*
X38111106Y-37209913D01*
X38172158Y-37250111D01*
X38227506Y-37296022D01*
X38277935Y-37348303D01*
X38321810Y-37405261D01*
X38359950Y-37468024D01*
X38391157Y-37534790D01*
X38415911Y-37606862D01*
X38433472Y-37682710D01*
X38443875Y-37763462D01*
X38446744Y-37836160D01*
X38442911Y-37919486D01*
X38431706Y-37998180D01*
X38413413Y-38072677D01*
X38388544Y-38142254D01*
X38319712Y-38267916D01*
X38227290Y-38373953D01*
X38113545Y-38458208D01*
X37981680Y-38517711D01*
X37836415Y-38549267D01*
X37755171Y-38553746D01*
X37605391Y-38538314D01*
X37533358Y-38519227D01*
X37464121Y-38492758D01*
X37399039Y-38459486D01*
X37337911Y-38419294D01*
X37282493Y-38373394D01*
X37232013Y-38321141D01*
X37188120Y-38264244D01*
X37149982Y-38201571D01*
X37118817Y-38134958D01*
X37094125Y-38063082D01*
X37076656Y-37987515D01*
X37066362Y-37907099D01*
X37063597Y-37836160D01*
X37396744Y-37836160D01*
X37400609Y-37914070D01*
X37412033Y-37986124D01*
X37429854Y-38049259D01*
X37454165Y-38106086D01*
X37483067Y-38153821D01*
X37517428Y-38195069D01*
X37555161Y-38228050D01*
X37597526Y-38254425D01*
X37643150Y-38273466D01*
X37692861Y-38285589D01*
X37755171Y-38290574D01*
X37810178Y-38286720D01*
X37861161Y-38275378D01*
X37907230Y-38257227D01*
X37949088Y-38232455D01*
X38020108Y-38163555D01*
X38073489Y-38067938D01*
X38105982Y-37944116D01*
X38113597Y-37836160D01*
X38109732Y-37757500D01*
X38098308Y-37684843D01*
X38080513Y-37621325D01*
X38056242Y-37564205D01*
X38027415Y-37516296D01*
X37993150Y-37474917D01*
X37955534Y-37441845D01*
X37913304Y-37415390D01*
X37867811Y-37396266D01*
X37818241Y-37384051D01*
X37755171Y-37378937D01*
X37700163Y-37382793D01*
X37649180Y-37394148D01*
X37603167Y-37412302D01*
X37561353Y-37437092D01*
X37490441Y-37506044D01*
X37437093Y-37601846D01*
X37404507Y-37726184D01*
X37396744Y-37836160D01*
X37063597Y-37836160D01*
X37067431Y-37752351D01*
X37078635Y-37673233D01*
X37096918Y-37598392D01*
X37121771Y-37528518D01*
X37190515Y-37402435D01*
X37282763Y-37296132D01*
X37396256Y-37211690D01*
X37527831Y-37152013D01*
X37672836Y-37120250D01*
X37755171Y-37115644D01*
X37904954Y-37131082D01*
G37*
G36*
X36552763Y-38522483D02*
G01*
X36227920Y-38522483D01*
X36227920Y-37764841D01*
X36182352Y-37686530D01*
X36134105Y-37618861D01*
X36084617Y-37562513D01*
X36033121Y-37515418D01*
X35980244Y-37477342D01*
X35925923Y-37447500D01*
X35812009Y-37410336D01*
X35715621Y-37401286D01*
X35631549Y-37405197D01*
X35560295Y-37416945D01*
X35466371Y-37443173D01*
X35399204Y-37171697D01*
X35466795Y-37143799D01*
X35536746Y-37125777D01*
X35665185Y-37115644D01*
X35737582Y-37119524D01*
X35807784Y-37131055D01*
X35940503Y-37176339D01*
X36062555Y-37250878D01*
X36172529Y-37354939D01*
X36250390Y-37460026D01*
X36258695Y-37460026D01*
X36286783Y-37146907D01*
X36552763Y-37146907D01*
X36552763Y-38522483D01*
G37*
G36*
X34986312Y-38522483D02*
G01*
X34661469Y-38522483D01*
X34661469Y-38163934D01*
X34401106Y-37895023D01*
X33967086Y-38522483D01*
X33614277Y-38522483D01*
X34207910Y-37696087D01*
X33673140Y-37146907D01*
X34031566Y-37146907D01*
X34650356Y-37782915D01*
X34661469Y-37782915D01*
X34661469Y-36545092D01*
X34986312Y-36545092D01*
X34986312Y-38522483D01*
G37*
G36*
X33176228Y-39085218D02*
G01*
X33098127Y-39081352D01*
X33026316Y-39069923D01*
X32962668Y-39051977D01*
X32904153Y-39027461D01*
X32801079Y-38959581D01*
X32710714Y-38863360D01*
X32628477Y-38730810D01*
X32563056Y-38581589D01*
X31989086Y-37146907D01*
X32294267Y-37146907D01*
X32543517Y-37820895D01*
X32560859Y-37870640D01*
X32680659Y-38223651D01*
X32691894Y-38223651D01*
X32726752Y-38128322D01*
X32843081Y-37820895D01*
X33125914Y-37146907D01*
X33447826Y-37146907D01*
X32831845Y-38503309D01*
X32865429Y-38590016D01*
X32894235Y-38649659D01*
X32929852Y-38702611D01*
X32966073Y-38741565D01*
X33008058Y-38773974D01*
X33051510Y-38797098D01*
X33100303Y-38813607D01*
X33195889Y-38824855D01*
X33287649Y-38811894D01*
X33310684Y-38805316D01*
X33372233Y-39057252D01*
X33240215Y-39082403D01*
X33176228Y-39085218D01*
G37*
G36*
X31699414Y-38522483D02*
G01*
X30403095Y-38522483D01*
X30403095Y-38248198D01*
X30907090Y-38248198D01*
X31198413Y-38264995D01*
X31231811Y-38267737D01*
X30971184Y-38025721D01*
X30855940Y-37909215D01*
X30753281Y-37795276D01*
X30673018Y-37694380D01*
X30605957Y-37595069D01*
X30562051Y-37515163D01*
X30528595Y-37436022D01*
X30508594Y-37367763D01*
X30497555Y-37299899D01*
X30495418Y-37254984D01*
X30499281Y-37184050D01*
X30510685Y-37117071D01*
X30529060Y-37055099D01*
X30554247Y-36997445D01*
X30585786Y-36944626D01*
X30623542Y-36896533D01*
X30717150Y-36815116D01*
X30834496Y-36754876D01*
X30975194Y-36718589D01*
X31103095Y-36709224D01*
X31188817Y-36713090D01*
X31268889Y-36724524D01*
X31342471Y-36742824D01*
X31411851Y-36767915D01*
X31543476Y-36839590D01*
X31674815Y-36945794D01*
X31713457Y-36983630D01*
X31536992Y-37162660D01*
X31464172Y-37096223D01*
X31384401Y-37038540D01*
X31322819Y-37005162D01*
X31257788Y-36980597D01*
X31202544Y-36968377D01*
X31145104Y-36964091D01*
X31078617Y-36967939D01*
X31019124Y-36979244D01*
X30969202Y-36996541D01*
X30925710Y-37019924D01*
X30889894Y-37047974D01*
X30860186Y-37081130D01*
X30819350Y-37161573D01*
X30803497Y-37263008D01*
X30803409Y-37271837D01*
X30818810Y-37376549D01*
X30868109Y-37493106D01*
X30961523Y-37631952D01*
X31118638Y-37808752D01*
X31378625Y-38054957D01*
X31699414Y-38334904D01*
X31699414Y-38522483D01*
G37*
G36*
X29956619Y-38522483D02*
G01*
X28702187Y-38522483D01*
X28702187Y-38259311D01*
X29139016Y-38259311D01*
X29139016Y-36740487D01*
X29374222Y-36740487D01*
X29464280Y-36784644D01*
X29561267Y-36821319D01*
X29770560Y-36872166D01*
X29855746Y-36886178D01*
X29855746Y-37087800D01*
X29461050Y-37087800D01*
X29461050Y-38259311D01*
X29956619Y-38259311D01*
X29956619Y-38522483D01*
G37*
X59483676Y-35652452D02*
X60483676Y-35652452D01*
X60483676Y-35652452D02*
X60483676Y-35414357D01*
X60483676Y-35414357D02*
X60436057Y-35271500D01*
X60436057Y-35271500D02*
X60340819Y-35176262D01*
X60340819Y-35176262D02*
X60245581Y-35128643D01*
X60245581Y-35128643D02*
X60055105Y-35081024D01*
X60055105Y-35081024D02*
X59912248Y-35081024D01*
X59912248Y-35081024D02*
X59721772Y-35128643D01*
X59721772Y-35128643D02*
X59626534Y-35176262D01*
X59626534Y-35176262D02*
X59531296Y-35271500D01*
X59531296Y-35271500D02*
X59483676Y-35414357D01*
X59483676Y-35414357D02*
X59483676Y-35652452D01*
X59483676Y-34604833D02*
X59483676Y-34414357D01*
X59483676Y-34414357D02*
X59531296Y-34319119D01*
X59531296Y-34319119D02*
X59578915Y-34271500D01*
X59578915Y-34271500D02*
X59721772Y-34176262D01*
X59721772Y-34176262D02*
X59912248Y-34128643D01*
X59912248Y-34128643D02*
X60293200Y-34128643D01*
X60293200Y-34128643D02*
X60388438Y-34176262D01*
X60388438Y-34176262D02*
X60436057Y-34223881D01*
X60436057Y-34223881D02*
X60483676Y-34319119D01*
X60483676Y-34319119D02*
X60483676Y-34509595D01*
X60483676Y-34509595D02*
X60436057Y-34604833D01*
X60436057Y-34604833D02*
X60388438Y-34652452D01*
X60388438Y-34652452D02*
X60293200Y-34700071D01*
X60293200Y-34700071D02*
X60055105Y-34700071D01*
X60055105Y-34700071D02*
X59959867Y-34652452D01*
X59959867Y-34652452D02*
X59912248Y-34604833D01*
X59912248Y-34604833D02*
X59864629Y-34509595D01*
X59864629Y-34509595D02*
X59864629Y-34319119D01*
X59864629Y-34319119D02*
X59912248Y-34223881D01*
X59912248Y-34223881D02*
X59959867Y-34176262D01*
X59959867Y-34176262D02*
X60055105Y-34128643D01*
X64583676Y-25511703D02*
X65583676Y-25511703D01*
X65583676Y-25511703D02*
X65583676Y-25273608D01*
X65583676Y-25273608D02*
X65536057Y-25130751D01*
X65536057Y-25130751D02*
X65440819Y-25035513D01*
X65440819Y-25035513D02*
X65345581Y-24987894D01*
X65345581Y-24987894D02*
X65155105Y-24940275D01*
X65155105Y-24940275D02*
X65012248Y-24940275D01*
X65012248Y-24940275D02*
X64821772Y-24987894D01*
X64821772Y-24987894D02*
X64726534Y-25035513D01*
X64726534Y-25035513D02*
X64631296Y-25130751D01*
X64631296Y-25130751D02*
X64583676Y-25273608D01*
X64583676Y-25273608D02*
X64583676Y-25511703D01*
X64583676Y-23987894D02*
X64583676Y-24559322D01*
X64583676Y-24273608D02*
X65583676Y-24273608D01*
X65583676Y-24273608D02*
X65440819Y-24368846D01*
X65440819Y-24368846D02*
X65345581Y-24464084D01*
X65345581Y-24464084D02*
X65297962Y-24559322D01*
X65250343Y-23130751D02*
X64583676Y-23130751D01*
X65631296Y-23368846D02*
X64917010Y-23606941D01*
X64917010Y-23606941D02*
X64917010Y-22987894D01*
X69683676Y-25511703D02*
X70683676Y-25511703D01*
X70683676Y-25511703D02*
X70683676Y-25273608D01*
X70683676Y-25273608D02*
X70636057Y-25130751D01*
X70636057Y-25130751D02*
X70540819Y-25035513D01*
X70540819Y-25035513D02*
X70445581Y-24987894D01*
X70445581Y-24987894D02*
X70255105Y-24940275D01*
X70255105Y-24940275D02*
X70112248Y-24940275D01*
X70112248Y-24940275D02*
X69921772Y-24987894D01*
X69921772Y-24987894D02*
X69826534Y-25035513D01*
X69826534Y-25035513D02*
X69731296Y-25130751D01*
X69731296Y-25130751D02*
X69683676Y-25273608D01*
X69683676Y-25273608D02*
X69683676Y-25511703D01*
X69683676Y-23987894D02*
X69683676Y-24559322D01*
X69683676Y-24273608D02*
X70683676Y-24273608D01*
X70683676Y-24273608D02*
X70540819Y-24368846D01*
X70540819Y-24368846D02*
X70445581Y-24464084D01*
X70445581Y-24464084D02*
X70397962Y-24559322D01*
X70255105Y-23416465D02*
X70302724Y-23511703D01*
X70302724Y-23511703D02*
X70350343Y-23559322D01*
X70350343Y-23559322D02*
X70445581Y-23606941D01*
X70445581Y-23606941D02*
X70493200Y-23606941D01*
X70493200Y-23606941D02*
X70588438Y-23559322D01*
X70588438Y-23559322D02*
X70636057Y-23511703D01*
X70636057Y-23511703D02*
X70683676Y-23416465D01*
X70683676Y-23416465D02*
X70683676Y-23225989D01*
X70683676Y-23225989D02*
X70636057Y-23130751D01*
X70636057Y-23130751D02*
X70588438Y-23083132D01*
X70588438Y-23083132D02*
X70493200Y-23035513D01*
X70493200Y-23035513D02*
X70445581Y-23035513D01*
X70445581Y-23035513D02*
X70350343Y-23083132D01*
X70350343Y-23083132D02*
X70302724Y-23130751D01*
X70302724Y-23130751D02*
X70255105Y-23225989D01*
X70255105Y-23225989D02*
X70255105Y-23416465D01*
X70255105Y-23416465D02*
X70207486Y-23511703D01*
X70207486Y-23511703D02*
X70159867Y-23559322D01*
X70159867Y-23559322D02*
X70064629Y-23606941D01*
X70064629Y-23606941D02*
X69874153Y-23606941D01*
X69874153Y-23606941D02*
X69778915Y-23559322D01*
X69778915Y-23559322D02*
X69731296Y-23511703D01*
X69731296Y-23511703D02*
X69683676Y-23416465D01*
X69683676Y-23416465D02*
X69683676Y-23225989D01*
X69683676Y-23225989D02*
X69731296Y-23130751D01*
X69731296Y-23130751D02*
X69778915Y-23083132D01*
X69778915Y-23083132D02*
X69874153Y-23035513D01*
X69874153Y-23035513D02*
X70064629Y-23035513D01*
X70064629Y-23035513D02*
X70159867Y-23083132D01*
X70159867Y-23083132D02*
X70207486Y-23130751D01*
X70207486Y-23130751D02*
X70255105Y-23225989D01*
X74683676Y-35602452D02*
X75683676Y-35602452D01*
X75683676Y-35602452D02*
X75683676Y-35364357D01*
X75683676Y-35364357D02*
X75636057Y-35221500D01*
X75636057Y-35221500D02*
X75540819Y-35126262D01*
X75540819Y-35126262D02*
X75445581Y-35078643D01*
X75445581Y-35078643D02*
X75255105Y-35031024D01*
X75255105Y-35031024D02*
X75112248Y-35031024D01*
X75112248Y-35031024D02*
X74921772Y-35078643D01*
X74921772Y-35078643D02*
X74826534Y-35126262D01*
X74826534Y-35126262D02*
X74731296Y-35221500D01*
X74731296Y-35221500D02*
X74683676Y-35364357D01*
X74683676Y-35364357D02*
X74683676Y-35602452D01*
X75683676Y-34697690D02*
X75683676Y-34078643D01*
X75683676Y-34078643D02*
X75302724Y-34411976D01*
X75302724Y-34411976D02*
X75302724Y-34269119D01*
X75302724Y-34269119D02*
X75255105Y-34173881D01*
X75255105Y-34173881D02*
X75207486Y-34126262D01*
X75207486Y-34126262D02*
X75112248Y-34078643D01*
X75112248Y-34078643D02*
X74874153Y-34078643D01*
X74874153Y-34078643D02*
X74778915Y-34126262D01*
X74778915Y-34126262D02*
X74731296Y-34173881D01*
X74731296Y-34173881D02*
X74683676Y-34269119D01*
X74683676Y-34269119D02*
X74683676Y-34554833D01*
X74683676Y-34554833D02*
X74731296Y-34650071D01*
X74731296Y-34650071D02*
X74778915Y-34697690D01*
X62083676Y-25461703D02*
X63083676Y-25461703D01*
X63083676Y-25461703D02*
X63083676Y-25223608D01*
X63083676Y-25223608D02*
X63036057Y-25080751D01*
X63036057Y-25080751D02*
X62940819Y-24985513D01*
X62940819Y-24985513D02*
X62845581Y-24937894D01*
X62845581Y-24937894D02*
X62655105Y-24890275D01*
X62655105Y-24890275D02*
X62512248Y-24890275D01*
X62512248Y-24890275D02*
X62321772Y-24937894D01*
X62321772Y-24937894D02*
X62226534Y-24985513D01*
X62226534Y-24985513D02*
X62131296Y-25080751D01*
X62131296Y-25080751D02*
X62083676Y-25223608D01*
X62083676Y-25223608D02*
X62083676Y-25461703D01*
X62083676Y-23937894D02*
X62083676Y-24509322D01*
X62083676Y-24223608D02*
X63083676Y-24223608D01*
X63083676Y-24223608D02*
X62940819Y-24318846D01*
X62940819Y-24318846D02*
X62845581Y-24414084D01*
X62845581Y-24414084D02*
X62797962Y-24509322D01*
X63083676Y-23080751D02*
X63083676Y-23271227D01*
X63083676Y-23271227D02*
X63036057Y-23366465D01*
X63036057Y-23366465D02*
X62988438Y-23414084D01*
X62988438Y-23414084D02*
X62845581Y-23509322D01*
X62845581Y-23509322D02*
X62655105Y-23556941D01*
X62655105Y-23556941D02*
X62274153Y-23556941D01*
X62274153Y-23556941D02*
X62178915Y-23509322D01*
X62178915Y-23509322D02*
X62131296Y-23461703D01*
X62131296Y-23461703D02*
X62083676Y-23366465D01*
X62083676Y-23366465D02*
X62083676Y-23175989D01*
X62083676Y-23175989D02*
X62131296Y-23080751D01*
X62131296Y-23080751D02*
X62178915Y-23033132D01*
X62178915Y-23033132D02*
X62274153Y-22985513D01*
X62274153Y-22985513D02*
X62512248Y-22985513D01*
X62512248Y-22985513D02*
X62607486Y-23033132D01*
X62607486Y-23033132D02*
X62655105Y-23080751D01*
X62655105Y-23080751D02*
X62702724Y-23175989D01*
X62702724Y-23175989D02*
X62702724Y-23366465D01*
X62702724Y-23366465D02*
X62655105Y-23461703D01*
X62655105Y-23461703D02*
X62607486Y-23509322D01*
X62607486Y-23509322D02*
X62512248Y-23556941D01*
X108765216Y-49382302D02*
X108765216Y-48382302D01*
X108765216Y-48382302D02*
X108527121Y-48382302D01*
X108527121Y-48382302D02*
X108384264Y-48429921D01*
X108384264Y-48429921D02*
X108289026Y-48525159D01*
X108289026Y-48525159D02*
X108241407Y-48620397D01*
X108241407Y-48620397D02*
X108193788Y-48810873D01*
X108193788Y-48810873D02*
X108193788Y-48953730D01*
X108193788Y-48953730D02*
X108241407Y-49144206D01*
X108241407Y-49144206D02*
X108289026Y-49239444D01*
X108289026Y-49239444D02*
X108384264Y-49334683D01*
X108384264Y-49334683D02*
X108527121Y-49382302D01*
X108527121Y-49382302D02*
X108765216Y-49382302D01*
X107812835Y-48477540D02*
X107765216Y-48429921D01*
X107765216Y-48429921D02*
X107669978Y-48382302D01*
X107669978Y-48382302D02*
X107431883Y-48382302D01*
X107431883Y-48382302D02*
X107336645Y-48429921D01*
X107336645Y-48429921D02*
X107289026Y-48477540D01*
X107289026Y-48477540D02*
X107241407Y-48572778D01*
X107241407Y-48572778D02*
X107241407Y-48668016D01*
X107241407Y-48668016D02*
X107289026Y-48810873D01*
X107289026Y-48810873D02*
X107860454Y-49382302D01*
X107860454Y-49382302D02*
X107241407Y-49382302D01*
X106622359Y-48382302D02*
X106527121Y-48382302D01*
X106527121Y-48382302D02*
X106431883Y-48429921D01*
X106431883Y-48429921D02*
X106384264Y-48477540D01*
X106384264Y-48477540D02*
X106336645Y-48572778D01*
X106336645Y-48572778D02*
X106289026Y-48763254D01*
X106289026Y-48763254D02*
X106289026Y-49001349D01*
X106289026Y-49001349D02*
X106336645Y-49191825D01*
X106336645Y-49191825D02*
X106384264Y-49287063D01*
X106384264Y-49287063D02*
X106431883Y-49334683D01*
X106431883Y-49334683D02*
X106527121Y-49382302D01*
X106527121Y-49382302D02*
X106622359Y-49382302D01*
X106622359Y-49382302D02*
X106717597Y-49334683D01*
X106717597Y-49334683D02*
X106765216Y-49287063D01*
X106765216Y-49287063D02*
X106812835Y-49191825D01*
X106812835Y-49191825D02*
X106860454Y-49001349D01*
X106860454Y-49001349D02*
X106860454Y-48763254D01*
X106860454Y-48763254D02*
X106812835Y-48572778D01*
X106812835Y-48572778D02*
X106765216Y-48477540D01*
X106765216Y-48477540D02*
X106717597Y-48429921D01*
X106717597Y-48429921D02*
X106622359Y-48382302D01*
X72183676Y-25511703D02*
X73183676Y-25511703D01*
X73183676Y-25511703D02*
X73183676Y-25273608D01*
X73183676Y-25273608D02*
X73136057Y-25130751D01*
X73136057Y-25130751D02*
X73040819Y-25035513D01*
X73040819Y-25035513D02*
X72945581Y-24987894D01*
X72945581Y-24987894D02*
X72755105Y-24940275D01*
X72755105Y-24940275D02*
X72612248Y-24940275D01*
X72612248Y-24940275D02*
X72421772Y-24987894D01*
X72421772Y-24987894D02*
X72326534Y-25035513D01*
X72326534Y-25035513D02*
X72231296Y-25130751D01*
X72231296Y-25130751D02*
X72183676Y-25273608D01*
X72183676Y-25273608D02*
X72183676Y-25511703D01*
X72183676Y-23987894D02*
X72183676Y-24559322D01*
X72183676Y-24273608D02*
X73183676Y-24273608D01*
X73183676Y-24273608D02*
X73040819Y-24368846D01*
X73040819Y-24368846D02*
X72945581Y-24464084D01*
X72945581Y-24464084D02*
X72897962Y-24559322D01*
X72183676Y-23511703D02*
X72183676Y-23321227D01*
X72183676Y-23321227D02*
X72231296Y-23225989D01*
X72231296Y-23225989D02*
X72278915Y-23178370D01*
X72278915Y-23178370D02*
X72421772Y-23083132D01*
X72421772Y-23083132D02*
X72612248Y-23035513D01*
X72612248Y-23035513D02*
X72993200Y-23035513D01*
X72993200Y-23035513D02*
X73088438Y-23083132D01*
X73088438Y-23083132D02*
X73136057Y-23130751D01*
X73136057Y-23130751D02*
X73183676Y-23225989D01*
X73183676Y-23225989D02*
X73183676Y-23416465D01*
X73183676Y-23416465D02*
X73136057Y-23511703D01*
X73136057Y-23511703D02*
X73088438Y-23559322D01*
X73088438Y-23559322D02*
X72993200Y-23606941D01*
X72993200Y-23606941D02*
X72755105Y-23606941D01*
X72755105Y-23606941D02*
X72659867Y-23559322D01*
X72659867Y-23559322D02*
X72612248Y-23511703D01*
X72612248Y-23511703D02*
X72564629Y-23416465D01*
X72564629Y-23416465D02*
X72564629Y-23225989D01*
X72564629Y-23225989D02*
X72612248Y-23130751D01*
X72612248Y-23130751D02*
X72659867Y-23083132D01*
X72659867Y-23083132D02*
X72755105Y-23035513D01*
X85756057Y-25348894D02*
X85803676Y-25444132D01*
X85803676Y-25444132D02*
X85803676Y-25586989D01*
X85803676Y-25586989D02*
X85756057Y-25729846D01*
X85756057Y-25729846D02*
X85660819Y-25825084D01*
X85660819Y-25825084D02*
X85565581Y-25872703D01*
X85565581Y-25872703D02*
X85375105Y-25920322D01*
X85375105Y-25920322D02*
X85232248Y-25920322D01*
X85232248Y-25920322D02*
X85041772Y-25872703D01*
X85041772Y-25872703D02*
X84946534Y-25825084D01*
X84946534Y-25825084D02*
X84851296Y-25729846D01*
X84851296Y-25729846D02*
X84803676Y-25586989D01*
X84803676Y-25586989D02*
X84803676Y-25491751D01*
X84803676Y-25491751D02*
X84851296Y-25348894D01*
X84851296Y-25348894D02*
X84898915Y-25301275D01*
X84898915Y-25301275D02*
X85232248Y-25301275D01*
X85232248Y-25301275D02*
X85232248Y-25491751D01*
X84803676Y-24872703D02*
X85803676Y-24872703D01*
X85803676Y-24872703D02*
X84803676Y-24301275D01*
X84803676Y-24301275D02*
X85803676Y-24301275D01*
X84803676Y-23825084D02*
X85803676Y-23825084D01*
X85803676Y-23825084D02*
X85803676Y-23586989D01*
X85803676Y-23586989D02*
X85756057Y-23444132D01*
X85756057Y-23444132D02*
X85660819Y-23348894D01*
X85660819Y-23348894D02*
X85565581Y-23301275D01*
X85565581Y-23301275D02*
X85375105Y-23253656D01*
X85375105Y-23253656D02*
X85232248Y-23253656D01*
X85232248Y-23253656D02*
X85041772Y-23301275D01*
X85041772Y-23301275D02*
X84946534Y-23348894D01*
X84946534Y-23348894D02*
X84851296Y-23444132D01*
X84851296Y-23444132D02*
X84803676Y-23586989D01*
X84803676Y-23586989D02*
X84803676Y-23825084D01*
X108790216Y-51957302D02*
X108790216Y-50957302D01*
X108790216Y-50957302D02*
X108552121Y-50957302D01*
X108552121Y-50957302D02*
X108409264Y-51004921D01*
X108409264Y-51004921D02*
X108314026Y-51100159D01*
X108314026Y-51100159D02*
X108266407Y-51195397D01*
X108266407Y-51195397D02*
X108218788Y-51385873D01*
X108218788Y-51385873D02*
X108218788Y-51528730D01*
X108218788Y-51528730D02*
X108266407Y-51719206D01*
X108266407Y-51719206D02*
X108314026Y-51814444D01*
X108314026Y-51814444D02*
X108409264Y-51909683D01*
X108409264Y-51909683D02*
X108552121Y-51957302D01*
X108552121Y-51957302D02*
X108790216Y-51957302D01*
X107266407Y-51957302D02*
X107837835Y-51957302D01*
X107552121Y-51957302D02*
X107552121Y-50957302D01*
X107552121Y-50957302D02*
X107647359Y-51100159D01*
X107647359Y-51100159D02*
X107742597Y-51195397D01*
X107742597Y-51195397D02*
X107837835Y-51243016D01*
X106790216Y-51957302D02*
X106599740Y-51957302D01*
X106599740Y-51957302D02*
X106504502Y-51909683D01*
X106504502Y-51909683D02*
X106456883Y-51862063D01*
X106456883Y-51862063D02*
X106361645Y-51719206D01*
X106361645Y-51719206D02*
X106314026Y-51528730D01*
X106314026Y-51528730D02*
X106314026Y-51147778D01*
X106314026Y-51147778D02*
X106361645Y-51052540D01*
X106361645Y-51052540D02*
X106409264Y-51004921D01*
X106409264Y-51004921D02*
X106504502Y-50957302D01*
X106504502Y-50957302D02*
X106694978Y-50957302D01*
X106694978Y-50957302D02*
X106790216Y-51004921D01*
X106790216Y-51004921D02*
X106837835Y-51052540D01*
X106837835Y-51052540D02*
X106885454Y-51147778D01*
X106885454Y-51147778D02*
X106885454Y-51385873D01*
X106885454Y-51385873D02*
X106837835Y-51481111D01*
X106837835Y-51481111D02*
X106790216Y-51528730D01*
X106790216Y-51528730D02*
X106694978Y-51576349D01*
X106694978Y-51576349D02*
X106504502Y-51576349D01*
X106504502Y-51576349D02*
X106409264Y-51528730D01*
X106409264Y-51528730D02*
X106361645Y-51481111D01*
X106361645Y-51481111D02*
X106314026Y-51385873D01*
X67083676Y-35602452D02*
X68083676Y-35602452D01*
X68083676Y-35602452D02*
X68083676Y-35364357D01*
X68083676Y-35364357D02*
X68036057Y-35221500D01*
X68036057Y-35221500D02*
X67940819Y-35126262D01*
X67940819Y-35126262D02*
X67845581Y-35078643D01*
X67845581Y-35078643D02*
X67655105Y-35031024D01*
X67655105Y-35031024D02*
X67512248Y-35031024D01*
X67512248Y-35031024D02*
X67321772Y-35078643D01*
X67321772Y-35078643D02*
X67226534Y-35126262D01*
X67226534Y-35126262D02*
X67131296Y-35221500D01*
X67131296Y-35221500D02*
X67083676Y-35364357D01*
X67083676Y-35364357D02*
X67083676Y-35602452D01*
X68083676Y-34173881D02*
X68083676Y-34364357D01*
X68083676Y-34364357D02*
X68036057Y-34459595D01*
X68036057Y-34459595D02*
X67988438Y-34507214D01*
X67988438Y-34507214D02*
X67845581Y-34602452D01*
X67845581Y-34602452D02*
X67655105Y-34650071D01*
X67655105Y-34650071D02*
X67274153Y-34650071D01*
X67274153Y-34650071D02*
X67178915Y-34602452D01*
X67178915Y-34602452D02*
X67131296Y-34554833D01*
X67131296Y-34554833D02*
X67083676Y-34459595D01*
X67083676Y-34459595D02*
X67083676Y-34269119D01*
X67083676Y-34269119D02*
X67131296Y-34173881D01*
X67131296Y-34173881D02*
X67178915Y-34126262D01*
X67178915Y-34126262D02*
X67274153Y-34078643D01*
X67274153Y-34078643D02*
X67512248Y-34078643D01*
X67512248Y-34078643D02*
X67607486Y-34126262D01*
X67607486Y-34126262D02*
X67655105Y-34173881D01*
X67655105Y-34173881D02*
X67702724Y-34269119D01*
X67702724Y-34269119D02*
X67702724Y-34459595D01*
X67702724Y-34459595D02*
X67655105Y-34554833D01*
X67655105Y-34554833D02*
X67607486Y-34602452D01*
X67607486Y-34602452D02*
X67512248Y-34650071D01*
X102759999Y-33582256D02*
X102617142Y-33629875D01*
X102617142Y-33629875D02*
X102379047Y-33629875D01*
X102379047Y-33629875D02*
X102283809Y-33582256D01*
X102283809Y-33582256D02*
X102236190Y-33534636D01*
X102236190Y-33534636D02*
X102188571Y-33439398D01*
X102188571Y-33439398D02*
X102188571Y-33344160D01*
X102188571Y-33344160D02*
X102236190Y-33248922D01*
X102236190Y-33248922D02*
X102283809Y-33201303D01*
X102283809Y-33201303D02*
X102379047Y-33153684D01*
X102379047Y-33153684D02*
X102569523Y-33106065D01*
X102569523Y-33106065D02*
X102664761Y-33058446D01*
X102664761Y-33058446D02*
X102712380Y-33010827D01*
X102712380Y-33010827D02*
X102759999Y-32915589D01*
X102759999Y-32915589D02*
X102759999Y-32820351D01*
X102759999Y-32820351D02*
X102712380Y-32725113D01*
X102712380Y-32725113D02*
X102664761Y-32677494D01*
X102664761Y-32677494D02*
X102569523Y-32629875D01*
X102569523Y-32629875D02*
X102331428Y-32629875D01*
X102331428Y-32629875D02*
X102188571Y-32677494D01*
X101855237Y-32629875D02*
X101617142Y-33629875D01*
X101617142Y-33629875D02*
X101426666Y-32915589D01*
X101426666Y-32915589D02*
X101236190Y-33629875D01*
X101236190Y-33629875D02*
X100998095Y-32629875D01*
X100617142Y-33629875D02*
X100617142Y-32629875D01*
X100283809Y-32629875D02*
X99712381Y-32629875D01*
X99998095Y-33629875D02*
X99998095Y-32629875D01*
X98807619Y-33534636D02*
X98855238Y-33582256D01*
X98855238Y-33582256D02*
X98998095Y-33629875D01*
X98998095Y-33629875D02*
X99093333Y-33629875D01*
X99093333Y-33629875D02*
X99236190Y-33582256D01*
X99236190Y-33582256D02*
X99331428Y-33487017D01*
X99331428Y-33487017D02*
X99379047Y-33391779D01*
X99379047Y-33391779D02*
X99426666Y-33201303D01*
X99426666Y-33201303D02*
X99426666Y-33058446D01*
X99426666Y-33058446D02*
X99379047Y-32867970D01*
X99379047Y-32867970D02*
X99331428Y-32772732D01*
X99331428Y-32772732D02*
X99236190Y-32677494D01*
X99236190Y-32677494D02*
X99093333Y-32629875D01*
X99093333Y-32629875D02*
X98998095Y-32629875D01*
X98998095Y-32629875D02*
X98855238Y-32677494D01*
X98855238Y-32677494D02*
X98807619Y-32725113D01*
X98379047Y-33629875D02*
X98379047Y-32629875D01*
X98379047Y-33106065D02*
X97807619Y-33106065D01*
X97807619Y-33629875D02*
X97807619Y-32629875D01*
X102498095Y-34716009D02*
X102355238Y-34763628D01*
X102355238Y-34763628D02*
X102307619Y-34811247D01*
X102307619Y-34811247D02*
X102260000Y-34906485D01*
X102260000Y-34906485D02*
X102260000Y-35049342D01*
X102260000Y-35049342D02*
X102307619Y-35144580D01*
X102307619Y-35144580D02*
X102355238Y-35192200D01*
X102355238Y-35192200D02*
X102450476Y-35239819D01*
X102450476Y-35239819D02*
X102831428Y-35239819D01*
X102831428Y-35239819D02*
X102831428Y-34239819D01*
X102831428Y-34239819D02*
X102498095Y-34239819D01*
X102498095Y-34239819D02*
X102402857Y-34287438D01*
X102402857Y-34287438D02*
X102355238Y-34335057D01*
X102355238Y-34335057D02*
X102307619Y-34430295D01*
X102307619Y-34430295D02*
X102307619Y-34525533D01*
X102307619Y-34525533D02*
X102355238Y-34620771D01*
X102355238Y-34620771D02*
X102402857Y-34668390D01*
X102402857Y-34668390D02*
X102498095Y-34716009D01*
X102498095Y-34716009D02*
X102831428Y-34716009D01*
X101640952Y-34763628D02*
X101640952Y-35239819D01*
X101974285Y-34239819D02*
X101640952Y-34763628D01*
X101640952Y-34763628D02*
X101307619Y-34239819D01*
X100974285Y-35239819D02*
X100974285Y-34239819D01*
X100974285Y-34239819D02*
X100593333Y-34239819D01*
X100593333Y-34239819D02*
X100498095Y-34287438D01*
X100498095Y-34287438D02*
X100450476Y-34335057D01*
X100450476Y-34335057D02*
X100402857Y-34430295D01*
X100402857Y-34430295D02*
X100402857Y-34573152D01*
X100402857Y-34573152D02*
X100450476Y-34668390D01*
X100450476Y-34668390D02*
X100498095Y-34716009D01*
X100498095Y-34716009D02*
X100593333Y-34763628D01*
X100593333Y-34763628D02*
X100974285Y-34763628D01*
X100021904Y-34954104D02*
X99545714Y-34954104D01*
X100117142Y-35239819D02*
X99783809Y-34239819D01*
X99783809Y-34239819D02*
X99450476Y-35239819D01*
X99164761Y-35192200D02*
X99021904Y-35239819D01*
X99021904Y-35239819D02*
X98783809Y-35239819D01*
X98783809Y-35239819D02*
X98688571Y-35192200D01*
X98688571Y-35192200D02*
X98640952Y-35144580D01*
X98640952Y-35144580D02*
X98593333Y-35049342D01*
X98593333Y-35049342D02*
X98593333Y-34954104D01*
X98593333Y-34954104D02*
X98640952Y-34858866D01*
X98640952Y-34858866D02*
X98688571Y-34811247D01*
X98688571Y-34811247D02*
X98783809Y-34763628D01*
X98783809Y-34763628D02*
X98974285Y-34716009D01*
X98974285Y-34716009D02*
X99069523Y-34668390D01*
X99069523Y-34668390D02*
X99117142Y-34620771D01*
X99117142Y-34620771D02*
X99164761Y-34525533D01*
X99164761Y-34525533D02*
X99164761Y-34430295D01*
X99164761Y-34430295D02*
X99117142Y-34335057D01*
X99117142Y-34335057D02*
X99069523Y-34287438D01*
X99069523Y-34287438D02*
X98974285Y-34239819D01*
X98974285Y-34239819D02*
X98736190Y-34239819D01*
X98736190Y-34239819D02*
X98593333Y-34287438D01*
X98212380Y-35192200D02*
X98069523Y-35239819D01*
X98069523Y-35239819D02*
X97831428Y-35239819D01*
X97831428Y-35239819D02*
X97736190Y-35192200D01*
X97736190Y-35192200D02*
X97688571Y-35144580D01*
X97688571Y-35144580D02*
X97640952Y-35049342D01*
X97640952Y-35049342D02*
X97640952Y-34954104D01*
X97640952Y-34954104D02*
X97688571Y-34858866D01*
X97688571Y-34858866D02*
X97736190Y-34811247D01*
X97736190Y-34811247D02*
X97831428Y-34763628D01*
X97831428Y-34763628D02*
X98021904Y-34716009D01*
X98021904Y-34716009D02*
X98117142Y-34668390D01*
X98117142Y-34668390D02*
X98164761Y-34620771D01*
X98164761Y-34620771D02*
X98212380Y-34525533D01*
X98212380Y-34525533D02*
X98212380Y-34430295D01*
X98212380Y-34430295D02*
X98164761Y-34335057D01*
X98164761Y-34335057D02*
X98117142Y-34287438D01*
X98117142Y-34287438D02*
X98021904Y-34239819D01*
X98021904Y-34239819D02*
X97783809Y-34239819D01*
X97783809Y-34239819D02*
X97640952Y-34287438D01*
X80783676Y-26114941D02*
X80783676Y-25495894D01*
X80783676Y-25495894D02*
X80402724Y-25829227D01*
X80402724Y-25829227D02*
X80402724Y-25686370D01*
X80402724Y-25686370D02*
X80355105Y-25591132D01*
X80355105Y-25591132D02*
X80307486Y-25543513D01*
X80307486Y-25543513D02*
X80212248Y-25495894D01*
X80212248Y-25495894D02*
X79974153Y-25495894D01*
X79974153Y-25495894D02*
X79878915Y-25543513D01*
X79878915Y-25543513D02*
X79831296Y-25591132D01*
X79831296Y-25591132D02*
X79783676Y-25686370D01*
X79783676Y-25686370D02*
X79783676Y-25972084D01*
X79783676Y-25972084D02*
X79831296Y-26067322D01*
X79831296Y-26067322D02*
X79878915Y-26114941D01*
X79878915Y-25067322D02*
X79831296Y-25019703D01*
X79831296Y-25019703D02*
X79783676Y-25067322D01*
X79783676Y-25067322D02*
X79831296Y-25114941D01*
X79831296Y-25114941D02*
X79878915Y-25067322D01*
X79878915Y-25067322D02*
X79783676Y-25067322D01*
X80783676Y-24686370D02*
X80783676Y-24067323D01*
X80783676Y-24067323D02*
X80402724Y-24400656D01*
X80402724Y-24400656D02*
X80402724Y-24257799D01*
X80402724Y-24257799D02*
X80355105Y-24162561D01*
X80355105Y-24162561D02*
X80307486Y-24114942D01*
X80307486Y-24114942D02*
X80212248Y-24067323D01*
X80212248Y-24067323D02*
X79974153Y-24067323D01*
X79974153Y-24067323D02*
X79878915Y-24114942D01*
X79878915Y-24114942D02*
X79831296Y-24162561D01*
X79831296Y-24162561D02*
X79783676Y-24257799D01*
X79783676Y-24257799D02*
X79783676Y-24543513D01*
X79783676Y-24543513D02*
X79831296Y-24638751D01*
X79831296Y-24638751D02*
X79878915Y-24686370D01*
X80783676Y-23781608D02*
X79783676Y-23448275D01*
X79783676Y-23448275D02*
X80783676Y-23114942D01*
X82347176Y-26718275D02*
X82823367Y-27051608D01*
X82347176Y-27289703D02*
X83347176Y-27289703D01*
X83347176Y-27289703D02*
X83347176Y-26908751D01*
X83347176Y-26908751D02*
X83299557Y-26813513D01*
X83299557Y-26813513D02*
X83251938Y-26765894D01*
X83251938Y-26765894D02*
X83156700Y-26718275D01*
X83156700Y-26718275D02*
X83013843Y-26718275D01*
X83013843Y-26718275D02*
X82918605Y-26765894D01*
X82918605Y-26765894D02*
X82870986Y-26813513D01*
X82870986Y-26813513D02*
X82823367Y-26908751D01*
X82823367Y-26908751D02*
X82823367Y-27289703D01*
X82870986Y-26289703D02*
X82870986Y-25956370D01*
X82347176Y-25813513D02*
X82347176Y-26289703D01*
X82347176Y-26289703D02*
X83347176Y-26289703D01*
X83347176Y-26289703D02*
X83347176Y-25813513D01*
X82394796Y-25432560D02*
X82347176Y-25289703D01*
X82347176Y-25289703D02*
X82347176Y-25051608D01*
X82347176Y-25051608D02*
X82394796Y-24956370D01*
X82394796Y-24956370D02*
X82442415Y-24908751D01*
X82442415Y-24908751D02*
X82537653Y-24861132D01*
X82537653Y-24861132D02*
X82632891Y-24861132D01*
X82632891Y-24861132D02*
X82728129Y-24908751D01*
X82728129Y-24908751D02*
X82775748Y-24956370D01*
X82775748Y-24956370D02*
X82823367Y-25051608D01*
X82823367Y-25051608D02*
X82870986Y-25242084D01*
X82870986Y-25242084D02*
X82918605Y-25337322D01*
X82918605Y-25337322D02*
X82966224Y-25384941D01*
X82966224Y-25384941D02*
X83061462Y-25432560D01*
X83061462Y-25432560D02*
X83156700Y-25432560D01*
X83156700Y-25432560D02*
X83251938Y-25384941D01*
X83251938Y-25384941D02*
X83299557Y-25337322D01*
X83299557Y-25337322D02*
X83347176Y-25242084D01*
X83347176Y-25242084D02*
X83347176Y-25003989D01*
X83347176Y-25003989D02*
X83299557Y-24861132D01*
X82870986Y-24432560D02*
X82870986Y-24099227D01*
X82347176Y-23956370D02*
X82347176Y-24432560D01*
X82347176Y-24432560D02*
X83347176Y-24432560D01*
X83347176Y-24432560D02*
X83347176Y-23956370D01*
X83347176Y-23670655D02*
X83347176Y-23099227D01*
X82347176Y-23384941D02*
X83347176Y-23384941D01*
X83299557Y-35090881D02*
X83347176Y-35186119D01*
X83347176Y-35186119D02*
X83347176Y-35328976D01*
X83347176Y-35328976D02*
X83299557Y-35471833D01*
X83299557Y-35471833D02*
X83204319Y-35567071D01*
X83204319Y-35567071D02*
X83109081Y-35614690D01*
X83109081Y-35614690D02*
X82918605Y-35662309D01*
X82918605Y-35662309D02*
X82775748Y-35662309D01*
X82775748Y-35662309D02*
X82585272Y-35614690D01*
X82585272Y-35614690D02*
X82490034Y-35567071D01*
X82490034Y-35567071D02*
X82394796Y-35471833D01*
X82394796Y-35471833D02*
X82347176Y-35328976D01*
X82347176Y-35328976D02*
X82347176Y-35233738D01*
X82347176Y-35233738D02*
X82394796Y-35090881D01*
X82394796Y-35090881D02*
X82442415Y-35043262D01*
X82442415Y-35043262D02*
X82775748Y-35043262D01*
X82775748Y-35043262D02*
X82775748Y-35233738D01*
X82347176Y-34614690D02*
X83347176Y-34614690D01*
X83347176Y-34614690D02*
X82347176Y-34043262D01*
X82347176Y-34043262D02*
X83347176Y-34043262D01*
X82347176Y-33567071D02*
X83347176Y-33567071D01*
X83347176Y-33567071D02*
X83347176Y-33328976D01*
X83347176Y-33328976D02*
X83299557Y-33186119D01*
X83299557Y-33186119D02*
X83204319Y-33090881D01*
X83204319Y-33090881D02*
X83109081Y-33043262D01*
X83109081Y-33043262D02*
X82918605Y-32995643D01*
X82918605Y-32995643D02*
X82775748Y-32995643D01*
X82775748Y-32995643D02*
X82585272Y-33043262D01*
X82585272Y-33043262D02*
X82490034Y-33090881D01*
X82490034Y-33090881D02*
X82394796Y-33186119D01*
X82394796Y-33186119D02*
X82347176Y-33328976D01*
X82347176Y-33328976D02*
X82347176Y-33567071D01*
X77223676Y-25511703D02*
X78223676Y-25511703D01*
X78223676Y-25511703D02*
X78223676Y-25273608D01*
X78223676Y-25273608D02*
X78176057Y-25130751D01*
X78176057Y-25130751D02*
X78080819Y-25035513D01*
X78080819Y-25035513D02*
X77985581Y-24987894D01*
X77985581Y-24987894D02*
X77795105Y-24940275D01*
X77795105Y-24940275D02*
X77652248Y-24940275D01*
X77652248Y-24940275D02*
X77461772Y-24987894D01*
X77461772Y-24987894D02*
X77366534Y-25035513D01*
X77366534Y-25035513D02*
X77271296Y-25130751D01*
X77271296Y-25130751D02*
X77223676Y-25273608D01*
X77223676Y-25273608D02*
X77223676Y-25511703D01*
X78128438Y-24559322D02*
X78176057Y-24511703D01*
X78176057Y-24511703D02*
X78223676Y-24416465D01*
X78223676Y-24416465D02*
X78223676Y-24178370D01*
X78223676Y-24178370D02*
X78176057Y-24083132D01*
X78176057Y-24083132D02*
X78128438Y-24035513D01*
X78128438Y-24035513D02*
X78033200Y-23987894D01*
X78033200Y-23987894D02*
X77937962Y-23987894D01*
X77937962Y-23987894D02*
X77795105Y-24035513D01*
X77795105Y-24035513D02*
X77223676Y-24606941D01*
X77223676Y-24606941D02*
X77223676Y-23987894D01*
X77223676Y-23035513D02*
X77223676Y-23606941D01*
X77223676Y-23321227D02*
X78223676Y-23321227D01*
X78223676Y-23321227D02*
X78080819Y-23416465D01*
X78080819Y-23416465D02*
X77985581Y-23511703D01*
X77985581Y-23511703D02*
X77937962Y-23606941D01*
X64583676Y-35602452D02*
X65583676Y-35602452D01*
X65583676Y-35602452D02*
X65583676Y-35364357D01*
X65583676Y-35364357D02*
X65536057Y-35221500D01*
X65536057Y-35221500D02*
X65440819Y-35126262D01*
X65440819Y-35126262D02*
X65345581Y-35078643D01*
X65345581Y-35078643D02*
X65155105Y-35031024D01*
X65155105Y-35031024D02*
X65012248Y-35031024D01*
X65012248Y-35031024D02*
X64821772Y-35078643D01*
X64821772Y-35078643D02*
X64726534Y-35126262D01*
X64726534Y-35126262D02*
X64631296Y-35221500D01*
X64631296Y-35221500D02*
X64583676Y-35364357D01*
X64583676Y-35364357D02*
X64583676Y-35602452D01*
X65583676Y-34697690D02*
X65583676Y-34031024D01*
X65583676Y-34031024D02*
X64583676Y-34459595D01*
X74683676Y-25511703D02*
X75683676Y-25511703D01*
X75683676Y-25511703D02*
X75683676Y-25273608D01*
X75683676Y-25273608D02*
X75636057Y-25130751D01*
X75636057Y-25130751D02*
X75540819Y-25035513D01*
X75540819Y-25035513D02*
X75445581Y-24987894D01*
X75445581Y-24987894D02*
X75255105Y-24940275D01*
X75255105Y-24940275D02*
X75112248Y-24940275D01*
X75112248Y-24940275D02*
X74921772Y-24987894D01*
X74921772Y-24987894D02*
X74826534Y-25035513D01*
X74826534Y-25035513D02*
X74731296Y-25130751D01*
X74731296Y-25130751D02*
X74683676Y-25273608D01*
X74683676Y-25273608D02*
X74683676Y-25511703D01*
X75588438Y-24559322D02*
X75636057Y-24511703D01*
X75636057Y-24511703D02*
X75683676Y-24416465D01*
X75683676Y-24416465D02*
X75683676Y-24178370D01*
X75683676Y-24178370D02*
X75636057Y-24083132D01*
X75636057Y-24083132D02*
X75588438Y-24035513D01*
X75588438Y-24035513D02*
X75493200Y-23987894D01*
X75493200Y-23987894D02*
X75397962Y-23987894D01*
X75397962Y-23987894D02*
X75255105Y-24035513D01*
X75255105Y-24035513D02*
X74683676Y-24606941D01*
X74683676Y-24606941D02*
X74683676Y-23987894D01*
X75683676Y-23368846D02*
X75683676Y-23273608D01*
X75683676Y-23273608D02*
X75636057Y-23178370D01*
X75636057Y-23178370D02*
X75588438Y-23130751D01*
X75588438Y-23130751D02*
X75493200Y-23083132D01*
X75493200Y-23083132D02*
X75302724Y-23035513D01*
X75302724Y-23035513D02*
X75064629Y-23035513D01*
X75064629Y-23035513D02*
X74874153Y-23083132D01*
X74874153Y-23083132D02*
X74778915Y-23130751D01*
X74778915Y-23130751D02*
X74731296Y-23178370D01*
X74731296Y-23178370D02*
X74683676Y-23273608D01*
X74683676Y-23273608D02*
X74683676Y-23368846D01*
X74683676Y-23368846D02*
X74731296Y-23464084D01*
X74731296Y-23464084D02*
X74778915Y-23511703D01*
X74778915Y-23511703D02*
X74874153Y-23559322D01*
X74874153Y-23559322D02*
X75064629Y-23606941D01*
X75064629Y-23606941D02*
X75302724Y-23606941D01*
X75302724Y-23606941D02*
X75493200Y-23559322D01*
X75493200Y-23559322D02*
X75588438Y-23511703D01*
X75588438Y-23511703D02*
X75636057Y-23464084D01*
X75636057Y-23464084D02*
X75683676Y-23368846D01*
X114856669Y-76226002D02*
X114856669Y-75226002D01*
X114856669Y-75226002D02*
X114618574Y-75226002D01*
X114618574Y-75226002D02*
X114475717Y-75273621D01*
X114475717Y-75273621D02*
X114380479Y-75368859D01*
X114380479Y-75368859D02*
X114332860Y-75464097D01*
X114332860Y-75464097D02*
X114285241Y-75654573D01*
X114285241Y-75654573D02*
X114285241Y-75797430D01*
X114285241Y-75797430D02*
X114332860Y-75987906D01*
X114332860Y-75987906D02*
X114380479Y-76083144D01*
X114380479Y-76083144D02*
X114475717Y-76178383D01*
X114475717Y-76178383D02*
X114618574Y-76226002D01*
X114618574Y-76226002D02*
X114856669Y-76226002D01*
X113951907Y-75226002D02*
X113332860Y-75226002D01*
X113332860Y-75226002D02*
X113666193Y-75606954D01*
X113666193Y-75606954D02*
X113523336Y-75606954D01*
X113523336Y-75606954D02*
X113428098Y-75654573D01*
X113428098Y-75654573D02*
X113380479Y-75702192D01*
X113380479Y-75702192D02*
X113332860Y-75797430D01*
X113332860Y-75797430D02*
X113332860Y-76035525D01*
X113332860Y-76035525D02*
X113380479Y-76130763D01*
X113380479Y-76130763D02*
X113428098Y-76178383D01*
X113428098Y-76178383D02*
X113523336Y-76226002D01*
X113523336Y-76226002D02*
X113809050Y-76226002D01*
X113809050Y-76226002D02*
X113904288Y-76178383D01*
X113904288Y-76178383D02*
X113951907Y-76130763D01*
X112904288Y-75845049D02*
X112142384Y-75845049D01*
X111666193Y-76226002D02*
X111666193Y-75226002D01*
X111666193Y-75226002D02*
X111428098Y-75226002D01*
X111428098Y-75226002D02*
X111285241Y-75273621D01*
X111285241Y-75273621D02*
X111190003Y-75368859D01*
X111190003Y-75368859D02*
X111142384Y-75464097D01*
X111142384Y-75464097D02*
X111094765Y-75654573D01*
X111094765Y-75654573D02*
X111094765Y-75797430D01*
X111094765Y-75797430D02*
X111142384Y-75987906D01*
X111142384Y-75987906D02*
X111190003Y-76083144D01*
X111190003Y-76083144D02*
X111285241Y-76178383D01*
X111285241Y-76178383D02*
X111428098Y-76226002D01*
X111428098Y-76226002D02*
X111666193Y-76226002D01*
X110713812Y-75321240D02*
X110666193Y-75273621D01*
X110666193Y-75273621D02*
X110570955Y-75226002D01*
X110570955Y-75226002D02*
X110332860Y-75226002D01*
X110332860Y-75226002D02*
X110237622Y-75273621D01*
X110237622Y-75273621D02*
X110190003Y-75321240D01*
X110190003Y-75321240D02*
X110142384Y-75416478D01*
X110142384Y-75416478D02*
X110142384Y-75511716D01*
X110142384Y-75511716D02*
X110190003Y-75654573D01*
X110190003Y-75654573D02*
X110761431Y-76226002D01*
X110761431Y-76226002D02*
X110142384Y-76226002D01*
X109190003Y-76226002D02*
X109761431Y-76226002D01*
X109475717Y-76226002D02*
X109475717Y-75226002D01*
X109475717Y-75226002D02*
X109570955Y-75368859D01*
X109570955Y-75368859D02*
X109666193Y-75464097D01*
X109666193Y-75464097D02*
X109761431Y-75511716D01*
X76756669Y-114326002D02*
X76756669Y-113326002D01*
X76756669Y-113326002D02*
X76518574Y-113326002D01*
X76518574Y-113326002D02*
X76375717Y-113373621D01*
X76375717Y-113373621D02*
X76280479Y-113468859D01*
X76280479Y-113468859D02*
X76232860Y-113564097D01*
X76232860Y-113564097D02*
X76185241Y-113754573D01*
X76185241Y-113754573D02*
X76185241Y-113897430D01*
X76185241Y-113897430D02*
X76232860Y-114087906D01*
X76232860Y-114087906D02*
X76280479Y-114183144D01*
X76280479Y-114183144D02*
X76375717Y-114278383D01*
X76375717Y-114278383D02*
X76518574Y-114326002D01*
X76518574Y-114326002D02*
X76756669Y-114326002D01*
X75280479Y-113326002D02*
X75756669Y-113326002D01*
X75756669Y-113326002D02*
X75804288Y-113802192D01*
X75804288Y-113802192D02*
X75756669Y-113754573D01*
X75756669Y-113754573D02*
X75661431Y-113706954D01*
X75661431Y-113706954D02*
X75423336Y-113706954D01*
X75423336Y-113706954D02*
X75328098Y-113754573D01*
X75328098Y-113754573D02*
X75280479Y-113802192D01*
X75280479Y-113802192D02*
X75232860Y-113897430D01*
X75232860Y-113897430D02*
X75232860Y-114135525D01*
X75232860Y-114135525D02*
X75280479Y-114230763D01*
X75280479Y-114230763D02*
X75328098Y-114278383D01*
X75328098Y-114278383D02*
X75423336Y-114326002D01*
X75423336Y-114326002D02*
X75661431Y-114326002D01*
X75661431Y-114326002D02*
X75756669Y-114278383D01*
X75756669Y-114278383D02*
X75804288Y-114230763D01*
X74804288Y-113945049D02*
X74042384Y-113945049D01*
X73566193Y-114326002D02*
X73566193Y-113326002D01*
X73566193Y-113326002D02*
X73328098Y-113326002D01*
X73328098Y-113326002D02*
X73185241Y-113373621D01*
X73185241Y-113373621D02*
X73090003Y-113468859D01*
X73090003Y-113468859D02*
X73042384Y-113564097D01*
X73042384Y-113564097D02*
X72994765Y-113754573D01*
X72994765Y-113754573D02*
X72994765Y-113897430D01*
X72994765Y-113897430D02*
X73042384Y-114087906D01*
X73042384Y-114087906D02*
X73090003Y-114183144D01*
X73090003Y-114183144D02*
X73185241Y-114278383D01*
X73185241Y-114278383D02*
X73328098Y-114326002D01*
X73328098Y-114326002D02*
X73566193Y-114326002D01*
X72042384Y-114326002D02*
X72613812Y-114326002D01*
X72328098Y-114326002D02*
X72328098Y-113326002D01*
X72328098Y-113326002D02*
X72423336Y-113468859D01*
X72423336Y-113468859D02*
X72518574Y-113564097D01*
X72518574Y-113564097D02*
X72613812Y-113611716D01*
X71137622Y-113326002D02*
X71613812Y-113326002D01*
X71613812Y-113326002D02*
X71661431Y-113802192D01*
X71661431Y-113802192D02*
X71613812Y-113754573D01*
X71613812Y-113754573D02*
X71518574Y-113706954D01*
X71518574Y-113706954D02*
X71280479Y-113706954D01*
X71280479Y-113706954D02*
X71185241Y-113754573D01*
X71185241Y-113754573D02*
X71137622Y-113802192D01*
X71137622Y-113802192D02*
X71090003Y-113897430D01*
X71090003Y-113897430D02*
X71090003Y-114135525D01*
X71090003Y-114135525D02*
X71137622Y-114230763D01*
X71137622Y-114230763D02*
X71185241Y-114278383D01*
X71185241Y-114278383D02*
X71280479Y-114326002D01*
X71280479Y-114326002D02*
X71518574Y-114326002D01*
X71518574Y-114326002D02*
X71613812Y-114278383D01*
X71613812Y-114278383D02*
X71661431Y-114230763D01*
X38656669Y-76226004D02*
X38656669Y-75226004D01*
X38656669Y-75226004D02*
X38418574Y-75226004D01*
X38418574Y-75226004D02*
X38275717Y-75273623D01*
X38275717Y-75273623D02*
X38180479Y-75368861D01*
X38180479Y-75368861D02*
X38132860Y-75464099D01*
X38132860Y-75464099D02*
X38085241Y-75654575D01*
X38085241Y-75654575D02*
X38085241Y-75797432D01*
X38085241Y-75797432D02*
X38132860Y-75987908D01*
X38132860Y-75987908D02*
X38180479Y-76083146D01*
X38180479Y-76083146D02*
X38275717Y-76178385D01*
X38275717Y-76178385D02*
X38418574Y-76226004D01*
X38418574Y-76226004D02*
X38656669Y-76226004D01*
X37751907Y-75226004D02*
X37132860Y-75226004D01*
X37132860Y-75226004D02*
X37466193Y-75606956D01*
X37466193Y-75606956D02*
X37323336Y-75606956D01*
X37323336Y-75606956D02*
X37228098Y-75654575D01*
X37228098Y-75654575D02*
X37180479Y-75702194D01*
X37180479Y-75702194D02*
X37132860Y-75797432D01*
X37132860Y-75797432D02*
X37132860Y-76035527D01*
X37132860Y-76035527D02*
X37180479Y-76130765D01*
X37180479Y-76130765D02*
X37228098Y-76178385D01*
X37228098Y-76178385D02*
X37323336Y-76226004D01*
X37323336Y-76226004D02*
X37609050Y-76226004D01*
X37609050Y-76226004D02*
X37704288Y-76178385D01*
X37704288Y-76178385D02*
X37751907Y-76130765D01*
X36704288Y-75845051D02*
X35942384Y-75845051D01*
X35466193Y-76226004D02*
X35466193Y-75226004D01*
X35466193Y-75226004D02*
X35228098Y-75226004D01*
X35228098Y-75226004D02*
X35085241Y-75273623D01*
X35085241Y-75273623D02*
X34990003Y-75368861D01*
X34990003Y-75368861D02*
X34942384Y-75464099D01*
X34942384Y-75464099D02*
X34894765Y-75654575D01*
X34894765Y-75654575D02*
X34894765Y-75797432D01*
X34894765Y-75797432D02*
X34942384Y-75987908D01*
X34942384Y-75987908D02*
X34990003Y-76083146D01*
X34990003Y-76083146D02*
X35085241Y-76178385D01*
X35085241Y-76178385D02*
X35228098Y-76226004D01*
X35228098Y-76226004D02*
X35466193Y-76226004D01*
X33942384Y-76226004D02*
X34513812Y-76226004D01*
X34228098Y-76226004D02*
X34228098Y-75226004D01*
X34228098Y-75226004D02*
X34323336Y-75368861D01*
X34323336Y-75368861D02*
X34418574Y-75464099D01*
X34418574Y-75464099D02*
X34513812Y-75511718D01*
X33085241Y-75559337D02*
X33085241Y-76226004D01*
X33323336Y-75178385D02*
X33561431Y-75892670D01*
X33561431Y-75892670D02*
X32942384Y-75892670D01*
X48267669Y-133428004D02*
X48267669Y-132428004D01*
X48267669Y-132428004D02*
X48029574Y-132428004D01*
X48029574Y-132428004D02*
X47886717Y-132475623D01*
X47886717Y-132475623D02*
X47791479Y-132570861D01*
X47791479Y-132570861D02*
X47743860Y-132666099D01*
X47743860Y-132666099D02*
X47696241Y-132856575D01*
X47696241Y-132856575D02*
X47696241Y-132999432D01*
X47696241Y-132999432D02*
X47743860Y-133189908D01*
X47743860Y-133189908D02*
X47791479Y-133285146D01*
X47791479Y-133285146D02*
X47886717Y-133380385D01*
X47886717Y-133380385D02*
X48029574Y-133428004D01*
X48029574Y-133428004D02*
X48267669Y-133428004D01*
X46839098Y-132428004D02*
X47029574Y-132428004D01*
X47029574Y-132428004D02*
X47124812Y-132475623D01*
X47124812Y-132475623D02*
X47172431Y-132523242D01*
X47172431Y-132523242D02*
X47267669Y-132666099D01*
X47267669Y-132666099D02*
X47315288Y-132856575D01*
X47315288Y-132856575D02*
X47315288Y-133237527D01*
X47315288Y-133237527D02*
X47267669Y-133332765D01*
X47267669Y-133332765D02*
X47220050Y-133380385D01*
X47220050Y-133380385D02*
X47124812Y-133428004D01*
X47124812Y-133428004D02*
X46934336Y-133428004D01*
X46934336Y-133428004D02*
X46839098Y-133380385D01*
X46839098Y-133380385D02*
X46791479Y-133332765D01*
X46791479Y-133332765D02*
X46743860Y-133237527D01*
X46743860Y-133237527D02*
X46743860Y-132999432D01*
X46743860Y-132999432D02*
X46791479Y-132904194D01*
X46791479Y-132904194D02*
X46839098Y-132856575D01*
X46839098Y-132856575D02*
X46934336Y-132808956D01*
X46934336Y-132808956D02*
X47124812Y-132808956D01*
X47124812Y-132808956D02*
X47220050Y-132856575D01*
X47220050Y-132856575D02*
X47267669Y-132904194D01*
X47267669Y-132904194D02*
X47315288Y-132999432D01*
X46315288Y-133047051D02*
X45553384Y-133047051D01*
X45077193Y-133428004D02*
X45077193Y-132428004D01*
X45077193Y-132428004D02*
X44839098Y-132428004D01*
X44839098Y-132428004D02*
X44696241Y-132475623D01*
X44696241Y-132475623D02*
X44601003Y-132570861D01*
X44601003Y-132570861D02*
X44553384Y-132666099D01*
X44553384Y-132666099D02*
X44505765Y-132856575D01*
X44505765Y-132856575D02*
X44505765Y-132999432D01*
X44505765Y-132999432D02*
X44553384Y-133189908D01*
X44553384Y-133189908D02*
X44601003Y-133285146D01*
X44601003Y-133285146D02*
X44696241Y-133380385D01*
X44696241Y-133380385D02*
X44839098Y-133428004D01*
X44839098Y-133428004D02*
X45077193Y-133428004D01*
X43553384Y-133428004D02*
X44124812Y-133428004D01*
X43839098Y-133428004D02*
X43839098Y-132428004D01*
X43839098Y-132428004D02*
X43934336Y-132570861D01*
X43934336Y-132570861D02*
X44029574Y-132666099D01*
X44029574Y-132666099D02*
X44124812Y-132713718D01*
X42696241Y-132761337D02*
X42696241Y-133428004D01*
X42934336Y-132380385D02*
X43172431Y-133094670D01*
X43172431Y-133094670D02*
X42553384Y-133094670D01*
X76776319Y-95587702D02*
X76776319Y-94587702D01*
X76776319Y-94587702D02*
X76538224Y-94587702D01*
X76538224Y-94587702D02*
X76395367Y-94635321D01*
X76395367Y-94635321D02*
X76300129Y-94730559D01*
X76300129Y-94730559D02*
X76252510Y-94825797D01*
X76252510Y-94825797D02*
X76204891Y-95016273D01*
X76204891Y-95016273D02*
X76204891Y-95159130D01*
X76204891Y-95159130D02*
X76252510Y-95349606D01*
X76252510Y-95349606D02*
X76300129Y-95444844D01*
X76300129Y-95444844D02*
X76395367Y-95540083D01*
X76395367Y-95540083D02*
X76538224Y-95587702D01*
X76538224Y-95587702D02*
X76776319Y-95587702D01*
X75347748Y-94921035D02*
X75347748Y-95587702D01*
X75585843Y-94540083D02*
X75823938Y-95254368D01*
X75823938Y-95254368D02*
X75204891Y-95254368D01*
X74823938Y-95206749D02*
X74062034Y-95206749D01*
X73585843Y-95587702D02*
X73585843Y-94587702D01*
X73585843Y-94587702D02*
X73347748Y-94587702D01*
X73347748Y-94587702D02*
X73204891Y-94635321D01*
X73204891Y-94635321D02*
X73109653Y-94730559D01*
X73109653Y-94730559D02*
X73062034Y-94825797D01*
X73062034Y-94825797D02*
X73014415Y-95016273D01*
X73014415Y-95016273D02*
X73014415Y-95159130D01*
X73014415Y-95159130D02*
X73062034Y-95349606D01*
X73062034Y-95349606D02*
X73109653Y-95444844D01*
X73109653Y-95444844D02*
X73204891Y-95540083D01*
X73204891Y-95540083D02*
X73347748Y-95587702D01*
X73347748Y-95587702D02*
X73585843Y-95587702D01*
X72062034Y-95587702D02*
X72633462Y-95587702D01*
X72347748Y-95587702D02*
X72347748Y-94587702D01*
X72347748Y-94587702D02*
X72442986Y-94730559D01*
X72442986Y-94730559D02*
X72538224Y-94825797D01*
X72538224Y-94825797D02*
X72633462Y-94873416D01*
X71157272Y-94587702D02*
X71633462Y-94587702D01*
X71633462Y-94587702D02*
X71681081Y-95063892D01*
X71681081Y-95063892D02*
X71633462Y-95016273D01*
X71633462Y-95016273D02*
X71538224Y-94968654D01*
X71538224Y-94968654D02*
X71300129Y-94968654D01*
X71300129Y-94968654D02*
X71204891Y-95016273D01*
X71204891Y-95016273D02*
X71157272Y-95063892D01*
X71157272Y-95063892D02*
X71109653Y-95159130D01*
X71109653Y-95159130D02*
X71109653Y-95397225D01*
X71109653Y-95397225D02*
X71157272Y-95492463D01*
X71157272Y-95492463D02*
X71204891Y-95540083D01*
X71204891Y-95540083D02*
X71300129Y-95587702D01*
X71300129Y-95587702D02*
X71538224Y-95587702D01*
X71538224Y-95587702D02*
X71633462Y-95540083D01*
X71633462Y-95540083D02*
X71681081Y-95492463D01*
X38656669Y-114326004D02*
X38656669Y-113326004D01*
X38656669Y-113326004D02*
X38418574Y-113326004D01*
X38418574Y-113326004D02*
X38275717Y-113373623D01*
X38275717Y-113373623D02*
X38180479Y-113468861D01*
X38180479Y-113468861D02*
X38132860Y-113564099D01*
X38132860Y-113564099D02*
X38085241Y-113754575D01*
X38085241Y-113754575D02*
X38085241Y-113897432D01*
X38085241Y-113897432D02*
X38132860Y-114087908D01*
X38132860Y-114087908D02*
X38180479Y-114183146D01*
X38180479Y-114183146D02*
X38275717Y-114278385D01*
X38275717Y-114278385D02*
X38418574Y-114326004D01*
X38418574Y-114326004D02*
X38656669Y-114326004D01*
X37180479Y-113326004D02*
X37656669Y-113326004D01*
X37656669Y-113326004D02*
X37704288Y-113802194D01*
X37704288Y-113802194D02*
X37656669Y-113754575D01*
X37656669Y-113754575D02*
X37561431Y-113706956D01*
X37561431Y-113706956D02*
X37323336Y-113706956D01*
X37323336Y-113706956D02*
X37228098Y-113754575D01*
X37228098Y-113754575D02*
X37180479Y-113802194D01*
X37180479Y-113802194D02*
X37132860Y-113897432D01*
X37132860Y-113897432D02*
X37132860Y-114135527D01*
X37132860Y-114135527D02*
X37180479Y-114230765D01*
X37180479Y-114230765D02*
X37228098Y-114278385D01*
X37228098Y-114278385D02*
X37323336Y-114326004D01*
X37323336Y-114326004D02*
X37561431Y-114326004D01*
X37561431Y-114326004D02*
X37656669Y-114278385D01*
X37656669Y-114278385D02*
X37704288Y-114230765D01*
X36704288Y-113945051D02*
X35942384Y-113945051D01*
X35466193Y-114326004D02*
X35466193Y-113326004D01*
X35466193Y-113326004D02*
X35228098Y-113326004D01*
X35228098Y-113326004D02*
X35085241Y-113373623D01*
X35085241Y-113373623D02*
X34990003Y-113468861D01*
X34990003Y-113468861D02*
X34942384Y-113564099D01*
X34942384Y-113564099D02*
X34894765Y-113754575D01*
X34894765Y-113754575D02*
X34894765Y-113897432D01*
X34894765Y-113897432D02*
X34942384Y-114087908D01*
X34942384Y-114087908D02*
X34990003Y-114183146D01*
X34990003Y-114183146D02*
X35085241Y-114278385D01*
X35085241Y-114278385D02*
X35228098Y-114326004D01*
X35228098Y-114326004D02*
X35466193Y-114326004D01*
X33942384Y-114326004D02*
X34513812Y-114326004D01*
X34228098Y-114326004D02*
X34228098Y-113326004D01*
X34228098Y-113326004D02*
X34323336Y-113468861D01*
X34323336Y-113468861D02*
X34418574Y-113564099D01*
X34418574Y-113564099D02*
X34513812Y-113611718D01*
X33085241Y-113659337D02*
X33085241Y-114326004D01*
X33323336Y-113278385D02*
X33561431Y-113992670D01*
X33561431Y-113992670D02*
X32942384Y-113992670D01*
X76284478Y-133368004D02*
X76284478Y-132368004D01*
X76284478Y-132368004D02*
X76046383Y-132368004D01*
X76046383Y-132368004D02*
X75903526Y-132415623D01*
X75903526Y-132415623D02*
X75808288Y-132510861D01*
X75808288Y-132510861D02*
X75760669Y-132606099D01*
X75760669Y-132606099D02*
X75713050Y-132796575D01*
X75713050Y-132796575D02*
X75713050Y-132939432D01*
X75713050Y-132939432D02*
X75760669Y-133129908D01*
X75760669Y-133129908D02*
X75808288Y-133225146D01*
X75808288Y-133225146D02*
X75903526Y-133320385D01*
X75903526Y-133320385D02*
X76046383Y-133368004D01*
X76046383Y-133368004D02*
X76284478Y-133368004D01*
X74855907Y-132368004D02*
X75046383Y-132368004D01*
X75046383Y-132368004D02*
X75141621Y-132415623D01*
X75141621Y-132415623D02*
X75189240Y-132463242D01*
X75189240Y-132463242D02*
X75284478Y-132606099D01*
X75284478Y-132606099D02*
X75332097Y-132796575D01*
X75332097Y-132796575D02*
X75332097Y-133177527D01*
X75332097Y-133177527D02*
X75284478Y-133272765D01*
X75284478Y-133272765D02*
X75236859Y-133320385D01*
X75236859Y-133320385D02*
X75141621Y-133368004D01*
X75141621Y-133368004D02*
X74951145Y-133368004D01*
X74951145Y-133368004D02*
X74855907Y-133320385D01*
X74855907Y-133320385D02*
X74808288Y-133272765D01*
X74808288Y-133272765D02*
X74760669Y-133177527D01*
X74760669Y-133177527D02*
X74760669Y-132939432D01*
X74760669Y-132939432D02*
X74808288Y-132844194D01*
X74808288Y-132844194D02*
X74855907Y-132796575D01*
X74855907Y-132796575D02*
X74951145Y-132748956D01*
X74951145Y-132748956D02*
X75141621Y-132748956D01*
X75141621Y-132748956D02*
X75236859Y-132796575D01*
X75236859Y-132796575D02*
X75284478Y-132844194D01*
X75284478Y-132844194D02*
X75332097Y-132939432D01*
X74332097Y-132987051D02*
X73570193Y-132987051D01*
X73094002Y-133368004D02*
X73094002Y-132368004D01*
X73094002Y-132368004D02*
X72855907Y-132368004D01*
X72855907Y-132368004D02*
X72713050Y-132415623D01*
X72713050Y-132415623D02*
X72617812Y-132510861D01*
X72617812Y-132510861D02*
X72570193Y-132606099D01*
X72570193Y-132606099D02*
X72522574Y-132796575D01*
X72522574Y-132796575D02*
X72522574Y-132939432D01*
X72522574Y-132939432D02*
X72570193Y-133129908D01*
X72570193Y-133129908D02*
X72617812Y-133225146D01*
X72617812Y-133225146D02*
X72713050Y-133320385D01*
X72713050Y-133320385D02*
X72855907Y-133368004D01*
X72855907Y-133368004D02*
X73094002Y-133368004D01*
X72189240Y-132368004D02*
X71522574Y-132368004D01*
X71522574Y-132368004D02*
X71951145Y-133368004D01*
X76756669Y-57176002D02*
X76756669Y-56176002D01*
X76756669Y-56176002D02*
X76518574Y-56176002D01*
X76518574Y-56176002D02*
X76375717Y-56223621D01*
X76375717Y-56223621D02*
X76280479Y-56318859D01*
X76280479Y-56318859D02*
X76232860Y-56414097D01*
X76232860Y-56414097D02*
X76185241Y-56604573D01*
X76185241Y-56604573D02*
X76185241Y-56747430D01*
X76185241Y-56747430D02*
X76232860Y-56937906D01*
X76232860Y-56937906D02*
X76280479Y-57033144D01*
X76280479Y-57033144D02*
X76375717Y-57128383D01*
X76375717Y-57128383D02*
X76518574Y-57176002D01*
X76518574Y-57176002D02*
X76756669Y-57176002D01*
X75804288Y-56271240D02*
X75756669Y-56223621D01*
X75756669Y-56223621D02*
X75661431Y-56176002D01*
X75661431Y-56176002D02*
X75423336Y-56176002D01*
X75423336Y-56176002D02*
X75328098Y-56223621D01*
X75328098Y-56223621D02*
X75280479Y-56271240D01*
X75280479Y-56271240D02*
X75232860Y-56366478D01*
X75232860Y-56366478D02*
X75232860Y-56461716D01*
X75232860Y-56461716D02*
X75280479Y-56604573D01*
X75280479Y-56604573D02*
X75851907Y-57176002D01*
X75851907Y-57176002D02*
X75232860Y-57176002D01*
X74804288Y-56795049D02*
X74042384Y-56795049D01*
X73566193Y-57176002D02*
X73566193Y-56176002D01*
X73566193Y-56176002D02*
X73328098Y-56176002D01*
X73328098Y-56176002D02*
X73185241Y-56223621D01*
X73185241Y-56223621D02*
X73090003Y-56318859D01*
X73090003Y-56318859D02*
X73042384Y-56414097D01*
X73042384Y-56414097D02*
X72994765Y-56604573D01*
X72994765Y-56604573D02*
X72994765Y-56747430D01*
X72994765Y-56747430D02*
X73042384Y-56937906D01*
X73042384Y-56937906D02*
X73090003Y-57033144D01*
X73090003Y-57033144D02*
X73185241Y-57128383D01*
X73185241Y-57128383D02*
X73328098Y-57176002D01*
X73328098Y-57176002D02*
X73566193Y-57176002D01*
X72042384Y-57176002D02*
X72613812Y-57176002D01*
X72328098Y-57176002D02*
X72328098Y-56176002D01*
X72328098Y-56176002D02*
X72423336Y-56318859D01*
X72423336Y-56318859D02*
X72518574Y-56414097D01*
X72518574Y-56414097D02*
X72613812Y-56461716D01*
X71137622Y-56176002D02*
X71613812Y-56176002D01*
X71613812Y-56176002D02*
X71661431Y-56652192D01*
X71661431Y-56652192D02*
X71613812Y-56604573D01*
X71613812Y-56604573D02*
X71518574Y-56556954D01*
X71518574Y-56556954D02*
X71280479Y-56556954D01*
X71280479Y-56556954D02*
X71185241Y-56604573D01*
X71185241Y-56604573D02*
X71137622Y-56652192D01*
X71137622Y-56652192D02*
X71090003Y-56747430D01*
X71090003Y-56747430D02*
X71090003Y-56985525D01*
X71090003Y-56985525D02*
X71137622Y-57080763D01*
X71137622Y-57080763D02*
X71185241Y-57128383D01*
X71185241Y-57128383D02*
X71280479Y-57176002D01*
X71280479Y-57176002D02*
X71518574Y-57176002D01*
X71518574Y-57176002D02*
X71613812Y-57128383D01*
X71613812Y-57128383D02*
X71661431Y-57080763D01*
X114850319Y-95248702D02*
X114850319Y-94248702D01*
X114850319Y-94248702D02*
X114612224Y-94248702D01*
X114612224Y-94248702D02*
X114469367Y-94296321D01*
X114469367Y-94296321D02*
X114374129Y-94391559D01*
X114374129Y-94391559D02*
X114326510Y-94486797D01*
X114326510Y-94486797D02*
X114278891Y-94677273D01*
X114278891Y-94677273D02*
X114278891Y-94820130D01*
X114278891Y-94820130D02*
X114326510Y-95010606D01*
X114326510Y-95010606D02*
X114374129Y-95105844D01*
X114374129Y-95105844D02*
X114469367Y-95201083D01*
X114469367Y-95201083D02*
X114612224Y-95248702D01*
X114612224Y-95248702D02*
X114850319Y-95248702D01*
X113421748Y-94582035D02*
X113421748Y-95248702D01*
X113659843Y-94201083D02*
X113897938Y-94915368D01*
X113897938Y-94915368D02*
X113278891Y-94915368D01*
X112897938Y-94867749D02*
X112136034Y-94867749D01*
X111659843Y-95248702D02*
X111659843Y-94248702D01*
X111659843Y-94248702D02*
X111421748Y-94248702D01*
X111421748Y-94248702D02*
X111278891Y-94296321D01*
X111278891Y-94296321D02*
X111183653Y-94391559D01*
X111183653Y-94391559D02*
X111136034Y-94486797D01*
X111136034Y-94486797D02*
X111088415Y-94677273D01*
X111088415Y-94677273D02*
X111088415Y-94820130D01*
X111088415Y-94820130D02*
X111136034Y-95010606D01*
X111136034Y-95010606D02*
X111183653Y-95105844D01*
X111183653Y-95105844D02*
X111278891Y-95201083D01*
X111278891Y-95201083D02*
X111421748Y-95248702D01*
X111421748Y-95248702D02*
X111659843Y-95248702D01*
X110707462Y-94343940D02*
X110659843Y-94296321D01*
X110659843Y-94296321D02*
X110564605Y-94248702D01*
X110564605Y-94248702D02*
X110326510Y-94248702D01*
X110326510Y-94248702D02*
X110231272Y-94296321D01*
X110231272Y-94296321D02*
X110183653Y-94343940D01*
X110183653Y-94343940D02*
X110136034Y-94439178D01*
X110136034Y-94439178D02*
X110136034Y-94534416D01*
X110136034Y-94534416D02*
X110183653Y-94677273D01*
X110183653Y-94677273D02*
X110755081Y-95248702D01*
X110755081Y-95248702D02*
X110136034Y-95248702D01*
X109183653Y-95248702D02*
X109755081Y-95248702D01*
X109469367Y-95248702D02*
X109469367Y-94248702D01*
X109469367Y-94248702D02*
X109564605Y-94391559D01*
X109564605Y-94391559D02*
X109659843Y-94486797D01*
X109659843Y-94486797D02*
X109755081Y-94534416D01*
X114900019Y-57417302D02*
X114900019Y-56417302D01*
X114900019Y-56417302D02*
X114661924Y-56417302D01*
X114661924Y-56417302D02*
X114519067Y-56464921D01*
X114519067Y-56464921D02*
X114423829Y-56560159D01*
X114423829Y-56560159D02*
X114376210Y-56655397D01*
X114376210Y-56655397D02*
X114328591Y-56845873D01*
X114328591Y-56845873D02*
X114328591Y-56988730D01*
X114328591Y-56988730D02*
X114376210Y-57179206D01*
X114376210Y-57179206D02*
X114423829Y-57274444D01*
X114423829Y-57274444D02*
X114519067Y-57369683D01*
X114519067Y-57369683D02*
X114661924Y-57417302D01*
X114661924Y-57417302D02*
X114900019Y-57417302D01*
X113947638Y-56512540D02*
X113900019Y-56464921D01*
X113900019Y-56464921D02*
X113804781Y-56417302D01*
X113804781Y-56417302D02*
X113566686Y-56417302D01*
X113566686Y-56417302D02*
X113471448Y-56464921D01*
X113471448Y-56464921D02*
X113423829Y-56512540D01*
X113423829Y-56512540D02*
X113376210Y-56607778D01*
X113376210Y-56607778D02*
X113376210Y-56703016D01*
X113376210Y-56703016D02*
X113423829Y-56845873D01*
X113423829Y-56845873D02*
X113995257Y-57417302D01*
X113995257Y-57417302D02*
X113376210Y-57417302D01*
X112947638Y-57036349D02*
X112185734Y-57036349D01*
X111709543Y-57417302D02*
X111709543Y-56417302D01*
X111709543Y-56417302D02*
X111471448Y-56417302D01*
X111471448Y-56417302D02*
X111328591Y-56464921D01*
X111328591Y-56464921D02*
X111233353Y-56560159D01*
X111233353Y-56560159D02*
X111185734Y-56655397D01*
X111185734Y-56655397D02*
X111138115Y-56845873D01*
X111138115Y-56845873D02*
X111138115Y-56988730D01*
X111138115Y-56988730D02*
X111185734Y-57179206D01*
X111185734Y-57179206D02*
X111233353Y-57274444D01*
X111233353Y-57274444D02*
X111328591Y-57369683D01*
X111328591Y-57369683D02*
X111471448Y-57417302D01*
X111471448Y-57417302D02*
X111709543Y-57417302D01*
X110757162Y-56512540D02*
X110709543Y-56464921D01*
X110709543Y-56464921D02*
X110614305Y-56417302D01*
X110614305Y-56417302D02*
X110376210Y-56417302D01*
X110376210Y-56417302D02*
X110280972Y-56464921D01*
X110280972Y-56464921D02*
X110233353Y-56512540D01*
X110233353Y-56512540D02*
X110185734Y-56607778D01*
X110185734Y-56607778D02*
X110185734Y-56703016D01*
X110185734Y-56703016D02*
X110233353Y-56845873D01*
X110233353Y-56845873D02*
X110804781Y-57417302D01*
X110804781Y-57417302D02*
X110185734Y-57417302D01*
X109233353Y-57417302D02*
X109804781Y-57417302D01*
X109519067Y-57417302D02*
X109519067Y-56417302D01*
X109519067Y-56417302D02*
X109614305Y-56560159D01*
X109614305Y-56560159D02*
X109709543Y-56655397D01*
X109709543Y-56655397D02*
X109804781Y-56703016D01*
X95806669Y-57176002D02*
X95806669Y-56176002D01*
X95806669Y-56176002D02*
X95568574Y-56176002D01*
X95568574Y-56176002D02*
X95425717Y-56223621D01*
X95425717Y-56223621D02*
X95330479Y-56318859D01*
X95330479Y-56318859D02*
X95282860Y-56414097D01*
X95282860Y-56414097D02*
X95235241Y-56604573D01*
X95235241Y-56604573D02*
X95235241Y-56747430D01*
X95235241Y-56747430D02*
X95282860Y-56937906D01*
X95282860Y-56937906D02*
X95330479Y-57033144D01*
X95330479Y-57033144D02*
X95425717Y-57128383D01*
X95425717Y-57128383D02*
X95568574Y-57176002D01*
X95568574Y-57176002D02*
X95806669Y-57176002D01*
X94854288Y-56271240D02*
X94806669Y-56223621D01*
X94806669Y-56223621D02*
X94711431Y-56176002D01*
X94711431Y-56176002D02*
X94473336Y-56176002D01*
X94473336Y-56176002D02*
X94378098Y-56223621D01*
X94378098Y-56223621D02*
X94330479Y-56271240D01*
X94330479Y-56271240D02*
X94282860Y-56366478D01*
X94282860Y-56366478D02*
X94282860Y-56461716D01*
X94282860Y-56461716D02*
X94330479Y-56604573D01*
X94330479Y-56604573D02*
X94901907Y-57176002D01*
X94901907Y-57176002D02*
X94282860Y-57176002D01*
X93854288Y-56795049D02*
X93092384Y-56795049D01*
X92616193Y-57176002D02*
X92616193Y-56176002D01*
X92616193Y-56176002D02*
X92378098Y-56176002D01*
X92378098Y-56176002D02*
X92235241Y-56223621D01*
X92235241Y-56223621D02*
X92140003Y-56318859D01*
X92140003Y-56318859D02*
X92092384Y-56414097D01*
X92092384Y-56414097D02*
X92044765Y-56604573D01*
X92044765Y-56604573D02*
X92044765Y-56747430D01*
X92044765Y-56747430D02*
X92092384Y-56937906D01*
X92092384Y-56937906D02*
X92140003Y-57033144D01*
X92140003Y-57033144D02*
X92235241Y-57128383D01*
X92235241Y-57128383D02*
X92378098Y-57176002D01*
X92378098Y-57176002D02*
X92616193Y-57176002D01*
X91092384Y-57176002D02*
X91663812Y-57176002D01*
X91378098Y-57176002D02*
X91378098Y-56176002D01*
X91378098Y-56176002D02*
X91473336Y-56318859D01*
X91473336Y-56318859D02*
X91568574Y-56414097D01*
X91568574Y-56414097D02*
X91663812Y-56461716D01*
X90520955Y-56604573D02*
X90616193Y-56556954D01*
X90616193Y-56556954D02*
X90663812Y-56509335D01*
X90663812Y-56509335D02*
X90711431Y-56414097D01*
X90711431Y-56414097D02*
X90711431Y-56366478D01*
X90711431Y-56366478D02*
X90663812Y-56271240D01*
X90663812Y-56271240D02*
X90616193Y-56223621D01*
X90616193Y-56223621D02*
X90520955Y-56176002D01*
X90520955Y-56176002D02*
X90330479Y-56176002D01*
X90330479Y-56176002D02*
X90235241Y-56223621D01*
X90235241Y-56223621D02*
X90187622Y-56271240D01*
X90187622Y-56271240D02*
X90140003Y-56366478D01*
X90140003Y-56366478D02*
X90140003Y-56414097D01*
X90140003Y-56414097D02*
X90187622Y-56509335D01*
X90187622Y-56509335D02*
X90235241Y-56556954D01*
X90235241Y-56556954D02*
X90330479Y-56604573D01*
X90330479Y-56604573D02*
X90520955Y-56604573D01*
X90520955Y-56604573D02*
X90616193Y-56652192D01*
X90616193Y-56652192D02*
X90663812Y-56699811D01*
X90663812Y-56699811D02*
X90711431Y-56795049D01*
X90711431Y-56795049D02*
X90711431Y-56985525D01*
X90711431Y-56985525D02*
X90663812Y-57080763D01*
X90663812Y-57080763D02*
X90616193Y-57128383D01*
X90616193Y-57128383D02*
X90520955Y-57176002D01*
X90520955Y-57176002D02*
X90330479Y-57176002D01*
X90330479Y-57176002D02*
X90235241Y-57128383D01*
X90235241Y-57128383D02*
X90187622Y-57080763D01*
X90187622Y-57080763D02*
X90140003Y-56985525D01*
X90140003Y-56985525D02*
X90140003Y-56795049D01*
X90140003Y-56795049D02*
X90187622Y-56699811D01*
X90187622Y-56699811D02*
X90235241Y-56652192D01*
X90235241Y-56652192D02*
X90330479Y-56604573D01*
X57243778Y-95587704D02*
X57243778Y-94587704D01*
X57243778Y-94587704D02*
X57005683Y-94587704D01*
X57005683Y-94587704D02*
X56862826Y-94635323D01*
X56862826Y-94635323D02*
X56767588Y-94730561D01*
X56767588Y-94730561D02*
X56719969Y-94825799D01*
X56719969Y-94825799D02*
X56672350Y-95016275D01*
X56672350Y-95016275D02*
X56672350Y-95159132D01*
X56672350Y-95159132D02*
X56719969Y-95349608D01*
X56719969Y-95349608D02*
X56767588Y-95444846D01*
X56767588Y-95444846D02*
X56862826Y-95540085D01*
X56862826Y-95540085D02*
X57005683Y-95587704D01*
X57005683Y-95587704D02*
X57243778Y-95587704D01*
X55815207Y-94921037D02*
X55815207Y-95587704D01*
X56053302Y-94540085D02*
X56291397Y-95254370D01*
X56291397Y-95254370D02*
X55672350Y-95254370D01*
X55291397Y-95206751D02*
X54529493Y-95206751D01*
X54053302Y-95587704D02*
X54053302Y-94587704D01*
X54053302Y-94587704D02*
X53815207Y-94587704D01*
X53815207Y-94587704D02*
X53672350Y-94635323D01*
X53672350Y-94635323D02*
X53577112Y-94730561D01*
X53577112Y-94730561D02*
X53529493Y-94825799D01*
X53529493Y-94825799D02*
X53481874Y-95016275D01*
X53481874Y-95016275D02*
X53481874Y-95159132D01*
X53481874Y-95159132D02*
X53529493Y-95349608D01*
X53529493Y-95349608D02*
X53577112Y-95444846D01*
X53577112Y-95444846D02*
X53672350Y-95540085D01*
X53672350Y-95540085D02*
X53815207Y-95587704D01*
X53815207Y-95587704D02*
X54053302Y-95587704D01*
X53148540Y-94587704D02*
X52481874Y-94587704D01*
X52481874Y-94587704D02*
X52910445Y-95587704D01*
X38650319Y-95248704D02*
X38650319Y-94248704D01*
X38650319Y-94248704D02*
X38412224Y-94248704D01*
X38412224Y-94248704D02*
X38269367Y-94296323D01*
X38269367Y-94296323D02*
X38174129Y-94391561D01*
X38174129Y-94391561D02*
X38126510Y-94486799D01*
X38126510Y-94486799D02*
X38078891Y-94677275D01*
X38078891Y-94677275D02*
X38078891Y-94820132D01*
X38078891Y-94820132D02*
X38126510Y-95010608D01*
X38126510Y-95010608D02*
X38174129Y-95105846D01*
X38174129Y-95105846D02*
X38269367Y-95201085D01*
X38269367Y-95201085D02*
X38412224Y-95248704D01*
X38412224Y-95248704D02*
X38650319Y-95248704D01*
X37221748Y-94582037D02*
X37221748Y-95248704D01*
X37459843Y-94201085D02*
X37697938Y-94915370D01*
X37697938Y-94915370D02*
X37078891Y-94915370D01*
X36697938Y-94867751D02*
X35936034Y-94867751D01*
X35459843Y-95248704D02*
X35459843Y-94248704D01*
X35459843Y-94248704D02*
X35221748Y-94248704D01*
X35221748Y-94248704D02*
X35078891Y-94296323D01*
X35078891Y-94296323D02*
X34983653Y-94391561D01*
X34983653Y-94391561D02*
X34936034Y-94486799D01*
X34936034Y-94486799D02*
X34888415Y-94677275D01*
X34888415Y-94677275D02*
X34888415Y-94820132D01*
X34888415Y-94820132D02*
X34936034Y-95010608D01*
X34936034Y-95010608D02*
X34983653Y-95105846D01*
X34983653Y-95105846D02*
X35078891Y-95201085D01*
X35078891Y-95201085D02*
X35221748Y-95248704D01*
X35221748Y-95248704D02*
X35459843Y-95248704D01*
X33936034Y-95248704D02*
X34507462Y-95248704D01*
X34221748Y-95248704D02*
X34221748Y-94248704D01*
X34221748Y-94248704D02*
X34316986Y-94391561D01*
X34316986Y-94391561D02*
X34412224Y-94486799D01*
X34412224Y-94486799D02*
X34507462Y-94534418D01*
X33078891Y-94582037D02*
X33078891Y-95248704D01*
X33316986Y-94201085D02*
X33555081Y-94915370D01*
X33555081Y-94915370D02*
X32936034Y-94915370D01*
X57224128Y-57176004D02*
X57224128Y-56176004D01*
X57224128Y-56176004D02*
X56986033Y-56176004D01*
X56986033Y-56176004D02*
X56843176Y-56223623D01*
X56843176Y-56223623D02*
X56747938Y-56318861D01*
X56747938Y-56318861D02*
X56700319Y-56414099D01*
X56700319Y-56414099D02*
X56652700Y-56604575D01*
X56652700Y-56604575D02*
X56652700Y-56747432D01*
X56652700Y-56747432D02*
X56700319Y-56937908D01*
X56700319Y-56937908D02*
X56747938Y-57033146D01*
X56747938Y-57033146D02*
X56843176Y-57128385D01*
X56843176Y-57128385D02*
X56986033Y-57176004D01*
X56986033Y-57176004D02*
X57224128Y-57176004D01*
X56271747Y-56271242D02*
X56224128Y-56223623D01*
X56224128Y-56223623D02*
X56128890Y-56176004D01*
X56128890Y-56176004D02*
X55890795Y-56176004D01*
X55890795Y-56176004D02*
X55795557Y-56223623D01*
X55795557Y-56223623D02*
X55747938Y-56271242D01*
X55747938Y-56271242D02*
X55700319Y-56366480D01*
X55700319Y-56366480D02*
X55700319Y-56461718D01*
X55700319Y-56461718D02*
X55747938Y-56604575D01*
X55747938Y-56604575D02*
X56319366Y-57176004D01*
X56319366Y-57176004D02*
X55700319Y-57176004D01*
X55271747Y-56795051D02*
X54509843Y-56795051D01*
X54033652Y-57176004D02*
X54033652Y-56176004D01*
X54033652Y-56176004D02*
X53795557Y-56176004D01*
X53795557Y-56176004D02*
X53652700Y-56223623D01*
X53652700Y-56223623D02*
X53557462Y-56318861D01*
X53557462Y-56318861D02*
X53509843Y-56414099D01*
X53509843Y-56414099D02*
X53462224Y-56604575D01*
X53462224Y-56604575D02*
X53462224Y-56747432D01*
X53462224Y-56747432D02*
X53509843Y-56937908D01*
X53509843Y-56937908D02*
X53557462Y-57033146D01*
X53557462Y-57033146D02*
X53652700Y-57128385D01*
X53652700Y-57128385D02*
X53795557Y-57176004D01*
X53795557Y-57176004D02*
X54033652Y-57176004D01*
X53128890Y-56176004D02*
X52462224Y-56176004D01*
X52462224Y-56176004D02*
X52890795Y-57176004D01*
X76782669Y-76565002D02*
X76782669Y-75565002D01*
X76782669Y-75565002D02*
X76544574Y-75565002D01*
X76544574Y-75565002D02*
X76401717Y-75612621D01*
X76401717Y-75612621D02*
X76306479Y-75707859D01*
X76306479Y-75707859D02*
X76258860Y-75803097D01*
X76258860Y-75803097D02*
X76211241Y-75993573D01*
X76211241Y-75993573D02*
X76211241Y-76136430D01*
X76211241Y-76136430D02*
X76258860Y-76326906D01*
X76258860Y-76326906D02*
X76306479Y-76422144D01*
X76306479Y-76422144D02*
X76401717Y-76517383D01*
X76401717Y-76517383D02*
X76544574Y-76565002D01*
X76544574Y-76565002D02*
X76782669Y-76565002D01*
X75877907Y-75565002D02*
X75258860Y-75565002D01*
X75258860Y-75565002D02*
X75592193Y-75945954D01*
X75592193Y-75945954D02*
X75449336Y-75945954D01*
X75449336Y-75945954D02*
X75354098Y-75993573D01*
X75354098Y-75993573D02*
X75306479Y-76041192D01*
X75306479Y-76041192D02*
X75258860Y-76136430D01*
X75258860Y-76136430D02*
X75258860Y-76374525D01*
X75258860Y-76374525D02*
X75306479Y-76469763D01*
X75306479Y-76469763D02*
X75354098Y-76517383D01*
X75354098Y-76517383D02*
X75449336Y-76565002D01*
X75449336Y-76565002D02*
X75735050Y-76565002D01*
X75735050Y-76565002D02*
X75830288Y-76517383D01*
X75830288Y-76517383D02*
X75877907Y-76469763D01*
X74830288Y-76184049D02*
X74068384Y-76184049D01*
X73592193Y-76565002D02*
X73592193Y-75565002D01*
X73592193Y-75565002D02*
X73354098Y-75565002D01*
X73354098Y-75565002D02*
X73211241Y-75612621D01*
X73211241Y-75612621D02*
X73116003Y-75707859D01*
X73116003Y-75707859D02*
X73068384Y-75803097D01*
X73068384Y-75803097D02*
X73020765Y-75993573D01*
X73020765Y-75993573D02*
X73020765Y-76136430D01*
X73020765Y-76136430D02*
X73068384Y-76326906D01*
X73068384Y-76326906D02*
X73116003Y-76422144D01*
X73116003Y-76422144D02*
X73211241Y-76517383D01*
X73211241Y-76517383D02*
X73354098Y-76565002D01*
X73354098Y-76565002D02*
X73592193Y-76565002D01*
X72068384Y-76565002D02*
X72639812Y-76565002D01*
X72354098Y-76565002D02*
X72354098Y-75565002D01*
X72354098Y-75565002D02*
X72449336Y-75707859D01*
X72449336Y-75707859D02*
X72544574Y-75803097D01*
X72544574Y-75803097D02*
X72639812Y-75850716D01*
X71163622Y-75565002D02*
X71639812Y-75565002D01*
X71639812Y-75565002D02*
X71687431Y-76041192D01*
X71687431Y-76041192D02*
X71639812Y-75993573D01*
X71639812Y-75993573D02*
X71544574Y-75945954D01*
X71544574Y-75945954D02*
X71306479Y-75945954D01*
X71306479Y-75945954D02*
X71211241Y-75993573D01*
X71211241Y-75993573D02*
X71163622Y-76041192D01*
X71163622Y-76041192D02*
X71116003Y-76136430D01*
X71116003Y-76136430D02*
X71116003Y-76374525D01*
X71116003Y-76374525D02*
X71163622Y-76469763D01*
X71163622Y-76469763D02*
X71211241Y-76517383D01*
X71211241Y-76517383D02*
X71306479Y-76565002D01*
X71306479Y-76565002D02*
X71544574Y-76565002D01*
X71544574Y-76565002D02*
X71639812Y-76517383D01*
X71639812Y-76517383D02*
X71687431Y-76469763D01*
X114856669Y-114326002D02*
X114856669Y-113326002D01*
X114856669Y-113326002D02*
X114618574Y-113326002D01*
X114618574Y-113326002D02*
X114475717Y-113373621D01*
X114475717Y-113373621D02*
X114380479Y-113468859D01*
X114380479Y-113468859D02*
X114332860Y-113564097D01*
X114332860Y-113564097D02*
X114285241Y-113754573D01*
X114285241Y-113754573D02*
X114285241Y-113897430D01*
X114285241Y-113897430D02*
X114332860Y-114087906D01*
X114332860Y-114087906D02*
X114380479Y-114183144D01*
X114380479Y-114183144D02*
X114475717Y-114278383D01*
X114475717Y-114278383D02*
X114618574Y-114326002D01*
X114618574Y-114326002D02*
X114856669Y-114326002D01*
X113380479Y-113326002D02*
X113856669Y-113326002D01*
X113856669Y-113326002D02*
X113904288Y-113802192D01*
X113904288Y-113802192D02*
X113856669Y-113754573D01*
X113856669Y-113754573D02*
X113761431Y-113706954D01*
X113761431Y-113706954D02*
X113523336Y-113706954D01*
X113523336Y-113706954D02*
X113428098Y-113754573D01*
X113428098Y-113754573D02*
X113380479Y-113802192D01*
X113380479Y-113802192D02*
X113332860Y-113897430D01*
X113332860Y-113897430D02*
X113332860Y-114135525D01*
X113332860Y-114135525D02*
X113380479Y-114230763D01*
X113380479Y-114230763D02*
X113428098Y-114278383D01*
X113428098Y-114278383D02*
X113523336Y-114326002D01*
X113523336Y-114326002D02*
X113761431Y-114326002D01*
X113761431Y-114326002D02*
X113856669Y-114278383D01*
X113856669Y-114278383D02*
X113904288Y-114230763D01*
X112904288Y-113945049D02*
X112142384Y-113945049D01*
X111666193Y-114326002D02*
X111666193Y-113326002D01*
X111666193Y-113326002D02*
X111428098Y-113326002D01*
X111428098Y-113326002D02*
X111285241Y-113373621D01*
X111285241Y-113373621D02*
X111190003Y-113468859D01*
X111190003Y-113468859D02*
X111142384Y-113564097D01*
X111142384Y-113564097D02*
X111094765Y-113754573D01*
X111094765Y-113754573D02*
X111094765Y-113897430D01*
X111094765Y-113897430D02*
X111142384Y-114087906D01*
X111142384Y-114087906D02*
X111190003Y-114183144D01*
X111190003Y-114183144D02*
X111285241Y-114278383D01*
X111285241Y-114278383D02*
X111428098Y-114326002D01*
X111428098Y-114326002D02*
X111666193Y-114326002D01*
X110713812Y-113421240D02*
X110666193Y-113373621D01*
X110666193Y-113373621D02*
X110570955Y-113326002D01*
X110570955Y-113326002D02*
X110332860Y-113326002D01*
X110332860Y-113326002D02*
X110237622Y-113373621D01*
X110237622Y-113373621D02*
X110190003Y-113421240D01*
X110190003Y-113421240D02*
X110142384Y-113516478D01*
X110142384Y-113516478D02*
X110142384Y-113611716D01*
X110142384Y-113611716D02*
X110190003Y-113754573D01*
X110190003Y-113754573D02*
X110761431Y-114326002D01*
X110761431Y-114326002D02*
X110142384Y-114326002D01*
X109190003Y-114326002D02*
X109761431Y-114326002D01*
X109475717Y-114326002D02*
X109475717Y-113326002D01*
X109475717Y-113326002D02*
X109570955Y-113468859D01*
X109570955Y-113468859D02*
X109666193Y-113564097D01*
X109666193Y-113564097D02*
X109761431Y-113611716D01*
X57224128Y-76226004D02*
X57224128Y-75226004D01*
X57224128Y-75226004D02*
X56986033Y-75226004D01*
X56986033Y-75226004D02*
X56843176Y-75273623D01*
X56843176Y-75273623D02*
X56747938Y-75368861D01*
X56747938Y-75368861D02*
X56700319Y-75464099D01*
X56700319Y-75464099D02*
X56652700Y-75654575D01*
X56652700Y-75654575D02*
X56652700Y-75797432D01*
X56652700Y-75797432D02*
X56700319Y-75987908D01*
X56700319Y-75987908D02*
X56747938Y-76083146D01*
X56747938Y-76083146D02*
X56843176Y-76178385D01*
X56843176Y-76178385D02*
X56986033Y-76226004D01*
X56986033Y-76226004D02*
X57224128Y-76226004D01*
X56319366Y-75226004D02*
X55700319Y-75226004D01*
X55700319Y-75226004D02*
X56033652Y-75606956D01*
X56033652Y-75606956D02*
X55890795Y-75606956D01*
X55890795Y-75606956D02*
X55795557Y-75654575D01*
X55795557Y-75654575D02*
X55747938Y-75702194D01*
X55747938Y-75702194D02*
X55700319Y-75797432D01*
X55700319Y-75797432D02*
X55700319Y-76035527D01*
X55700319Y-76035527D02*
X55747938Y-76130765D01*
X55747938Y-76130765D02*
X55795557Y-76178385D01*
X55795557Y-76178385D02*
X55890795Y-76226004D01*
X55890795Y-76226004D02*
X56176509Y-76226004D01*
X56176509Y-76226004D02*
X56271747Y-76178385D01*
X56271747Y-76178385D02*
X56319366Y-76130765D01*
X55271747Y-75845051D02*
X54509843Y-75845051D01*
X54033652Y-76226004D02*
X54033652Y-75226004D01*
X54033652Y-75226004D02*
X53795557Y-75226004D01*
X53795557Y-75226004D02*
X53652700Y-75273623D01*
X53652700Y-75273623D02*
X53557462Y-75368861D01*
X53557462Y-75368861D02*
X53509843Y-75464099D01*
X53509843Y-75464099D02*
X53462224Y-75654575D01*
X53462224Y-75654575D02*
X53462224Y-75797432D01*
X53462224Y-75797432D02*
X53509843Y-75987908D01*
X53509843Y-75987908D02*
X53557462Y-76083146D01*
X53557462Y-76083146D02*
X53652700Y-76178385D01*
X53652700Y-76178385D02*
X53795557Y-76226004D01*
X53795557Y-76226004D02*
X54033652Y-76226004D01*
X53128890Y-75226004D02*
X52462224Y-75226004D01*
X52462224Y-75226004D02*
X52890795Y-76226004D01*
X95806669Y-76226002D02*
X95806669Y-75226002D01*
X95806669Y-75226002D02*
X95568574Y-75226002D01*
X95568574Y-75226002D02*
X95425717Y-75273621D01*
X95425717Y-75273621D02*
X95330479Y-75368859D01*
X95330479Y-75368859D02*
X95282860Y-75464097D01*
X95282860Y-75464097D02*
X95235241Y-75654573D01*
X95235241Y-75654573D02*
X95235241Y-75797430D01*
X95235241Y-75797430D02*
X95282860Y-75987906D01*
X95282860Y-75987906D02*
X95330479Y-76083144D01*
X95330479Y-76083144D02*
X95425717Y-76178383D01*
X95425717Y-76178383D02*
X95568574Y-76226002D01*
X95568574Y-76226002D02*
X95806669Y-76226002D01*
X94901907Y-75226002D02*
X94282860Y-75226002D01*
X94282860Y-75226002D02*
X94616193Y-75606954D01*
X94616193Y-75606954D02*
X94473336Y-75606954D01*
X94473336Y-75606954D02*
X94378098Y-75654573D01*
X94378098Y-75654573D02*
X94330479Y-75702192D01*
X94330479Y-75702192D02*
X94282860Y-75797430D01*
X94282860Y-75797430D02*
X94282860Y-76035525D01*
X94282860Y-76035525D02*
X94330479Y-76130763D01*
X94330479Y-76130763D02*
X94378098Y-76178383D01*
X94378098Y-76178383D02*
X94473336Y-76226002D01*
X94473336Y-76226002D02*
X94759050Y-76226002D01*
X94759050Y-76226002D02*
X94854288Y-76178383D01*
X94854288Y-76178383D02*
X94901907Y-76130763D01*
X93854288Y-75845049D02*
X93092384Y-75845049D01*
X92616193Y-76226002D02*
X92616193Y-75226002D01*
X92616193Y-75226002D02*
X92378098Y-75226002D01*
X92378098Y-75226002D02*
X92235241Y-75273621D01*
X92235241Y-75273621D02*
X92140003Y-75368859D01*
X92140003Y-75368859D02*
X92092384Y-75464097D01*
X92092384Y-75464097D02*
X92044765Y-75654573D01*
X92044765Y-75654573D02*
X92044765Y-75797430D01*
X92044765Y-75797430D02*
X92092384Y-75987906D01*
X92092384Y-75987906D02*
X92140003Y-76083144D01*
X92140003Y-76083144D02*
X92235241Y-76178383D01*
X92235241Y-76178383D02*
X92378098Y-76226002D01*
X92378098Y-76226002D02*
X92616193Y-76226002D01*
X91092384Y-76226002D02*
X91663812Y-76226002D01*
X91378098Y-76226002D02*
X91378098Y-75226002D01*
X91378098Y-75226002D02*
X91473336Y-75368859D01*
X91473336Y-75368859D02*
X91568574Y-75464097D01*
X91568574Y-75464097D02*
X91663812Y-75511716D01*
X90520955Y-75654573D02*
X90616193Y-75606954D01*
X90616193Y-75606954D02*
X90663812Y-75559335D01*
X90663812Y-75559335D02*
X90711431Y-75464097D01*
X90711431Y-75464097D02*
X90711431Y-75416478D01*
X90711431Y-75416478D02*
X90663812Y-75321240D01*
X90663812Y-75321240D02*
X90616193Y-75273621D01*
X90616193Y-75273621D02*
X90520955Y-75226002D01*
X90520955Y-75226002D02*
X90330479Y-75226002D01*
X90330479Y-75226002D02*
X90235241Y-75273621D01*
X90235241Y-75273621D02*
X90187622Y-75321240D01*
X90187622Y-75321240D02*
X90140003Y-75416478D01*
X90140003Y-75416478D02*
X90140003Y-75464097D01*
X90140003Y-75464097D02*
X90187622Y-75559335D01*
X90187622Y-75559335D02*
X90235241Y-75606954D01*
X90235241Y-75606954D02*
X90330479Y-75654573D01*
X90330479Y-75654573D02*
X90520955Y-75654573D01*
X90520955Y-75654573D02*
X90616193Y-75702192D01*
X90616193Y-75702192D02*
X90663812Y-75749811D01*
X90663812Y-75749811D02*
X90711431Y-75845049D01*
X90711431Y-75845049D02*
X90711431Y-76035525D01*
X90711431Y-76035525D02*
X90663812Y-76130763D01*
X90663812Y-76130763D02*
X90616193Y-76178383D01*
X90616193Y-76178383D02*
X90520955Y-76226002D01*
X90520955Y-76226002D02*
X90330479Y-76226002D01*
X90330479Y-76226002D02*
X90235241Y-76178383D01*
X90235241Y-76178383D02*
X90187622Y-76130763D01*
X90187622Y-76130763D02*
X90140003Y-76035525D01*
X90140003Y-76035525D02*
X90140003Y-75845049D01*
X90140003Y-75845049D02*
X90187622Y-75749811D01*
X90187622Y-75749811D02*
X90235241Y-75702192D01*
X90235241Y-75702192D02*
X90330479Y-75654573D01*
X38660019Y-57334302D02*
X38660019Y-56334302D01*
X38660019Y-56334302D02*
X38421924Y-56334302D01*
X38421924Y-56334302D02*
X38279067Y-56381921D01*
X38279067Y-56381921D02*
X38183829Y-56477159D01*
X38183829Y-56477159D02*
X38136210Y-56572397D01*
X38136210Y-56572397D02*
X38088591Y-56762873D01*
X38088591Y-56762873D02*
X38088591Y-56905730D01*
X38088591Y-56905730D02*
X38136210Y-57096206D01*
X38136210Y-57096206D02*
X38183829Y-57191444D01*
X38183829Y-57191444D02*
X38279067Y-57286683D01*
X38279067Y-57286683D02*
X38421924Y-57334302D01*
X38421924Y-57334302D02*
X38660019Y-57334302D01*
X37707638Y-56429540D02*
X37660019Y-56381921D01*
X37660019Y-56381921D02*
X37564781Y-56334302D01*
X37564781Y-56334302D02*
X37326686Y-56334302D01*
X37326686Y-56334302D02*
X37231448Y-56381921D01*
X37231448Y-56381921D02*
X37183829Y-56429540D01*
X37183829Y-56429540D02*
X37136210Y-56524778D01*
X37136210Y-56524778D02*
X37136210Y-56620016D01*
X37136210Y-56620016D02*
X37183829Y-56762873D01*
X37183829Y-56762873D02*
X37755257Y-57334302D01*
X37755257Y-57334302D02*
X37136210Y-57334302D01*
X36707638Y-56953349D02*
X35945734Y-56953349D01*
X35469543Y-57334302D02*
X35469543Y-56334302D01*
X35469543Y-56334302D02*
X35231448Y-56334302D01*
X35231448Y-56334302D02*
X35088591Y-56381921D01*
X35088591Y-56381921D02*
X34993353Y-56477159D01*
X34993353Y-56477159D02*
X34945734Y-56572397D01*
X34945734Y-56572397D02*
X34898115Y-56762873D01*
X34898115Y-56762873D02*
X34898115Y-56905730D01*
X34898115Y-56905730D02*
X34945734Y-57096206D01*
X34945734Y-57096206D02*
X34993353Y-57191444D01*
X34993353Y-57191444D02*
X35088591Y-57286683D01*
X35088591Y-57286683D02*
X35231448Y-57334302D01*
X35231448Y-57334302D02*
X35469543Y-57334302D01*
X33945734Y-57334302D02*
X34517162Y-57334302D01*
X34231448Y-57334302D02*
X34231448Y-56334302D01*
X34231448Y-56334302D02*
X34326686Y-56477159D01*
X34326686Y-56477159D02*
X34421924Y-56572397D01*
X34421924Y-56572397D02*
X34517162Y-56620016D01*
X33088591Y-56667635D02*
X33088591Y-57334302D01*
X33326686Y-56286683D02*
X33564781Y-57000968D01*
X33564781Y-57000968D02*
X32945734Y-57000968D01*
X105427669Y-133438004D02*
X105427669Y-132438004D01*
X105427669Y-132438004D02*
X105189574Y-132438004D01*
X105189574Y-132438004D02*
X105046717Y-132485623D01*
X105046717Y-132485623D02*
X104951479Y-132580861D01*
X104951479Y-132580861D02*
X104903860Y-132676099D01*
X104903860Y-132676099D02*
X104856241Y-132866575D01*
X104856241Y-132866575D02*
X104856241Y-133009432D01*
X104856241Y-133009432D02*
X104903860Y-133199908D01*
X104903860Y-133199908D02*
X104951479Y-133295146D01*
X104951479Y-133295146D02*
X105046717Y-133390385D01*
X105046717Y-133390385D02*
X105189574Y-133438004D01*
X105189574Y-133438004D02*
X105427669Y-133438004D01*
X103999098Y-132438004D02*
X104189574Y-132438004D01*
X104189574Y-132438004D02*
X104284812Y-132485623D01*
X104284812Y-132485623D02*
X104332431Y-132533242D01*
X104332431Y-132533242D02*
X104427669Y-132676099D01*
X104427669Y-132676099D02*
X104475288Y-132866575D01*
X104475288Y-132866575D02*
X104475288Y-133247527D01*
X104475288Y-133247527D02*
X104427669Y-133342765D01*
X104427669Y-133342765D02*
X104380050Y-133390385D01*
X104380050Y-133390385D02*
X104284812Y-133438004D01*
X104284812Y-133438004D02*
X104094336Y-133438004D01*
X104094336Y-133438004D02*
X103999098Y-133390385D01*
X103999098Y-133390385D02*
X103951479Y-133342765D01*
X103951479Y-133342765D02*
X103903860Y-133247527D01*
X103903860Y-133247527D02*
X103903860Y-133009432D01*
X103903860Y-133009432D02*
X103951479Y-132914194D01*
X103951479Y-132914194D02*
X103999098Y-132866575D01*
X103999098Y-132866575D02*
X104094336Y-132818956D01*
X104094336Y-132818956D02*
X104284812Y-132818956D01*
X104284812Y-132818956D02*
X104380050Y-132866575D01*
X104380050Y-132866575D02*
X104427669Y-132914194D01*
X104427669Y-132914194D02*
X104475288Y-133009432D01*
X103475288Y-133057051D02*
X102713384Y-133057051D01*
X102237193Y-133438004D02*
X102237193Y-132438004D01*
X102237193Y-132438004D02*
X101999098Y-132438004D01*
X101999098Y-132438004D02*
X101856241Y-132485623D01*
X101856241Y-132485623D02*
X101761003Y-132580861D01*
X101761003Y-132580861D02*
X101713384Y-132676099D01*
X101713384Y-132676099D02*
X101665765Y-132866575D01*
X101665765Y-132866575D02*
X101665765Y-133009432D01*
X101665765Y-133009432D02*
X101713384Y-133199908D01*
X101713384Y-133199908D02*
X101761003Y-133295146D01*
X101761003Y-133295146D02*
X101856241Y-133390385D01*
X101856241Y-133390385D02*
X101999098Y-133438004D01*
X101999098Y-133438004D02*
X102237193Y-133438004D01*
X100713384Y-133438004D02*
X101284812Y-133438004D01*
X100999098Y-133438004D02*
X100999098Y-132438004D01*
X100999098Y-132438004D02*
X101094336Y-132580861D01*
X101094336Y-132580861D02*
X101189574Y-132676099D01*
X101189574Y-132676099D02*
X101284812Y-132723718D01*
X99808622Y-132438004D02*
X100284812Y-132438004D01*
X100284812Y-132438004D02*
X100332431Y-132914194D01*
X100332431Y-132914194D02*
X100284812Y-132866575D01*
X100284812Y-132866575D02*
X100189574Y-132818956D01*
X100189574Y-132818956D02*
X99951479Y-132818956D01*
X99951479Y-132818956D02*
X99856241Y-132866575D01*
X99856241Y-132866575D02*
X99808622Y-132914194D01*
X99808622Y-132914194D02*
X99761003Y-133009432D01*
X99761003Y-133009432D02*
X99761003Y-133247527D01*
X99761003Y-133247527D02*
X99808622Y-133342765D01*
X99808622Y-133342765D02*
X99856241Y-133390385D01*
X99856241Y-133390385D02*
X99951479Y-133438004D01*
X99951479Y-133438004D02*
X100189574Y-133438004D01*
X100189574Y-133438004D02*
X100284812Y-133390385D01*
X100284812Y-133390385D02*
X100332431Y-133342765D01*
X57224128Y-114326004D02*
X57224128Y-113326004D01*
X57224128Y-113326004D02*
X56986033Y-113326004D01*
X56986033Y-113326004D02*
X56843176Y-113373623D01*
X56843176Y-113373623D02*
X56747938Y-113468861D01*
X56747938Y-113468861D02*
X56700319Y-113564099D01*
X56700319Y-113564099D02*
X56652700Y-113754575D01*
X56652700Y-113754575D02*
X56652700Y-113897432D01*
X56652700Y-113897432D02*
X56700319Y-114087908D01*
X56700319Y-114087908D02*
X56747938Y-114183146D01*
X56747938Y-114183146D02*
X56843176Y-114278385D01*
X56843176Y-114278385D02*
X56986033Y-114326004D01*
X56986033Y-114326004D02*
X57224128Y-114326004D01*
X55747938Y-113326004D02*
X56224128Y-113326004D01*
X56224128Y-113326004D02*
X56271747Y-113802194D01*
X56271747Y-113802194D02*
X56224128Y-113754575D01*
X56224128Y-113754575D02*
X56128890Y-113706956D01*
X56128890Y-113706956D02*
X55890795Y-113706956D01*
X55890795Y-113706956D02*
X55795557Y-113754575D01*
X55795557Y-113754575D02*
X55747938Y-113802194D01*
X55747938Y-113802194D02*
X55700319Y-113897432D01*
X55700319Y-113897432D02*
X55700319Y-114135527D01*
X55700319Y-114135527D02*
X55747938Y-114230765D01*
X55747938Y-114230765D02*
X55795557Y-114278385D01*
X55795557Y-114278385D02*
X55890795Y-114326004D01*
X55890795Y-114326004D02*
X56128890Y-114326004D01*
X56128890Y-114326004D02*
X56224128Y-114278385D01*
X56224128Y-114278385D02*
X56271747Y-114230765D01*
X55271747Y-113945051D02*
X54509843Y-113945051D01*
X54033652Y-114326004D02*
X54033652Y-113326004D01*
X54033652Y-113326004D02*
X53795557Y-113326004D01*
X53795557Y-113326004D02*
X53652700Y-113373623D01*
X53652700Y-113373623D02*
X53557462Y-113468861D01*
X53557462Y-113468861D02*
X53509843Y-113564099D01*
X53509843Y-113564099D02*
X53462224Y-113754575D01*
X53462224Y-113754575D02*
X53462224Y-113897432D01*
X53462224Y-113897432D02*
X53509843Y-114087908D01*
X53509843Y-114087908D02*
X53557462Y-114183146D01*
X53557462Y-114183146D02*
X53652700Y-114278385D01*
X53652700Y-114278385D02*
X53795557Y-114326004D01*
X53795557Y-114326004D02*
X54033652Y-114326004D01*
X53128890Y-113326004D02*
X52462224Y-113326004D01*
X52462224Y-113326004D02*
X52890795Y-114326004D01*
X95806669Y-114326002D02*
X95806669Y-113326002D01*
X95806669Y-113326002D02*
X95568574Y-113326002D01*
X95568574Y-113326002D02*
X95425717Y-113373621D01*
X95425717Y-113373621D02*
X95330479Y-113468859D01*
X95330479Y-113468859D02*
X95282860Y-113564097D01*
X95282860Y-113564097D02*
X95235241Y-113754573D01*
X95235241Y-113754573D02*
X95235241Y-113897430D01*
X95235241Y-113897430D02*
X95282860Y-114087906D01*
X95282860Y-114087906D02*
X95330479Y-114183144D01*
X95330479Y-114183144D02*
X95425717Y-114278383D01*
X95425717Y-114278383D02*
X95568574Y-114326002D01*
X95568574Y-114326002D02*
X95806669Y-114326002D01*
X94330479Y-113326002D02*
X94806669Y-113326002D01*
X94806669Y-113326002D02*
X94854288Y-113802192D01*
X94854288Y-113802192D02*
X94806669Y-113754573D01*
X94806669Y-113754573D02*
X94711431Y-113706954D01*
X94711431Y-113706954D02*
X94473336Y-113706954D01*
X94473336Y-113706954D02*
X94378098Y-113754573D01*
X94378098Y-113754573D02*
X94330479Y-113802192D01*
X94330479Y-113802192D02*
X94282860Y-113897430D01*
X94282860Y-113897430D02*
X94282860Y-114135525D01*
X94282860Y-114135525D02*
X94330479Y-114230763D01*
X94330479Y-114230763D02*
X94378098Y-114278383D01*
X94378098Y-114278383D02*
X94473336Y-114326002D01*
X94473336Y-114326002D02*
X94711431Y-114326002D01*
X94711431Y-114326002D02*
X94806669Y-114278383D01*
X94806669Y-114278383D02*
X94854288Y-114230763D01*
X93854288Y-113945049D02*
X93092384Y-113945049D01*
X92616193Y-114326002D02*
X92616193Y-113326002D01*
X92616193Y-113326002D02*
X92378098Y-113326002D01*
X92378098Y-113326002D02*
X92235241Y-113373621D01*
X92235241Y-113373621D02*
X92140003Y-113468859D01*
X92140003Y-113468859D02*
X92092384Y-113564097D01*
X92092384Y-113564097D02*
X92044765Y-113754573D01*
X92044765Y-113754573D02*
X92044765Y-113897430D01*
X92044765Y-113897430D02*
X92092384Y-114087906D01*
X92092384Y-114087906D02*
X92140003Y-114183144D01*
X92140003Y-114183144D02*
X92235241Y-114278383D01*
X92235241Y-114278383D02*
X92378098Y-114326002D01*
X92378098Y-114326002D02*
X92616193Y-114326002D01*
X91092384Y-114326002D02*
X91663812Y-114326002D01*
X91378098Y-114326002D02*
X91378098Y-113326002D01*
X91378098Y-113326002D02*
X91473336Y-113468859D01*
X91473336Y-113468859D02*
X91568574Y-113564097D01*
X91568574Y-113564097D02*
X91663812Y-113611716D01*
X90520955Y-113754573D02*
X90616193Y-113706954D01*
X90616193Y-113706954D02*
X90663812Y-113659335D01*
X90663812Y-113659335D02*
X90711431Y-113564097D01*
X90711431Y-113564097D02*
X90711431Y-113516478D01*
X90711431Y-113516478D02*
X90663812Y-113421240D01*
X90663812Y-113421240D02*
X90616193Y-113373621D01*
X90616193Y-113373621D02*
X90520955Y-113326002D01*
X90520955Y-113326002D02*
X90330479Y-113326002D01*
X90330479Y-113326002D02*
X90235241Y-113373621D01*
X90235241Y-113373621D02*
X90187622Y-113421240D01*
X90187622Y-113421240D02*
X90140003Y-113516478D01*
X90140003Y-113516478D02*
X90140003Y-113564097D01*
X90140003Y-113564097D02*
X90187622Y-113659335D01*
X90187622Y-113659335D02*
X90235241Y-113706954D01*
X90235241Y-113706954D02*
X90330479Y-113754573D01*
X90330479Y-113754573D02*
X90520955Y-113754573D01*
X90520955Y-113754573D02*
X90616193Y-113802192D01*
X90616193Y-113802192D02*
X90663812Y-113849811D01*
X90663812Y-113849811D02*
X90711431Y-113945049D01*
X90711431Y-113945049D02*
X90711431Y-114135525D01*
X90711431Y-114135525D02*
X90663812Y-114230763D01*
X90663812Y-114230763D02*
X90616193Y-114278383D01*
X90616193Y-114278383D02*
X90520955Y-114326002D01*
X90520955Y-114326002D02*
X90330479Y-114326002D01*
X90330479Y-114326002D02*
X90235241Y-114278383D01*
X90235241Y-114278383D02*
X90187622Y-114230763D01*
X90187622Y-114230763D02*
X90140003Y-114135525D01*
X90140003Y-114135525D02*
X90140003Y-113945049D01*
X90140003Y-113945049D02*
X90187622Y-113849811D01*
X90187622Y-113849811D02*
X90235241Y-113802192D01*
X90235241Y-113802192D02*
X90330479Y-113754573D01*
X95826319Y-95587702D02*
X95826319Y-94587702D01*
X95826319Y-94587702D02*
X95588224Y-94587702D01*
X95588224Y-94587702D02*
X95445367Y-94635321D01*
X95445367Y-94635321D02*
X95350129Y-94730559D01*
X95350129Y-94730559D02*
X95302510Y-94825797D01*
X95302510Y-94825797D02*
X95254891Y-95016273D01*
X95254891Y-95016273D02*
X95254891Y-95159130D01*
X95254891Y-95159130D02*
X95302510Y-95349606D01*
X95302510Y-95349606D02*
X95350129Y-95444844D01*
X95350129Y-95444844D02*
X95445367Y-95540083D01*
X95445367Y-95540083D02*
X95588224Y-95587702D01*
X95588224Y-95587702D02*
X95826319Y-95587702D01*
X94397748Y-94921035D02*
X94397748Y-95587702D01*
X94635843Y-94540083D02*
X94873938Y-95254368D01*
X94873938Y-95254368D02*
X94254891Y-95254368D01*
X93873938Y-95206749D02*
X93112034Y-95206749D01*
X92635843Y-95587702D02*
X92635843Y-94587702D01*
X92635843Y-94587702D02*
X92397748Y-94587702D01*
X92397748Y-94587702D02*
X92254891Y-94635321D01*
X92254891Y-94635321D02*
X92159653Y-94730559D01*
X92159653Y-94730559D02*
X92112034Y-94825797D01*
X92112034Y-94825797D02*
X92064415Y-95016273D01*
X92064415Y-95016273D02*
X92064415Y-95159130D01*
X92064415Y-95159130D02*
X92112034Y-95349606D01*
X92112034Y-95349606D02*
X92159653Y-95444844D01*
X92159653Y-95444844D02*
X92254891Y-95540083D01*
X92254891Y-95540083D02*
X92397748Y-95587702D01*
X92397748Y-95587702D02*
X92635843Y-95587702D01*
X91112034Y-95587702D02*
X91683462Y-95587702D01*
X91397748Y-95587702D02*
X91397748Y-94587702D01*
X91397748Y-94587702D02*
X91492986Y-94730559D01*
X91492986Y-94730559D02*
X91588224Y-94825797D01*
X91588224Y-94825797D02*
X91683462Y-94873416D01*
X90540605Y-95016273D02*
X90635843Y-94968654D01*
X90635843Y-94968654D02*
X90683462Y-94921035D01*
X90683462Y-94921035D02*
X90731081Y-94825797D01*
X90731081Y-94825797D02*
X90731081Y-94778178D01*
X90731081Y-94778178D02*
X90683462Y-94682940D01*
X90683462Y-94682940D02*
X90635843Y-94635321D01*
X90635843Y-94635321D02*
X90540605Y-94587702D01*
X90540605Y-94587702D02*
X90350129Y-94587702D01*
X90350129Y-94587702D02*
X90254891Y-94635321D01*
X90254891Y-94635321D02*
X90207272Y-94682940D01*
X90207272Y-94682940D02*
X90159653Y-94778178D01*
X90159653Y-94778178D02*
X90159653Y-94825797D01*
X90159653Y-94825797D02*
X90207272Y-94921035D01*
X90207272Y-94921035D02*
X90254891Y-94968654D01*
X90254891Y-94968654D02*
X90350129Y-95016273D01*
X90350129Y-95016273D02*
X90540605Y-95016273D01*
X90540605Y-95016273D02*
X90635843Y-95063892D01*
X90635843Y-95063892D02*
X90683462Y-95111511D01*
X90683462Y-95111511D02*
X90731081Y-95206749D01*
X90731081Y-95206749D02*
X90731081Y-95397225D01*
X90731081Y-95397225D02*
X90683462Y-95492463D01*
X90683462Y-95492463D02*
X90635843Y-95540083D01*
X90635843Y-95540083D02*
X90540605Y-95587702D01*
X90540605Y-95587702D02*
X90350129Y-95587702D01*
X90350129Y-95587702D02*
X90254891Y-95540083D01*
X90254891Y-95540083D02*
X90207272Y-95492463D01*
X90207272Y-95492463D02*
X90159653Y-95397225D01*
X90159653Y-95397225D02*
X90159653Y-95206749D01*
X90159653Y-95206749D02*
X90207272Y-95111511D01*
X90207272Y-95111511D02*
X90254891Y-95063892D01*
X90254891Y-95063892D02*
X90350129Y-95016273D01*
X110545377Y-27827302D02*
X110878710Y-27351111D01*
X111116805Y-27827302D02*
X111116805Y-26827302D01*
X111116805Y-26827302D02*
X110735853Y-26827302D01*
X110735853Y-26827302D02*
X110640615Y-26874921D01*
X110640615Y-26874921D02*
X110592996Y-26922540D01*
X110592996Y-26922540D02*
X110545377Y-27017778D01*
X110545377Y-27017778D02*
X110545377Y-27160635D01*
X110545377Y-27160635D02*
X110592996Y-27255873D01*
X110592996Y-27255873D02*
X110640615Y-27303492D01*
X110640615Y-27303492D02*
X110735853Y-27351111D01*
X110735853Y-27351111D02*
X111116805Y-27351111D01*
X110116805Y-27303492D02*
X109783472Y-27303492D01*
X109640615Y-27827302D02*
X110116805Y-27827302D01*
X110116805Y-27827302D02*
X110116805Y-26827302D01*
X110116805Y-26827302D02*
X109640615Y-26827302D01*
X109259662Y-27779683D02*
X109116805Y-27827302D01*
X109116805Y-27827302D02*
X108878710Y-27827302D01*
X108878710Y-27827302D02*
X108783472Y-27779683D01*
X108783472Y-27779683D02*
X108735853Y-27732063D01*
X108735853Y-27732063D02*
X108688234Y-27636825D01*
X108688234Y-27636825D02*
X108688234Y-27541587D01*
X108688234Y-27541587D02*
X108735853Y-27446349D01*
X108735853Y-27446349D02*
X108783472Y-27398730D01*
X108783472Y-27398730D02*
X108878710Y-27351111D01*
X108878710Y-27351111D02*
X109069186Y-27303492D01*
X109069186Y-27303492D02*
X109164424Y-27255873D01*
X109164424Y-27255873D02*
X109212043Y-27208254D01*
X109212043Y-27208254D02*
X109259662Y-27113016D01*
X109259662Y-27113016D02*
X109259662Y-27017778D01*
X109259662Y-27017778D02*
X109212043Y-26922540D01*
X109212043Y-26922540D02*
X109164424Y-26874921D01*
X109164424Y-26874921D02*
X109069186Y-26827302D01*
X109069186Y-26827302D02*
X108831091Y-26827302D01*
X108831091Y-26827302D02*
X108688234Y-26874921D01*
X108259662Y-27303492D02*
X107926329Y-27303492D01*
X107783472Y-27827302D02*
X108259662Y-27827302D01*
X108259662Y-27827302D02*
X108259662Y-26827302D01*
X108259662Y-26827302D02*
X107783472Y-26827302D01*
X107497757Y-26827302D02*
X106926329Y-26827302D01*
X107212043Y-27827302D02*
X107212043Y-26827302D01*
D12*
X51033989Y-29229892D02*
X50891132Y-29277511D01*
X50891132Y-29277511D02*
X50843513Y-29325130D01*
X50843513Y-29325130D02*
X50795894Y-29420368D01*
X50795894Y-29420368D02*
X50795894Y-29563225D01*
X50795894Y-29563225D02*
X50843513Y-29658463D01*
X50843513Y-29658463D02*
X50891132Y-29706083D01*
X50891132Y-29706083D02*
X50986370Y-29753702D01*
X50986370Y-29753702D02*
X51367322Y-29753702D01*
X51367322Y-29753702D02*
X51367322Y-28753702D01*
X51367322Y-28753702D02*
X51033989Y-28753702D01*
X51033989Y-28753702D02*
X50938751Y-28801321D01*
X50938751Y-28801321D02*
X50891132Y-28848940D01*
X50891132Y-28848940D02*
X50843513Y-28944178D01*
X50843513Y-28944178D02*
X50843513Y-29039416D01*
X50843513Y-29039416D02*
X50891132Y-29134654D01*
X50891132Y-29134654D02*
X50938751Y-29182273D01*
X50938751Y-29182273D02*
X51033989Y-29229892D01*
X51033989Y-29229892D02*
X51367322Y-29229892D01*
X50367322Y-29372749D02*
X49605418Y-29372749D01*
D10*
%TO.C,D4-D15*%
X69742796Y-91006883D02*
X69742796Y-90106883D01*
X70642796Y-90106883D01*
X69742796Y-91006883D01*
G36*
X69742796Y-91006883D02*
G01*
X69742796Y-90106883D01*
X70642796Y-90106883D01*
X69742796Y-91006883D01*
G37*
%TO.C,D4-D7*%
X50686446Y-91006885D02*
X50686446Y-90106885D01*
X51586446Y-90106885D01*
X50686446Y-91006885D01*
G36*
X50686446Y-91006885D02*
G01*
X50686446Y-90106885D01*
X51586446Y-90106885D01*
X50686446Y-91006885D01*
G37*
%TO.C,D3-D15*%
X69749146Y-71984183D02*
X69749146Y-71084183D01*
X70649146Y-71084183D01*
X69749146Y-71984183D01*
G36*
X69749146Y-71984183D02*
G01*
X69749146Y-71084183D01*
X70649146Y-71084183D01*
X69749146Y-71984183D01*
G37*
%TO.C,D4-D18*%
X88792796Y-91006883D02*
X88792796Y-90106883D01*
X89692796Y-90106883D01*
X88792796Y-91006883D01*
G36*
X88792796Y-91006883D02*
G01*
X88792796Y-90106883D01*
X89692796Y-90106883D01*
X88792796Y-91006883D01*
G37*
D13*
%TO.C,SD9*%
X65833496Y-40129483D02*
X65833496Y-43989483D01*
X65833496Y-40129483D02*
X67833496Y-40129483D01*
X67833496Y-40129483D02*
X67833496Y-43989483D01*
X65790496Y-116326483D02*
X65790496Y-120186483D01*
X65790496Y-116326483D02*
X67790496Y-116326483D01*
X67790496Y-116326483D02*
X67790496Y-120186483D01*
X103990496Y-97226483D02*
X103990496Y-101086483D01*
X103990496Y-97226483D02*
X105990496Y-97226483D01*
X105990496Y-97226483D02*
X105990496Y-101086483D01*
%TO.C,RESET*%
X106492996Y-29628483D02*
X106492996Y-32228483D01*
X106492996Y-29628483D02*
X107692996Y-28328483D01*
X106492996Y-32228483D02*
X107892996Y-33528483D01*
X107892996Y-33528483D02*
X110492996Y-33528483D01*
X110292996Y-28328483D02*
X107692996Y-28328483D01*
X111692996Y-29628483D02*
X110292996Y-28328483D01*
X111692996Y-32228483D02*
X110492996Y-33528483D01*
X111692996Y-32228483D02*
X111692996Y-29628483D01*
X111092996Y-30928483D02*
G75*
G02*
X107092996Y-30928483I-2000000J0D01*
G01*
X107092996Y-30928483D02*
G75*
G02*
X111092996Y-30928483I2000000J0D01*
G01*
X110092996Y-30928483D02*
G75*
G02*
X108092996Y-30928483I-1000000J0D01*
G01*
X108092996Y-30928483D02*
G75*
G02*
X110092996Y-30928483I1000000J0D01*
G01*
%TO.C,SD9*%
X84990496Y-97226483D02*
X84990496Y-101086483D01*
X84990496Y-97226483D02*
X86990496Y-97226483D01*
X86990496Y-97226483D02*
X86990496Y-101086483D01*
X84790496Y-40126483D02*
X84790496Y-43986483D01*
X84790496Y-40126483D02*
X86790496Y-40126483D01*
X86790496Y-40126483D02*
X86790496Y-43986483D01*
X100416996Y-39937483D02*
X104276996Y-39937483D01*
X100416996Y-41937483D02*
X100416996Y-39937483D01*
X100416996Y-41937483D02*
X104276996Y-41937483D01*
X84990496Y-59226483D02*
X84990496Y-63086483D01*
X84990496Y-59226483D02*
X86990496Y-59226483D01*
X86990496Y-59226483D02*
X86990496Y-63086483D01*
X28990496Y-97276483D02*
X28990496Y-101136483D01*
X28990496Y-97276483D02*
X30990496Y-97276483D01*
X30990496Y-97276483D02*
X30990496Y-101136483D01*
X103990496Y-59226483D02*
X103990496Y-63086483D01*
X103990496Y-59226483D02*
X105990496Y-59226483D01*
X105990496Y-59226483D02*
X105990496Y-63086483D01*
X36370996Y-58979483D02*
X32510996Y-58979483D01*
X36370996Y-58979483D02*
X36370996Y-60979483D01*
X36370996Y-60979483D02*
X32510996Y-60979483D01*
X30190496Y-40126483D02*
X30190496Y-43986483D01*
X30190496Y-40126483D02*
X32190496Y-40126483D01*
X32190496Y-40126483D02*
X32190496Y-43986483D01*
X103990496Y-78226483D02*
X103990496Y-82086483D01*
X103990496Y-78226483D02*
X105990496Y-78226483D01*
X105990496Y-78226483D02*
X105990496Y-82086483D01*
X46590496Y-40126483D02*
X46590496Y-43986483D01*
X46590496Y-40126483D02*
X48590496Y-40126483D01*
X48590496Y-40126483D02*
X48590496Y-43986483D01*
X65890496Y-59226483D02*
X65890496Y-63086483D01*
X65890496Y-59226483D02*
X67890496Y-59226483D01*
X67890496Y-59226483D02*
X67890496Y-63086483D01*
X46790496Y-78226483D02*
X46790496Y-82086483D01*
X46790496Y-78226483D02*
X48790496Y-78226483D01*
X48790496Y-78226483D02*
X48790496Y-82086483D01*
X65890496Y-78226483D02*
X65890496Y-82086483D01*
X65890496Y-78226483D02*
X67890496Y-78226483D01*
X67890496Y-78226483D02*
X67890496Y-82086483D01*
X46790496Y-97226483D02*
X46790496Y-101086483D01*
X46790496Y-97226483D02*
X48790496Y-97226483D01*
X48790496Y-97226483D02*
X48790496Y-101086483D01*
X94390496Y-116326483D02*
X94390496Y-120186483D01*
X94390496Y-116326483D02*
X96390496Y-116326483D01*
X96390496Y-116326483D02*
X96390496Y-120186483D01*
X65890496Y-97226483D02*
X65890496Y-101086483D01*
X65890496Y-97226483D02*
X67890496Y-97226483D01*
X67890496Y-97226483D02*
X67890496Y-101086483D01*
%TO.C,J2*%
X47880495Y-32376483D02*
X47880496Y-32096484D01*
X47880496Y-27176483D02*
X47880495Y-28096483D01*
X47880496Y-27176483D02*
X54100496Y-27176483D01*
X47880496Y-28376482D02*
X47880495Y-28096483D01*
X47880496Y-33296483D02*
X47880495Y-32376483D01*
X54100496Y-27176483D02*
X54100496Y-33296483D01*
X54100496Y-33296483D02*
X47880496Y-33296483D01*
%TO.C,SD9*%
X84990496Y-78226483D02*
X84990496Y-82086483D01*
X84990496Y-78226483D02*
X86990496Y-78226483D01*
X86990496Y-78226483D02*
X86990496Y-82086483D01*
X28990496Y-78276483D02*
X28990496Y-82136483D01*
X28990496Y-78276483D02*
X30990496Y-78276483D01*
X30990496Y-78276483D02*
X30990496Y-82136483D01*
X37190496Y-116326483D02*
X37190496Y-120186483D01*
X37190496Y-116326483D02*
X39190496Y-116326483D01*
X39190496Y-116326483D02*
X39190496Y-120186483D01*
X46790496Y-59226483D02*
X46790496Y-63086483D01*
X46790496Y-59226483D02*
X48790496Y-59226483D01*
X48790496Y-59226483D02*
X48790496Y-63086483D01*
D14*
%TO.C,G\u002A\u002A\u002A*%
G36*
X35112779Y-27871836D02*
G01*
X35218764Y-27896149D01*
X35319838Y-27936681D01*
X35394018Y-27982356D01*
X35473627Y-28050988D01*
X35543959Y-28132410D01*
X35600619Y-28221444D01*
X35639213Y-28312913D01*
X35643453Y-28327260D01*
X35659460Y-28411649D01*
X35656766Y-28484018D01*
X35635627Y-28543882D01*
X35596302Y-28590755D01*
X35539046Y-28624152D01*
X35464116Y-28643589D01*
X35443068Y-28646778D01*
X35417085Y-28651091D01*
X35406811Y-28653376D01*
X35405444Y-28653447D01*
X35388380Y-28651923D01*
X35355927Y-28648283D01*
X35313319Y-28643101D01*
X35312320Y-28642976D01*
X35212221Y-28623556D01*
X35112077Y-28591706D01*
X35014363Y-28549284D01*
X34921551Y-28498146D01*
X34836116Y-28440148D01*
X34760531Y-28377149D01*
X34697270Y-28311005D01*
X34648807Y-28243572D01*
X34617616Y-28176709D01*
X34606170Y-28112271D01*
X34613830Y-28054094D01*
X34641564Y-27999906D01*
X34690263Y-27953462D01*
X34718822Y-27934669D01*
X34804904Y-27895159D01*
X34901894Y-27871446D01*
X35005837Y-27863637D01*
X35112779Y-27871836D01*
G37*
G36*
X39966718Y-27415754D02*
G01*
X39934959Y-27473545D01*
X39884634Y-27541306D01*
X39817792Y-27623875D01*
X39750685Y-27707502D01*
X39694217Y-27779002D01*
X39646290Y-27841202D01*
X39604803Y-27896932D01*
X39567658Y-27949020D01*
X39532756Y-28000294D01*
X39497998Y-28053583D01*
X39461283Y-28111714D01*
X39447746Y-28133554D01*
X39313916Y-28369699D01*
X39201781Y-28608297D01*
X39110490Y-28851345D01*
X39039191Y-29100838D01*
X39033547Y-29124243D01*
X39007561Y-29238575D01*
X38986627Y-29344791D01*
X38970106Y-29448009D01*
X38957362Y-29553347D01*
X38947755Y-29665925D01*
X38940648Y-29790861D01*
X38935401Y-29933273D01*
X38928195Y-30176524D01*
X38979949Y-30295322D01*
X39021191Y-30393216D01*
X39124982Y-30673047D01*
X39213384Y-30963848D01*
X39285105Y-31260513D01*
X39338855Y-31557933D01*
X39373340Y-31851001D01*
X39375980Y-31885054D01*
X39381961Y-31994175D01*
X39385498Y-32115275D01*
X39386702Y-32244513D01*
X39385682Y-32378050D01*
X39382546Y-32512046D01*
X39377406Y-32642661D01*
X39370371Y-32766054D01*
X39361549Y-32878386D01*
X39351052Y-32975818D01*
X39338988Y-33054508D01*
X39335423Y-33076644D01*
X39335258Y-33095898D01*
X39340165Y-33116453D01*
X39351749Y-33142858D01*
X39371612Y-33179661D01*
X39401359Y-33231412D01*
X39486065Y-33387701D01*
X39593753Y-33622279D01*
X39685501Y-33868380D01*
X39759914Y-34122138D01*
X39815597Y-34379687D01*
X39821373Y-34413839D01*
X39830677Y-34481533D01*
X39833283Y-34511079D01*
X39836769Y-34550603D01*
X39840186Y-34628113D01*
X39841462Y-34721129D01*
X39842208Y-34921146D01*
X39809505Y-34955346D01*
X39801652Y-34963191D01*
X39769907Y-34986634D01*
X39735874Y-34996675D01*
X39696894Y-34992714D01*
X39650307Y-34974149D01*
X39593452Y-34940381D01*
X39523672Y-34890810D01*
X39430499Y-34823580D01*
X39300496Y-34738065D01*
X39163221Y-34657544D01*
X39013656Y-34579120D01*
X38846785Y-34499895D01*
X38677287Y-34422805D01*
X38660104Y-34449120D01*
X38657447Y-34453159D01*
X38625087Y-34499602D01*
X38582120Y-34557817D01*
X38532307Y-34622949D01*
X38479412Y-34690143D01*
X38427198Y-34754543D01*
X38379426Y-34811294D01*
X38322672Y-34875367D01*
X38139326Y-35061402D01*
X37942305Y-35230788D01*
X37729851Y-35384953D01*
X37500204Y-35525325D01*
X37488432Y-35531911D01*
X37286194Y-35639499D01*
X37094397Y-35730235D01*
X36909900Y-35805173D01*
X36729563Y-35865369D01*
X36550247Y-35911876D01*
X36368813Y-35945751D01*
X36182119Y-35968046D01*
X36174040Y-35968590D01*
X36137790Y-35969562D01*
X36086528Y-35969680D01*
X36025886Y-35968959D01*
X35961496Y-35967415D01*
X35829512Y-35959824D01*
X35610425Y-35930403D01*
X35397916Y-35879953D01*
X35191210Y-35808187D01*
X34989532Y-35714818D01*
X34792106Y-35599556D01*
X34598155Y-35462116D01*
X34544589Y-35419919D01*
X34460947Y-35350310D01*
X34378513Y-35276663D01*
X34295779Y-35197318D01*
X34211240Y-35110618D01*
X34123389Y-35014905D01*
X34030721Y-34908520D01*
X33931729Y-34789806D01*
X33824907Y-34657104D01*
X33708750Y-34508757D01*
X33581751Y-34343105D01*
X33558388Y-34312429D01*
X33510697Y-34250147D01*
X33466286Y-34192576D01*
X33427746Y-34143053D01*
X33397666Y-34104912D01*
X33378636Y-34081491D01*
X33369726Y-34070832D01*
X33339630Y-34033929D01*
X33303995Y-33989343D01*
X33268756Y-33944475D01*
X33253666Y-33925180D01*
X33202489Y-33861132D01*
X33145275Y-33791241D01*
X33084278Y-33718109D01*
X33021750Y-33644340D01*
X32959945Y-33572538D01*
X32901114Y-33505306D01*
X32847511Y-33445247D01*
X32801389Y-33394964D01*
X32764999Y-33357061D01*
X32740596Y-33334141D01*
X32733783Y-33328348D01*
X32708465Y-33305840D01*
X32674417Y-33274788D01*
X32637043Y-33240099D01*
X32599946Y-33206571D01*
X32534040Y-33150422D01*
X32456354Y-33087148D01*
X32371019Y-33019938D01*
X32282166Y-32951986D01*
X32193926Y-32886482D01*
X32110430Y-32826619D01*
X32035809Y-32775587D01*
X31960371Y-32723187D01*
X31816473Y-32609467D01*
X31679125Y-32483131D01*
X31550894Y-32347202D01*
X31434345Y-32204702D01*
X31332044Y-32058654D01*
X31246557Y-31912079D01*
X31180448Y-31768000D01*
X31168280Y-31736373D01*
X31135280Y-31641171D01*
X31111960Y-31553696D01*
X31096918Y-31466452D01*
X31088757Y-31371942D01*
X31086426Y-31277008D01*
X31886003Y-31277008D01*
X31938137Y-31284636D01*
X31961965Y-31287957D01*
X32007308Y-31293952D01*
X32062486Y-31301016D01*
X32120382Y-31308229D01*
X32165285Y-31313409D01*
X32221777Y-31319069D01*
X32270101Y-31322993D01*
X32303128Y-31324546D01*
X32355762Y-31324899D01*
X32351475Y-31310857D01*
X32588088Y-31310857D01*
X32592730Y-31320464D01*
X32609618Y-31323633D01*
X32643939Y-31323203D01*
X32663662Y-31322495D01*
X32705242Y-31320240D01*
X32736997Y-31317569D01*
X32770105Y-31313710D01*
X32864676Y-31302423D01*
X32939301Y-31292994D01*
X32995946Y-31285111D01*
X33036578Y-31278461D01*
X33063166Y-31272731D01*
X33077675Y-31267610D01*
X33082075Y-31262785D01*
X33079291Y-31247369D01*
X33072832Y-31228301D01*
X33344784Y-31228301D01*
X33345061Y-31228456D01*
X33360868Y-31228326D01*
X33394813Y-31223247D01*
X33443358Y-31214016D01*
X33502963Y-31201430D01*
X33570089Y-31186286D01*
X33641198Y-31169382D01*
X33712751Y-31151514D01*
X33781209Y-31133480D01*
X33843034Y-31116077D01*
X33908180Y-31096960D01*
X33847925Y-31008763D01*
X34100337Y-31008763D01*
X34100742Y-31013185D01*
X34104834Y-31017521D01*
X34116094Y-31016411D01*
X34137860Y-31008832D01*
X34173470Y-30993761D01*
X34226261Y-30970175D01*
X34226971Y-30969855D01*
X34290294Y-30940415D01*
X34353587Y-30909460D01*
X34413431Y-30878827D01*
X34466411Y-30850352D01*
X34509107Y-30825871D01*
X34538103Y-30807221D01*
X34549980Y-30796237D01*
X34544996Y-30786279D01*
X34525860Y-30764857D01*
X34496060Y-30735839D01*
X34459397Y-30702570D01*
X34419672Y-30668397D01*
X34380685Y-30636664D01*
X34346238Y-30610719D01*
X34320132Y-30593906D01*
X34299760Y-30584709D01*
X34278121Y-30582915D01*
X34258742Y-30594869D01*
X34238156Y-30623024D01*
X34212896Y-30669837D01*
X34200399Y-30698121D01*
X34183814Y-30741051D01*
X34165226Y-30792797D01*
X34146294Y-30848357D01*
X34128678Y-30902734D01*
X34114040Y-30950927D01*
X34104040Y-30987936D01*
X34100337Y-31008763D01*
X33847925Y-31008763D01*
X33815434Y-30961205D01*
X33806903Y-30948750D01*
X33741329Y-30855735D01*
X33685307Y-30781795D01*
X33637969Y-30726076D01*
X33598448Y-30687724D01*
X33565875Y-30665883D01*
X33539384Y-30659699D01*
X33518107Y-30668318D01*
X33508312Y-30678434D01*
X33484912Y-30714828D01*
X33459691Y-30767766D01*
X33434011Y-30833303D01*
X33409238Y-30907498D01*
X33386736Y-30986406D01*
X33367869Y-31066084D01*
X33354003Y-31142589D01*
X33352941Y-31149841D01*
X33347714Y-31188913D01*
X33344792Y-31216953D01*
X33344784Y-31228301D01*
X33072832Y-31228301D01*
X33067325Y-31212045D01*
X33047723Y-31164195D01*
X33022453Y-31108006D01*
X32993481Y-31047669D01*
X32962774Y-30987372D01*
X32932300Y-30931303D01*
X32904025Y-30883651D01*
X32878189Y-30845673D01*
X32845614Y-30804031D01*
X32814055Y-30769260D01*
X32787241Y-30745418D01*
X32768903Y-30736569D01*
X32757835Y-30740778D01*
X32737624Y-30763788D01*
X32715366Y-30804178D01*
X32692179Y-30858920D01*
X32669179Y-30924986D01*
X32647482Y-30999348D01*
X32628205Y-31078977D01*
X32612465Y-31160845D01*
X32609256Y-31180169D01*
X32601215Y-31228402D01*
X32594461Y-31268666D01*
X32590198Y-31293785D01*
X32588088Y-31310857D01*
X32351475Y-31310857D01*
X32341083Y-31276814D01*
X32321695Y-31218657D01*
X32294532Y-31147521D01*
X32263532Y-31074277D01*
X32230368Y-31002255D01*
X32196710Y-30934790D01*
X32164228Y-30875213D01*
X32134594Y-30826858D01*
X32109479Y-30793057D01*
X32090554Y-30777141D01*
X32073213Y-30775288D01*
X32054186Y-30785766D01*
X32034221Y-30811111D01*
X32012225Y-30853107D01*
X31987109Y-30913535D01*
X31957783Y-30994179D01*
X31947952Y-31023485D01*
X31929073Y-31085186D01*
X31912790Y-31144998D01*
X31902748Y-31189167D01*
X31901812Y-31193285D01*
X31886003Y-31277008D01*
X31086426Y-31277008D01*
X31086074Y-31262671D01*
X31086124Y-31217032D01*
X31087527Y-31146405D01*
X31090932Y-31091167D01*
X31096692Y-31046630D01*
X31105158Y-31008106D01*
X31108258Y-30998832D01*
X31442586Y-30998832D01*
X31445176Y-31026129D01*
X31445807Y-31029575D01*
X31458793Y-31067408D01*
X31479087Y-31102498D01*
X31485147Y-31109794D01*
X31516497Y-31139124D01*
X31551914Y-31163692D01*
X31597425Y-31189167D01*
X31571526Y-31124093D01*
X31565137Y-31109017D01*
X31539832Y-31061603D01*
X31511243Y-31022260D01*
X31482975Y-30995411D01*
X31458629Y-30985478D01*
X31448199Y-30987329D01*
X31442586Y-30998832D01*
X31108258Y-30998832D01*
X31129945Y-30933959D01*
X31170445Y-30843138D01*
X31220809Y-30751267D01*
X31277318Y-30665741D01*
X31340337Y-30579447D01*
X31267734Y-30479812D01*
X31157881Y-30318553D01*
X31043220Y-30121553D01*
X30943925Y-29915414D01*
X30859688Y-29698956D01*
X30823155Y-29579104D01*
X31177246Y-29579104D01*
X31187532Y-29637454D01*
X31203168Y-29682647D01*
X31239347Y-29754868D01*
X31291527Y-29828618D01*
X31307394Y-29847617D01*
X31327216Y-29868561D01*
X31338457Y-29876703D01*
X31343863Y-29866178D01*
X31350265Y-29837607D01*
X31357075Y-29795517D01*
X31363704Y-29744438D01*
X31369565Y-29688896D01*
X31374070Y-29633420D01*
X31376632Y-29582538D01*
X31377134Y-29563839D01*
X31377957Y-29487617D01*
X31376614Y-29423990D01*
X31373260Y-29375453D01*
X31368051Y-29344501D01*
X31361142Y-29333629D01*
X31343748Y-29340358D01*
X31315584Y-29359959D01*
X31282878Y-29387914D01*
X31250943Y-29419654D01*
X31225091Y-29450612D01*
X31210850Y-29471523D01*
X31184606Y-29525847D01*
X31177246Y-29579104D01*
X30823155Y-29579104D01*
X30790202Y-29470997D01*
X30749557Y-29293298D01*
X31579056Y-29293298D01*
X31588949Y-29328399D01*
X31609689Y-29379789D01*
X31618392Y-29399482D01*
X31667609Y-29487617D01*
X31682352Y-29514019D01*
X31762291Y-29613651D01*
X31790587Y-29640013D01*
X31823433Y-29658370D01*
X31852302Y-29656940D01*
X31880103Y-29636279D01*
X31896316Y-29615733D01*
X31925221Y-29565126D01*
X31954005Y-29499000D01*
X31981029Y-29421764D01*
X32004652Y-29337828D01*
X32020086Y-29266206D01*
X32257138Y-29266206D01*
X32258494Y-29293029D01*
X32265582Y-29335114D01*
X32278073Y-29395856D01*
X32291621Y-29453807D01*
X32314768Y-29533788D01*
X32340293Y-29603548D01*
X32366636Y-29658991D01*
X32392239Y-29696021D01*
X32410152Y-29713018D01*
X32435581Y-29726289D01*
X32462539Y-29723840D01*
X32495085Y-29704909D01*
X32537274Y-29668732D01*
X32539192Y-29666927D01*
X32572652Y-29630762D01*
X32608917Y-29584435D01*
X32645100Y-29532533D01*
X32678312Y-29479640D01*
X32705663Y-29430342D01*
X32707883Y-29425435D01*
X32946306Y-29425435D01*
X32946392Y-29489844D01*
X32947787Y-29531201D01*
X32954820Y-29601212D01*
X32966736Y-29673436D01*
X32982365Y-29742910D01*
X33000532Y-29804669D01*
X33020065Y-29853750D01*
X33039792Y-29885188D01*
X33040276Y-29885708D01*
X33067407Y-29905954D01*
X33097983Y-29910351D01*
X33134269Y-29898146D01*
X33178528Y-29868586D01*
X33233025Y-29820917D01*
X33261541Y-29792930D01*
X33273503Y-29780001D01*
X33580452Y-29780001D01*
X33581177Y-29820478D01*
X33584539Y-29868237D01*
X33590452Y-29918267D01*
X33598085Y-29968119D01*
X33610431Y-30034505D01*
X33623178Y-30083412D01*
X33637228Y-30118035D01*
X33653485Y-30141569D01*
X33669208Y-30157125D01*
X33687022Y-30167340D01*
X33708168Y-30167342D01*
X33738134Y-30156881D01*
X33782409Y-30135707D01*
X33812953Y-30118198D01*
X33851649Y-30091865D01*
X33891394Y-30061584D01*
X33928234Y-30030687D01*
X33958216Y-30002506D01*
X33977387Y-29980374D01*
X33981793Y-29967624D01*
X33979381Y-29965135D01*
X33960773Y-29951856D01*
X33927513Y-29930754D01*
X33883381Y-29904001D01*
X33832155Y-29873769D01*
X33777613Y-29842230D01*
X33723534Y-29811555D01*
X33673697Y-29783916D01*
X33631878Y-29761485D01*
X33601857Y-29746434D01*
X33587412Y-29740934D01*
X33587257Y-29740941D01*
X33582450Y-29751818D01*
X33580452Y-29780001D01*
X33273503Y-29780001D01*
X33302458Y-29748705D01*
X33336458Y-29707091D01*
X33361161Y-29671323D01*
X33374190Y-29644639D01*
X33373164Y-29630273D01*
X33367023Y-29626019D01*
X33339957Y-29610548D01*
X33297949Y-29588641D01*
X33244966Y-29562253D01*
X33184976Y-29533343D01*
X33121947Y-29503865D01*
X33059846Y-29475776D01*
X32946306Y-29425435D01*
X32707883Y-29425435D01*
X32724265Y-29389223D01*
X32731229Y-29360869D01*
X32725282Y-29354405D01*
X32700861Y-29342645D01*
X32661243Y-29328251D01*
X32610412Y-29312288D01*
X32552348Y-29295824D01*
X32491034Y-29279927D01*
X32430453Y-29265665D01*
X32374585Y-29254105D01*
X32327414Y-29246315D01*
X32292921Y-29243362D01*
X32290773Y-29243354D01*
X32272947Y-29244764D01*
X32261846Y-29251250D01*
X32257138Y-29266206D01*
X32020086Y-29266206D01*
X32023233Y-29251602D01*
X32030895Y-29209175D01*
X31959670Y-29209268D01*
X31957631Y-29209273D01*
X31897075Y-29211450D01*
X31825803Y-29216923D01*
X31752151Y-29224806D01*
X31684455Y-29234211D01*
X31631050Y-29244252D01*
X31620596Y-29246808D01*
X31594266Y-29256395D01*
X31580624Y-29270594D01*
X31579056Y-29293298D01*
X30749557Y-29293298D01*
X30735160Y-29230357D01*
X30694255Y-28975855D01*
X30667180Y-28706311D01*
X30653627Y-28420543D01*
X30653290Y-28117371D01*
X30654774Y-28069907D01*
X30949324Y-28069907D01*
X30950796Y-28422050D01*
X30972495Y-28767928D01*
X30973335Y-28776843D01*
X30980226Y-28845316D01*
X30988099Y-28916949D01*
X30996479Y-28988075D01*
X31004893Y-29055027D01*
X31012866Y-29114139D01*
X31019923Y-29161744D01*
X31025591Y-29194176D01*
X31029395Y-29207767D01*
X31031285Y-29207710D01*
X31043961Y-29197440D01*
X31063368Y-29176288D01*
X31081671Y-29156918D01*
X31128079Y-29117279D01*
X31185660Y-29076089D01*
X31248037Y-29037756D01*
X31308831Y-29006688D01*
X31341652Y-28992834D01*
X31456942Y-28954765D01*
X31587433Y-28925393D01*
X31728534Y-28905425D01*
X31875658Y-28895569D01*
X32024213Y-28896529D01*
X32137619Y-28904146D01*
X32310904Y-28925616D01*
X32487802Y-28959541D01*
X32669774Y-29006448D01*
X32858283Y-29066862D01*
X33054789Y-29141310D01*
X33211828Y-29209175D01*
X33260755Y-29230319D01*
X33477642Y-29334414D01*
X33528310Y-29360869D01*
X33706912Y-29454122D01*
X33950026Y-29589969D01*
X34045283Y-29644639D01*
X34072619Y-29660328D01*
X34218888Y-29743727D01*
X34348540Y-29816867D01*
X34463157Y-29880544D01*
X34564321Y-29935557D01*
X34625054Y-29967624D01*
X34653611Y-29982702D01*
X34732609Y-30022777D01*
X34802896Y-30056579D01*
X34866053Y-30084907D01*
X34923661Y-30108557D01*
X34977301Y-30128326D01*
X35028554Y-30145013D01*
X35079001Y-30159414D01*
X35102430Y-30165224D01*
X35192330Y-30181109D01*
X35288536Y-30189879D01*
X35382000Y-30190959D01*
X35463678Y-30183777D01*
X35514408Y-30173850D01*
X35580690Y-30157347D01*
X35649064Y-30137464D01*
X35711397Y-30116584D01*
X35759553Y-30097091D01*
X35793114Y-30086206D01*
X35840348Y-30081008D01*
X35885387Y-30084837D01*
X35918939Y-30097660D01*
X35928648Y-30106045D01*
X35949802Y-30141081D01*
X35959190Y-30185880D01*
X35954635Y-30232226D01*
X35947151Y-30251496D01*
X35916092Y-30295636D01*
X35867583Y-30340703D01*
X35804925Y-30384538D01*
X35731419Y-30424983D01*
X35650366Y-30459877D01*
X35565066Y-30487061D01*
X35529380Y-30496795D01*
X35491490Y-30509305D01*
X35459101Y-30524322D01*
X35426652Y-30545025D01*
X35388585Y-30574597D01*
X35339342Y-30616217D01*
X35289677Y-30657987D01*
X35123032Y-30787279D01*
X35110156Y-30796237D01*
X34941569Y-30913530D01*
X34751135Y-31033011D01*
X34637556Y-31096960D01*
X34557573Y-31141993D01*
X34366730Y-31236747D01*
X34356880Y-31241265D01*
X34305813Y-31262785D01*
X34162822Y-31323042D01*
X34157645Y-31324899D01*
X33958520Y-31396319D01*
X33746424Y-31460799D01*
X33528982Y-31516184D01*
X33308643Y-31562177D01*
X33087856Y-31598480D01*
X32869068Y-31624797D01*
X32654730Y-31640829D01*
X32447289Y-31646279D01*
X32249195Y-31640851D01*
X32062895Y-31624246D01*
X31890839Y-31596167D01*
X31735476Y-31556317D01*
X31676134Y-31535592D01*
X31602728Y-31505330D01*
X31531333Y-31471586D01*
X31468553Y-31437512D01*
X31420994Y-31406260D01*
X31381124Y-31375850D01*
X31388556Y-31430072D01*
X31391559Y-31448303D01*
X31407950Y-31514289D01*
X31433609Y-31591451D01*
X31466408Y-31673804D01*
X31504221Y-31755366D01*
X31544476Y-31831709D01*
X31605001Y-31931351D01*
X31673027Y-32025406D01*
X31752649Y-32119395D01*
X31847963Y-32218840D01*
X31852460Y-32223311D01*
X31950353Y-32317851D01*
X32044210Y-32402399D01*
X32140094Y-32481998D01*
X32244065Y-32561689D01*
X32362186Y-32646514D01*
X32392731Y-32667978D01*
X32511133Y-32753096D01*
X32615185Y-32831618D01*
X32709252Y-32907142D01*
X32797701Y-32983267D01*
X32884900Y-33063591D01*
X32975214Y-33151713D01*
X33025132Y-33202093D01*
X33093127Y-33272630D01*
X33160326Y-33344863D01*
X33228280Y-33420651D01*
X33298539Y-33501850D01*
X33372652Y-33590319D01*
X33452167Y-33687914D01*
X33538636Y-33796494D01*
X33633606Y-33917915D01*
X33738629Y-34054036D01*
X33855252Y-34206714D01*
X33936496Y-34313092D01*
X34030542Y-34434897D01*
X34114475Y-34541754D01*
X34189968Y-34635636D01*
X34258694Y-34718516D01*
X34322328Y-34792369D01*
X34382543Y-34859167D01*
X34441013Y-34920885D01*
X34499412Y-34979495D01*
X34559414Y-35036971D01*
X34560849Y-35038317D01*
X34738056Y-35190847D01*
X34920954Y-35321593D01*
X35109984Y-35430780D01*
X35305583Y-35518633D01*
X35508190Y-35585377D01*
X35718244Y-35631236D01*
X35723356Y-35632061D01*
X35786403Y-35639784D01*
X35863718Y-35645901D01*
X35949179Y-35650238D01*
X36036661Y-35652621D01*
X36120042Y-35652877D01*
X36193197Y-35650832D01*
X36250003Y-35646313D01*
X36283906Y-35641874D01*
X36468369Y-35609601D01*
X36634270Y-35565991D01*
X36666641Y-35554907D01*
X36735172Y-35528004D01*
X36818109Y-35492291D01*
X36912215Y-35449391D01*
X37014254Y-35400925D01*
X37120990Y-35348518D01*
X37229187Y-35293792D01*
X37335608Y-35238370D01*
X37437016Y-35183876D01*
X37530176Y-35131931D01*
X37611852Y-35084159D01*
X37678807Y-35042182D01*
X37699962Y-35027918D01*
X37784631Y-34965548D01*
X37875359Y-34891682D01*
X37966211Y-34811501D01*
X38051255Y-34730186D01*
X38124558Y-34652919D01*
X38139483Y-34635934D01*
X38177350Y-34591364D01*
X38218304Y-34541533D01*
X38259835Y-34489676D01*
X38299431Y-34439028D01*
X38334582Y-34392822D01*
X38362777Y-34354294D01*
X38381505Y-34326677D01*
X38388255Y-34313208D01*
X38386653Y-34311791D01*
X38369024Y-34303315D01*
X38334387Y-34288850D01*
X38285813Y-34269620D01*
X38226376Y-34246852D01*
X38159146Y-34221771D01*
X38080813Y-34192321D01*
X37951148Y-34140130D01*
X37835353Y-34088174D01*
X37728027Y-34033807D01*
X37623768Y-33974383D01*
X37517175Y-33907255D01*
X37469351Y-33875272D01*
X37296825Y-33747908D01*
X37145519Y-33615435D01*
X37014601Y-33476997D01*
X36903237Y-33331733D01*
X36810594Y-33178787D01*
X36795032Y-33148964D01*
X36754027Y-33061860D01*
X36727932Y-32989702D01*
X36716449Y-32931168D01*
X36719279Y-32884939D01*
X36736123Y-32849693D01*
X36772656Y-32816553D01*
X36819988Y-32800406D01*
X36873093Y-32805945D01*
X36881609Y-32808713D01*
X36908509Y-32822412D01*
X36932316Y-32845626D01*
X36959183Y-32883930D01*
X36970491Y-32901610D01*
X37046908Y-33018687D01*
X37115331Y-33118604D01*
X37177827Y-33203965D01*
X37236460Y-33277375D01*
X37293299Y-33341437D01*
X37350408Y-33398756D01*
X37409855Y-33451936D01*
X37435394Y-33473364D01*
X37532666Y-33550529D01*
X37631245Y-33621068D01*
X37734112Y-33686586D01*
X37844242Y-33748689D01*
X37964615Y-33808982D01*
X38098206Y-33869073D01*
X38247995Y-33930567D01*
X38416959Y-33995069D01*
X38570185Y-34053003D01*
X38751737Y-34125346D01*
X38915972Y-34195548D01*
X39065641Y-34264899D01*
X39203501Y-34334688D01*
X39332305Y-34406203D01*
X39454807Y-34480734D01*
X39460097Y-34484079D01*
X39493595Y-34504372D01*
X39518171Y-34517753D01*
X39528826Y-34521473D01*
X39529758Y-34511079D01*
X39526696Y-34481867D01*
X39519908Y-34438087D01*
X39510183Y-34383758D01*
X39498310Y-34322900D01*
X39485076Y-34259530D01*
X39471271Y-34197669D01*
X39457681Y-34141334D01*
X39445095Y-34094545D01*
X39408429Y-33976472D01*
X39315360Y-33729111D01*
X39202752Y-33490999D01*
X39070104Y-33261312D01*
X38916917Y-33039225D01*
X38742692Y-32823916D01*
X38546927Y-32614560D01*
X38496048Y-32564365D01*
X38432747Y-32503370D01*
X38369809Y-32444070D01*
X38312375Y-32391303D01*
X38265589Y-32349907D01*
X38245064Y-32332202D01*
X38191767Y-32284535D01*
X38153643Y-32246466D01*
X38128521Y-32214915D01*
X38114226Y-32186801D01*
X38108587Y-32159043D01*
X38109429Y-32128562D01*
X38111269Y-32114493D01*
X38123602Y-32077252D01*
X38149827Y-32046535D01*
X38161081Y-32037190D01*
X38186143Y-32022586D01*
X38213266Y-32017285D01*
X38244961Y-32022202D01*
X38283739Y-32038250D01*
X38332111Y-32066345D01*
X38392586Y-32107402D01*
X38467675Y-32162335D01*
X38490664Y-32180096D01*
X38542777Y-32223208D01*
X38603126Y-32275970D01*
X38668897Y-32335664D01*
X38737273Y-32399572D01*
X38805439Y-32464974D01*
X38870580Y-32529154D01*
X38929879Y-32589392D01*
X38980520Y-32642971D01*
X39019689Y-32687171D01*
X39044569Y-32719276D01*
X39053007Y-32731453D01*
X39070029Y-32753097D01*
X39080104Y-32761703D01*
X39083932Y-32752738D01*
X39087671Y-32724158D01*
X39090877Y-32679067D01*
X39093498Y-32620664D01*
X39095481Y-32552146D01*
X39096772Y-32476709D01*
X39097318Y-32397553D01*
X39097066Y-32317873D01*
X39095963Y-32240867D01*
X39093955Y-32169733D01*
X39090990Y-32107668D01*
X39072951Y-31878197D01*
X39037661Y-31590326D01*
X38988545Y-31315858D01*
X38924827Y-31051676D01*
X38845729Y-30794661D01*
X38750476Y-30541697D01*
X38638292Y-30289665D01*
X38528618Y-30076123D01*
X38392207Y-29841665D01*
X38239159Y-29605675D01*
X38071878Y-29371358D01*
X37892766Y-29141923D01*
X37704227Y-28920576D01*
X37508664Y-28710525D01*
X37308481Y-28514975D01*
X37212638Y-28427508D01*
X36968820Y-28218021D01*
X36714495Y-28017898D01*
X36447650Y-27825787D01*
X36213326Y-27671352D01*
X36773233Y-27671352D01*
X36777821Y-27675874D01*
X36797799Y-27692347D01*
X36830749Y-27718304D01*
X36873576Y-27751319D01*
X36923188Y-27788965D01*
X36962210Y-27818541D01*
X37106878Y-27931824D01*
X37243680Y-28045388D01*
X37377826Y-28163797D01*
X37514528Y-28291614D01*
X37658995Y-28433404D01*
X37754055Y-28530114D01*
X37970984Y-28763883D01*
X38167436Y-28995567D01*
X38344656Y-29226676D01*
X38503891Y-29458724D01*
X38508648Y-29466084D01*
X38541807Y-29517510D01*
X38572259Y-29564934D01*
X38596804Y-29603360D01*
X38612241Y-29627794D01*
X38619084Y-29638239D01*
X38631901Y-29653852D01*
X38637073Y-29653683D01*
X38638088Y-29636005D01*
X38642503Y-29593532D01*
X38649797Y-29536087D01*
X38659307Y-29468071D01*
X38670371Y-29393886D01*
X38682326Y-29317932D01*
X38694509Y-29244613D01*
X38706258Y-29178328D01*
X38716909Y-29123479D01*
X38764639Y-28927166D01*
X38840723Y-28688294D01*
X38935735Y-28449389D01*
X39048099Y-28213712D01*
X39176238Y-27984522D01*
X39318575Y-27765080D01*
X39473535Y-27558648D01*
X39499559Y-27526421D01*
X39536102Y-27480857D01*
X39561229Y-27448784D01*
X39576797Y-27427610D01*
X39584667Y-27414745D01*
X39586696Y-27407596D01*
X39584742Y-27403572D01*
X39584436Y-27403329D01*
X39570061Y-27397667D01*
X39538627Y-27387537D01*
X39494513Y-27374298D01*
X39442097Y-27359308D01*
X39352336Y-27335902D01*
X39113611Y-27288969D01*
X38864899Y-27261106D01*
X38607575Y-27252183D01*
X38343017Y-27262075D01*
X38072603Y-27290653D01*
X37797708Y-27337790D01*
X37519710Y-27403358D01*
X37239987Y-27487230D01*
X36959914Y-27589277D01*
X36903346Y-27612104D01*
X36850598Y-27634164D01*
X36809153Y-27652349D01*
X36782277Y-27665223D01*
X36773233Y-27671352D01*
X36213326Y-27671352D01*
X36166269Y-27640338D01*
X35868338Y-27460198D01*
X35551843Y-27284016D01*
X35214770Y-27110441D01*
X35183777Y-27095102D01*
X34945863Y-26980411D01*
X34719532Y-26877212D01*
X34499311Y-26783241D01*
X34279726Y-26696236D01*
X34055301Y-26613932D01*
X33820564Y-26534068D01*
X33644212Y-26477331D01*
X33376727Y-26396449D01*
X33119762Y-26325675D01*
X32868067Y-26263747D01*
X32616391Y-26209400D01*
X32359485Y-26161374D01*
X32092097Y-26118404D01*
X32087879Y-26117781D01*
X31998693Y-26106750D01*
X31904078Y-26098616D01*
X31808011Y-26093414D01*
X31714468Y-26091180D01*
X31627426Y-26091950D01*
X31550862Y-26095758D01*
X31488753Y-26102641D01*
X31445076Y-26112633D01*
X31419214Y-26123588D01*
X31373057Y-26154171D01*
X31329773Y-26198689D01*
X31288898Y-26258228D01*
X31249965Y-26333872D01*
X31212511Y-26426705D01*
X31176070Y-26537812D01*
X31140177Y-26668279D01*
X31104367Y-26819188D01*
X31068175Y-26991625D01*
X31064390Y-27010806D01*
X31006309Y-27360792D01*
X30967891Y-27714989D01*
X30949324Y-28069907D01*
X30654774Y-28069907D01*
X30659620Y-27914973D01*
X30682661Y-27562095D01*
X30720669Y-27225739D01*
X30773685Y-26905579D01*
X30841750Y-26601291D01*
X30847576Y-26578545D01*
X30871414Y-26488497D01*
X30892803Y-26414247D01*
X30913530Y-26350601D01*
X30935381Y-26292366D01*
X30960141Y-26234350D01*
X30989597Y-26171357D01*
X31010141Y-26130583D01*
X31072261Y-26028226D01*
X31141241Y-25945312D01*
X31219472Y-25879698D01*
X31309346Y-25829241D01*
X31413255Y-25791799D01*
X31417971Y-25790573D01*
X31457459Y-25784137D01*
X31514137Y-25778968D01*
X31583392Y-25775165D01*
X31660608Y-25772826D01*
X31741170Y-25772052D01*
X31820464Y-25772942D01*
X31893874Y-25775595D01*
X31956786Y-25780109D01*
X32020476Y-25786724D01*
X32279724Y-25821083D01*
X32553197Y-25868369D01*
X32838029Y-25927773D01*
X33131355Y-25998484D01*
X33430311Y-26079693D01*
X33732033Y-26170590D01*
X34033657Y-26270366D01*
X34332317Y-26378210D01*
X34625150Y-26493312D01*
X34909291Y-26614863D01*
X35124224Y-26713064D01*
X35363616Y-26828689D01*
X35591008Y-26946042D01*
X35811997Y-27068128D01*
X36032177Y-27197949D01*
X36257145Y-27338512D01*
X36260813Y-27340862D01*
X36317932Y-27377080D01*
X36368612Y-27408547D01*
X36409718Y-27433369D01*
X36438117Y-27449652D01*
X36450675Y-27455500D01*
X36461982Y-27452244D01*
X36490372Y-27441451D01*
X36530753Y-27424892D01*
X36578480Y-27404425D01*
X36778976Y-27321198D01*
X37044723Y-27223431D01*
X37315069Y-27137302D01*
X37585196Y-27064207D01*
X37850281Y-27005539D01*
X38105505Y-26962694D01*
X38148870Y-26957615D01*
X38228278Y-26951064D01*
X38322504Y-26945637D01*
X38426919Y-26941418D01*
X38536896Y-26938491D01*
X38647807Y-26936941D01*
X38755026Y-26936852D01*
X38853924Y-26938310D01*
X38939875Y-26941398D01*
X39008250Y-26946201D01*
X39023239Y-26947712D01*
X39167836Y-26966556D01*
X39308685Y-26992334D01*
X39443091Y-27024171D01*
X39568359Y-27061191D01*
X39681794Y-27102521D01*
X39780700Y-27147283D01*
X39862384Y-27194604D01*
X39924148Y-27243608D01*
X39953896Y-27277409D01*
X39975857Y-27320166D01*
X39980241Y-27365455D01*
X39968911Y-27407596D01*
X39966718Y-27415754D01*
G37*
%TD*%
%LPC*%
D15*
%TO.C,D3-D21*%
X106974146Y-67909183D03*
D16*
X112054146Y-67909183D03*
D15*
X117134146Y-67909183D03*
D17*
X114594146Y-62829183D03*
X108244146Y-65369183D03*
%TD*%
D18*
%TO.C,*%
X121710496Y-125546485D03*
%TD*%
D15*
%TO.C,D5-D15*%
X68874146Y-106009183D03*
D16*
X73954146Y-106009183D03*
D15*
X79034146Y-106009183D03*
D17*
X76494146Y-100929183D03*
X70144146Y-103469183D03*
%TD*%
D15*
%TO.C,D3-D14*%
X30774146Y-67909185D03*
D16*
X35854146Y-67909185D03*
D15*
X40934146Y-67909185D03*
D17*
X38394146Y-62829185D03*
X32044146Y-65369185D03*
%TD*%
D19*
%TO.C,D6-D14*%
X33478146Y-118041185D03*
D16*
X33478146Y-133281185D03*
D15*
X40298146Y-125041185D03*
D16*
X45378146Y-125041185D03*
D15*
X50458146Y-125041185D03*
D19*
X57278146Y-118041185D03*
D16*
X57278146Y-133281185D03*
D17*
X47918146Y-119961185D03*
X41568146Y-122501185D03*
%TD*%
D15*
%TO.C,D4-D15*%
X68447796Y-86931883D03*
D16*
X73947794Y-86931883D03*
D15*
X79447792Y-86931883D03*
D20*
X76542796Y-92756883D03*
X76542796Y-91256883D03*
X71342796Y-91256883D03*
X71342796Y-92756883D03*
D21*
X76487796Y-81851883D03*
D22*
X70137796Y-84391885D03*
%TD*%
D15*
%TO.C,D5-D14*%
X30774146Y-106009185D03*
D16*
X35854146Y-106009185D03*
D15*
X40934146Y-106009185D03*
D17*
X38394146Y-100929185D03*
X32044146Y-103469185D03*
%TD*%
D15*
%TO.C,D6-D7*%
X68878146Y-125051185D03*
D16*
X73958146Y-125051185D03*
D15*
X79038146Y-125051185D03*
D17*
X76498146Y-119971185D03*
X70148146Y-122511185D03*
%TD*%
D15*
%TO.C,D2-D15*%
X68874146Y-48859183D03*
D16*
X73954146Y-48859183D03*
D15*
X79034146Y-48859183D03*
D17*
X76494146Y-43779183D03*
X70144146Y-46319183D03*
%TD*%
D15*
%TO.C,D4-D21*%
X106967796Y-86931883D03*
D16*
X112047796Y-86931883D03*
D15*
X117127796Y-86931883D03*
D17*
X114587796Y-81851883D03*
X108237796Y-84391883D03*
%TD*%
D23*
%TO.C,D2-D21*%
X104550496Y-46366483D03*
D24*
X104550496Y-51366483D03*
X104550496Y-48866483D03*
D25*
X112050496Y-43266483D03*
X112050496Y-54466483D03*
D24*
X119050496Y-51366483D03*
X119050496Y-46366483D03*
%TD*%
D26*
%TO.C,U1*%
X87890496Y-36936483D03*
X85350496Y-36936483D03*
X82810496Y-36936483D03*
X80270496Y-36936483D03*
X77730496Y-36936483D03*
X75190496Y-36936483D03*
X72650496Y-36936483D03*
X70110496Y-36936483D03*
X67570496Y-36936483D03*
X65030496Y-36936483D03*
X62490496Y-36936483D03*
X59950496Y-36936483D03*
X87890496Y-21696483D03*
X85350496Y-21696483D03*
X82810496Y-21696483D03*
X80270496Y-21696483D03*
X77730496Y-21696483D03*
X75190496Y-21696483D03*
X72650496Y-21696483D03*
X67570496Y-21696483D03*
X65030496Y-21696483D03*
X62490496Y-21696483D03*
X59950496Y-21696483D03*
X90430496Y-21696483D03*
X70110496Y-21696483D03*
X90430496Y-36936483D03*
%TD*%
D15*
%TO.C,D2-D18*%
X87924146Y-48859183D03*
D16*
X93004146Y-48859183D03*
D15*
X98084146Y-48859183D03*
D17*
X95544146Y-43779183D03*
X89194146Y-46319183D03*
%TD*%
D15*
%TO.C,D4-D7*%
X49391446Y-86931885D03*
D16*
X54891444Y-86931885D03*
D15*
X60391442Y-86931885D03*
D20*
X57486446Y-92756885D03*
X57486446Y-91256885D03*
X52286446Y-91256885D03*
X52286446Y-92756885D03*
D21*
X57431446Y-81851885D03*
D22*
X51081446Y-84391887D03*
%TD*%
D15*
%TO.C,D4-D14*%
X30767796Y-86931885D03*
D16*
X35847796Y-86931885D03*
D15*
X40927796Y-86931885D03*
D17*
X38387796Y-81851885D03*
X32037796Y-84391885D03*
%TD*%
D15*
%TO.C,D2-D7*%
X49817796Y-48859185D03*
D16*
X54897796Y-48859185D03*
D15*
X59977796Y-48859185D03*
D17*
X57437796Y-43779185D03*
X51087796Y-46319185D03*
%TD*%
D15*
%TO.C,D3-D15*%
X68454146Y-67909183D03*
D16*
X73954144Y-67909183D03*
D15*
X79454142Y-67909183D03*
D20*
X76549146Y-73734183D03*
X76549146Y-72234183D03*
X71349146Y-72234183D03*
X71349146Y-73734183D03*
D21*
X76494146Y-62829183D03*
D22*
X70144146Y-65369185D03*
%TD*%
D18*
%TO.C,*%
X121710496Y-58406483D03*
%TD*%
D15*
%TO.C,D5-D21*%
X106974146Y-106009183D03*
D16*
X112054146Y-106009183D03*
D15*
X117134146Y-106009183D03*
D17*
X114594146Y-100929183D03*
X108244146Y-103469183D03*
%TD*%
D15*
%TO.C,D3-D7*%
X49817796Y-67909185D03*
D16*
X54897796Y-67909185D03*
D15*
X59977796Y-67909185D03*
D17*
X57437796Y-62829185D03*
X51087796Y-65369185D03*
%TD*%
D15*
%TO.C,D3-D18*%
X87924146Y-67909183D03*
D16*
X93004146Y-67909183D03*
D15*
X98084146Y-67909183D03*
D17*
X95544146Y-62829183D03*
X89194146Y-65369183D03*
%TD*%
D18*
%TO.C,*%
X26230496Y-125546483D03*
%TD*%
D23*
%TO.C,D2-D14*%
X43350496Y-51366483D03*
D24*
X43350496Y-46366483D03*
X43350496Y-48866483D03*
D25*
X35850496Y-54466483D03*
X35850496Y-43266483D03*
D24*
X28850496Y-46366483D03*
X28850496Y-51366483D03*
%TD*%
D18*
%TO.C,*%
X26190496Y-58406481D03*
%TD*%
D19*
%TO.C,D6-D15*%
X90638146Y-118051185D03*
D16*
X90638146Y-133291185D03*
D15*
X97458146Y-125051185D03*
D16*
X102538146Y-125051185D03*
D15*
X107618146Y-125051185D03*
D19*
X114438146Y-118051185D03*
D16*
X114438146Y-133291185D03*
D17*
X105078146Y-119971185D03*
X98728146Y-122511185D03*
%TD*%
D15*
%TO.C,D5-D7*%
X49817796Y-106009185D03*
D16*
X54897796Y-106009185D03*
D15*
X59977796Y-106009185D03*
D17*
X57437796Y-100929185D03*
X51087796Y-103469185D03*
%TD*%
D15*
%TO.C,D5-D18*%
X87924146Y-106009183D03*
D16*
X93004146Y-106009183D03*
D15*
X98084146Y-106009183D03*
D17*
X95544146Y-100929183D03*
X89194146Y-103469183D03*
%TD*%
D15*
%TO.C,D4-D18*%
X87497796Y-86931883D03*
D16*
X92997794Y-86931883D03*
D15*
X98497792Y-86931883D03*
D20*
X95592796Y-92756883D03*
X95592796Y-91256883D03*
X90392796Y-91256883D03*
X90392796Y-92756883D03*
D21*
X95537796Y-81851883D03*
D22*
X89187796Y-84391885D03*
%TD*%
D27*
%TO.C,SD9*%
X66833496Y-40939483D03*
X66833496Y-43739483D03*
%TD*%
%TO.C,SD9*%
X66790496Y-117136483D03*
X66790496Y-119936483D03*
%TD*%
%TO.C,SD9*%
X104990496Y-98036483D03*
X104990496Y-100836483D03*
%TD*%
D28*
%TO.C,RESET*%
X112092996Y-29078483D03*
X106092996Y-29078483D03*
X112092996Y-32778483D03*
X106092996Y-32778483D03*
%TD*%
D27*
%TO.C,SD9*%
X85990496Y-98036483D03*
X85990496Y-100836483D03*
%TD*%
%TO.C,SD9*%
X85790496Y-40936483D03*
X85790496Y-43736483D03*
%TD*%
D29*
%TO.C,SD9*%
X101226996Y-40937483D03*
X104026996Y-40937483D03*
%TD*%
D27*
%TO.C,SD9*%
X85990496Y-60036483D03*
X85990496Y-62836483D03*
%TD*%
%TO.C,SD9*%
X29990496Y-98086483D03*
X29990496Y-100886483D03*
%TD*%
%TO.C,SD9*%
X104990496Y-60036483D03*
X104990496Y-62836483D03*
%TD*%
D30*
%TO.C,SD9*%
X35560996Y-59979483D03*
X32760996Y-59979483D03*
%TD*%
D27*
%TO.C,SD9*%
X31190496Y-40936483D03*
X31190496Y-43736483D03*
%TD*%
%TO.C,SD9*%
X104990496Y-79036483D03*
X104990496Y-81836483D03*
%TD*%
D31*
%TO.C,SW43*%
X96770000Y-21090000D03*
X96770000Y-23300000D03*
D32*
X99170000Y-22190000D03*
X102170000Y-22190000D03*
D31*
X104570000Y-21090000D03*
X104570000Y-23300000D03*
D33*
X98420000Y-24200000D03*
X101420000Y-24200000D03*
X102920000Y-24200000D03*
%TD*%
D27*
%TO.C,SD9*%
X47590496Y-40936483D03*
X47590496Y-43736483D03*
%TD*%
%TO.C,SD9*%
X66890496Y-60036483D03*
X66890496Y-62836483D03*
%TD*%
%TO.C,SD9*%
X47790496Y-79036483D03*
X47790496Y-81836483D03*
%TD*%
%TO.C,SD9*%
X66890496Y-79036483D03*
X66890496Y-81836483D03*
%TD*%
%TO.C,SD9*%
X47790496Y-98036483D03*
X47790496Y-100836483D03*
%TD*%
D34*
%TO.C,*%
X99520000Y-31190000D03*
%TD*%
D27*
%TO.C,SD9*%
X95390496Y-117136483D03*
X95390496Y-119936483D03*
%TD*%
%TO.C,SD9*%
X66890496Y-98036483D03*
X66890496Y-100836483D03*
%TD*%
D35*
%TO.C,J2*%
X47740496Y-29236483D03*
X47740496Y-31236483D03*
%TD*%
D27*
%TO.C,SD9*%
X85990496Y-79036483D03*
X85990496Y-81836483D03*
%TD*%
%TO.C,SD9*%
X29990496Y-79086483D03*
X29990496Y-81886483D03*
%TD*%
D36*
%TO.C,*%
X100970001Y-31190001D03*
%TD*%
D27*
%TO.C,SD9*%
X38190496Y-117136483D03*
X38190496Y-119936483D03*
%TD*%
%TO.C,SD9*%
X47790496Y-60036483D03*
X47790496Y-62836483D03*
%TD*%
%LPD*%
M02*
